{
copyright = "Copyright (c) 2011-12 by vernon adams. All rights reserved.";
customParameters = (
{
name = glyphOrder;
value = (
    ".notdef",
    space,
    exclam,
    quotedbl,
    numbersign,
    dollar,
    percent,
    ampersand,
    parenleft,
    parenright,
    asterisk,
    plus,
    comma,
    hyphen,
    period,
    slash,
    zero,
    one,
    two,
    three,
    four,
    five,
    six,
    seven,
    eight,
    nine,
    colon,
    semicolon,
    less,
    equal,
    greater,
    question,
    at,
    A,
    B,
    C,
    D,
    E,
    F,
    G,
    H,
    I,
    J,
    K,
    L,
    M,
    N,
    O,
    P,
    Q,
    R,
    S,
    T,
    U,
    V,
    W,
    X,
    Y,
    Z,
    bracketleft,
    backslash,
    bracketright,
    asciicircum,
    underscore,
    grave,
    a,
    b,
    c,
    d,
    e,
    f,
    g,
    h,
    i,
    j,
    k,
    l,
    m,
    n,
    o,
    p,
    q,
    r,
    s,
    t,
    u,
    v,
    w,
    x,
    y,
    z,
    braceleft,
    bar,
    braceright,
    asciitilde,
    exclamdown,
    cent,
    sterling,
    currency,
    yen,
    brokenbar,
    section,
    dieresis,
    copyright,
    ordfeminine,
    guillemotleft,
    logicalnot,
    registered,
    degree,
    plusminus,
    acute,
    paragraph,
    periodcentered,
    cedilla,
    ordmasculine,
    guillemotright,
    onequarter,
    onehalf,
    threequarters,
    questiondown,
    Agrave,
    Aacute,
    Acircumflex,
    Atilde,
    Adieresis,
    Aring,
    AE,
    Ccedilla,
    Egrave,
    Eacute,
    Ecircumflex,
    Edieresis,
    Igrave,
    Iacute,
    Icircumflex,
    Idieresis,
    Eth,
    Ntilde,
    Ograve,
    Oacute,
    Ocircumflex,
    Otilde,
    Odieresis,
    multiply,
    Oslash,
    Ugrave,
    Uacute,
    Ucircumflex,
    Udieresis,
    Yacute,
    Thorn,
    germandbls,
    agrave,
    aacute,
    acircumflex,
    atilde,
    adieresis,
    aring,
    ae,
    ccedilla,
    egrave,
    eacute,
    ecircumflex,
    edieresis,

glyphs = (
{
glyphname = exclam;
lastChange = "2013-12-29 00:27:25 -0800";
layers = (
{
layerId = "5ACEE878-7952-4CAC-A6A7-BEDE971843B4";
name = Regular;
paths = (
{
closed = 1;
nodes = (
"578 -2 CURVE SMOOTH",
"694 -2 OFFCURVE",
"759 81 OFFCURVE",
"759 191 CURVE SMOOTH",
"759 295 OFFCURVE",
"701 353 OFFCURVE",
"597 353 CURVE SMOOTH",
"480 353 OFFCURVE",
"414 277 OFFCURVE",
"414 162 CURVE SMOOTH",
"414 55 OFFCURVE",
"472 -2 OFFCURVE"
);
},
{
closed = 1;
nodes = (
"642 492 CURVE SMOOTH",
"675 492 OFFCURVE",
"694 504 OFFCURVE",
"716 562 CURVE SMOOTH",
"1095 1540 LINE SMOOTH",
"1160 1709 OFFCURVE",
"1239 1875 OFFCURVE",
"1049 1896 CURVE SMOOTH",
"957 1906 OFFCURVE",
"896 1844 OFFCURVE",
"876 1758 CURVE SMOOTH",
"598 552 LINE",
"596 545 OFFCURVE",
"596 540 OFFCURVE",
"596 537 CURVE SMOOTH",
"596 505 OFFCURVE",
"617 492 OFFCURVE"
);
}
);
width = 1132;
},
{
layerId = "DE4BB00D-BABA-4D36-9D9A-44FD0E91C3DF";
name = Light;
paths = (
{
closed = 1;
nodes = (
"578 28 CURVE",
"675.391 28 OFFCURVE",
"729 95.3475 OFFCURVE",
"729 191 CURVE",
"729 278.575 OFFCURVE",
"684.575 323 OFFCURVE",
"597 323 CURVE",
"497.679 323 OFFCURVE",
"444 261.793 OFFCURVE",
"444 162 CURVE",
"444 71.5777 OFFCURVE",
"488.272 28 OFFCURVE"
);
},
{
closed = 1;
nodes = (
"642 492 CURVE SMOOTH",
"675 492 OFFCURVE",
"694 504 OFFCURVE",
"716 562 CURVE SMOOTH",
"1095 1540 LINE SMOOTH",
"1160 1709 OFFCURVE",
"1239 1875 OFFCURVE",
"1049 1896 CURVE SMOOTH",
"957 1906 OFFCURVE",
"896 1844 OFFCURVE",
"876 1758 CURVE SMOOTH",
"599 561 OFFCURVE",
"596 551 OFFCURVE",
"596 537 CURVE SMOOTH",
"596 505 OFFCURVE",
"617 492 OFFCURVE"
);
}
);
width = 1132;
}
);
unicode = 0021;
},
{
glyphname = quotedbl;
lastChange = "2013-12-29 00:27:25 -0800";
layers = (
{
layerId = "5ACEE878-7952-4CAC-A6A7-BEDE971843B4";
name = Regular;
paths = (
{
closed = 1;
nodes = (
"664 1135 CURVE SMOOTH",
"711 1135 OFFCURVE",
"746 1180 OFFCURVE",
"756 1230 CURVE SMOOTH",
"783 1373 OFFCURVE",
"802 1543 OFFCURVE",
"822 1747 CURVE",
"823 1752 OFFCURVE",
"823 1757 OFFCURVE",
"823 1762 CURVE SMOOTH",
"823 1825 OFFCURVE",
"776 1856 OFFCURVE",
"724 1856 CURVE SMOOTH",
"651 1856 OFFCURVE",
"576 1810 OFFCURVE",
"576 1728 CURVE SMOOTH",
"576 1559 OFFCURVE",
"584 1405 OFFCURVE",
"584 1233 CURVE SMOOTH",
"584 1177 OFFCURVE",
"613 1135 OFFCURVE"
);
},
{
closed = 1;
nodes = (
"310 1135 CURVE SMOOTH",
"352 1135 OFFCURVE",
"385 1180 OFFCURVE",
"392 1230 CURVE SMOOTH",
"410 1373 OFFCURVE",
"428 1577 OFFCURVE",
"428 1747 CURVE SMOOTH",
"428 1820 OFFCURVE",
"382 1856 OFFCURVE",
"320 1856 CURVE SMOOTH",
"257 1856 OFFCURVE",
"192 1810 OFFCURVE",
"192 1728 CURVE SMOOTH",
"192 1559 OFFCURVE",
"214 1383 OFFCURVE",
"230 1233 CURVE SMOOTH",
"237 1177 OFFCURVE",
"259 1135 OFFCURVE"
);
}
);
width = 1184;
},
{
layerId = "DE4BB00D-BABA-4D36-9D9A-44FD0E91C3DF";
name = Light;
paths = (
{
closed = 1;
nodes = (
"664 1160 CURVE",
"696.664 1160 OFFCURVE",
"723.052 1192.73 OFFCURVE",
"731.434 1234.64 CURVE",
"758.324 1377.05 OFFCURVE",
"777.227 1546.42 OFFCURVE",
"797.263 1750.91 CURVE",
"798 1753.87 OFFCURVE",
"798 1756.36 OFFCURVE",
"798 1762 CURVE",
"798 1807.55 OFFCURVE",
"764.506 1831 OFFCURVE",
"724 1831 CURVE",
"662.052 1831 OFFCURVE",
"601 1792.01 OFFCURVE",
"601 1728 CURVE",
"601 1559.65 OFFCURVE",
"609 1405.65 OFFCURVE",
"609 1233 CURVE",
"609 1188.79 OFFCURVE",
"630.108 1160 OFFCURVE"
);
},
{
closed = 1;
nodes = (
"310 1160 CURVE",
"335.35 1160 OFFCURVE",
"361.668 1193.66 OFFCURVE",
"367.196 1233.12 CURVE",
"385.138 1375.66 OFFCURVE",
"403 1578.1 OFFCURVE",
"403 1747 CURVE",
"403 1803.82 OFFCURVE",
"369.386 1831 OFFCURVE",
"320 1831 CURVE",
"268.946 1831 OFFCURVE",
"217 1793.07 OFFCURVE",
"217 1728 CURVE",
"217 1560.56 OFFCURVE",
"238.835 1385.88 OFFCURVE",
"254.807 1236.1 CURVE",
"260.988 1186.65 OFFCURVE",
"276.232 1160 OFFCURVE"
);
}
);
width = 1184;
}
);
unicode = 0022;
},
{
glyphname = numbersign;
lastChange = "2013-12-29 00:27:25 -0800";
layers = (
{
layerId = "5ACEE878-7952-4CAC-A6A7-BEDE971843B4";
name = Regular;
paths = (
{
closed = 1;
nodes = (
"676 669 CURVE",
"719 768 OFFCURVE",
"759 863 OFFCURVE",
"800 960 CURVE",
"1083 960 LINE",
"1014 765 OFFCURVE",
"996.999 717 OFFCURVE",
"979.999 670 CURVE",
"929 669 OFFCURVE",
"878 669 OFFCURVE"
);
},
{
closed = 1;
nodes = (
"257 -35 CURVE SMOOTH",
"329 -35 OFFCURVE",
"361 1 OFFCURVE",
"387 51 CURVE SMOOTH",
"453 182 OFFCURVE",
"515 313 OFFCURVE",
"576 445 CURVE",
"685 445 OFFCURVE",
"795 446 OFFCURVE",
"900 447 CURVE",
"782 111 OFFCURVE",
"779 109 OFFCURVE",
"779 60 CURVE SMOOTH",
"779 -8 OFFCURVE",
"819 -31 OFFCURVE",
"885 -31 CURVE SMOOTH",
"954 -31 OFFCURVE",
"985.999 3 OFFCURVE",
"1007 55 CURVE SMOOTH",
"1061 186 OFFCURVE",
"1112 316 OFFCURVE",
"1161 448 CURVE",
"1164 448 LINE SMOOTH",
"1298 448 OFFCURVE",
"1410 481 OFFCURVE",
"1410 609 CURVE SMOOTH",
"1410 655 OFFCURVE",
"1373 669 OFFCURVE",
"1328 673 CURVE",
"1241 673 LINE",
"1275 769 OFFCURVE",
"1308 864 OFFCURVE",
"1339 960 CURVE",
"1515 960 OFFCURVE",
"1621 989 OFFCURVE",
"1621 1123 CURVE SMOOTH",
"1621 1170 OFFCURVE",
"1588 1185 OFFCURVE",
"1539 1185 CURVE SMOOTH",
"1413 1185 LINE",
"1444 1325 OFFCURVE",
"1533 1467 OFFCURVE",
"1533 1550 CURVE SMOOTH",
"1533 1596 OFFCURVE",
"1521 1635 OFFCURVE",
"1468 1635 CURVE SMOOTH",
"1250 1635 OFFCURVE",
"1222 1352 OFFCURVE",
"1163 1185 CURVE",
"1074 1185 OFFCURVE",
"981.999 1184 OFFCURVE",
"894 1184 CURVE",
"939 1291 OFFCURVE",
"1044 1513 OFFCURVE",
"1044 1546 CURVE SMOOTH",
"1044 1594 OFFCURVE",
"1036 1631 OFFCURVE",
"986.999 1631 CURVE SMOOTH",
"885 1631 OFFCURVE",
"812 1562 OFFCURVE",
"782 1490 CURVE SMOOTH",
"644 1184 LINE",
"475 1184 OFFCURVE",
"349 1182 OFFCURVE",
"349 1068 CURVE SMOOTH",
"349 982 OFFCURVE",
"404 960 OFFCURVE",
"545 960 CURVE",
"416 672 LINE",
"268 672 OFFCURVE",
"166 662 OFFCURVE",
"166 556 CURVE SMOOTH",
"166 482 OFFCURVE",
"259 450 OFFCURVE",
"332 450 CURVE SMOOTH",
"332 450 OFFCURVE",
"211 234 OFFCURVE",
"173 93 CURVE SMOOTH",
"143 -16 OFFCURVE",
"198 -35 OFFCURVE"
);
}
);
width = 1248;
},
{
layerId = "DE4BB00D-BABA-4D36-9D9A-44FD0E91C3DF";
name = Light;
paths = (
{
closed = 1;
nodes = (
"626 639 CURVE",
"678 759 OFFCURVE",
"726 872 OFFCURVE",
"775 989 CURVE",
"1119 989 LINE",
"1029 736 OFFCURVE",
"1016 698 OFFCURVE",
"996 641 CURVE",
"931 639 OFFCURVE",
"891 639 OFFCURVE"
);
},
{
closed = 1;
nodes = (
"235 -33 CURVE",
"295 -33 OFFCURVE",
"322 -5 OFFCURVE",
"345 41 CURVE",
"416 181 OFFCURVE",
"481 319 OFFCURVE",
"546 460 CURVE",
"675 460 OFFCURVE",
"808 462 OFFCURVE",
"931 463 CURVE",
"794 70 OFFCURVE",
"797 81 OFFCURVE",
"797 39 CURVE",
"797 -11 OFFCURVE",
"823 -29 OFFCURVE",
"880 -29 CURVE",
"937 -29 OFFCURVE",
"963 -3 OFFCURVE",
"982 43 CURVE",
"1039 184 OFFCURVE",
"1093 322 OFFCURVE",
"1145 463 CURVE",
"1167 463 LINE",
"1298 463 OFFCURVE",
"1393 493 OFFCURVE",
"1393 603 CURVE",
"1393 629 OFFCURVE",
"1373 640 OFFCURVE",
"1334 643 CURVE",
"1209 643 LINE",
"1251 759 OFFCURVE",
"1290 873 OFFCURVE",
"1327 989 CURVE",
"1514 987 OFFCURVE",
"1609 1011 OFFCURVE",
"1609 1131 CURVE",
"1609 1160 OFFCURVE",
"1594 1169 OFFCURVE",
"1552 1169 CURVE",
"1391 1169 LINE",
"1416 1328 OFFCURVE",
"1520 1486 OFFCURVE",
"1520 1570 CURVE",
"1520 1611 OFFCURVE",
"1511 1631 OFFCURVE",
"1478 1631 CURVE",
"1271 1631 OFFCURVE",
"1250 1342 OFFCURVE",
"1183 1169 CURVE",
"1074 1169 OFFCURVE",
"958 1167 OFFCURVE",
"851 1168 CURVE",
"882 1249 OFFCURVE",
"1017 1536 OFFCURVE",
"1017 1566 CURVE",
"1017 1610 OFFCURVE",
"1012 1627 OFFCURVE",
"956 1627 CURVE",
"892 1627 OFFCURVE",
"825 1565 OFFCURVE",
"798 1497 CURVE",
"649 1168 LINE",
"465 1168 OFFCURVE",
"355 1169 OFFCURVE",
"355 1074 CURVE",
"355 1001 OFFCURVE",
"402 986 OFFCURVE",
"570 989 CURVE",
"415 642 LINE",
"256 643 OFFCURVE",
"167 635 OFFCURVE",
"167 549 CURVE",
"167 487 OFFCURVE",
"282 459 OFFCURVE",
"355 467 CURVE",
"324 401 OFFCURVE",
"213 214 OFFCURVE",
"173 66 CURVE",
"149 -21 OFFCURVE",
"180 -33 OFFCURVE"
);
}
);
width = 1248;
}
);
unicode = 0023;
},
{
glyphname = dollar;
lastChange = "2013-12-29 00:27:25 -0800";
layers = (
{
layerId = "5ACEE878-7952-4CAC-A6A7-BEDE971843B4";
name = Regular;
paths = (
{
closed = 1;
nodes = (
"965 1081 CURVE",
"884 1132 OFFCURVE",
"767 1198 OFFCURVE",
"767 1324 CURVE SMOOTH",
"767 1464 OFFCURVE",
"911 1517 OFFCURVE",
"1046 1531 CURVE",
"1021 1386 OFFCURVE",
"991.999 1231 OFFCURVE"
);
},
{
closed = 1;
nodes = (
"1033 224 CURVE",
"1124 741 LINE",
"1199 691 OFFCURVE",
"1297 627 OFFCURVE",
"1297 507 CURVE SMOOTH",
"1297 341 OFFCURVE",
"1169 258 OFFCURVE"
);
},
{
closed = 1;
nodes = (
"862 -225 CURVE SMOOTH",
"919 -225 OFFCURVE",
"948 -204 OFFCURVE",
"962 -158 CURVE",
"991.999 4 LINE",
"1292 31 OFFCURVE",
"1537 182 OFFCURVE",
"1537 507 CURVE SMOOTH",
"1537 754 OFFCURVE",
"1324 873 OFFCURVE",
"1163 966 CURVE",
"1259 1523 LINE",
"1349 1506 OFFCURVE",
"1457 1463 OFFCURVE",
"1457 1374 CURVE SMOOTH",
"1457 1293 OFFCURVE",
"1505 1227 OFFCURVE",
"1584 1227 CURVE SMOOTH",
"1661 1227 OFFCURVE",
"1697 1294 OFFCURVE",
"1697 1374 CURVE SMOOTH",
"1697 1590 OFFCURVE",
"1479 1691 OFFCURVE",
"1293 1728 CURVE",
"1308 1820 LINE SMOOTH",
"1312 1847 OFFCURVE",
"1317 1877 OFFCURVE",
"1317 1906 CURVE SMOOTH",
"1317 1945 OFFCURVE",
"1291 1984 OFFCURVE",
"1250 1984 CURVE SMOOTH",
"1172 1984 OFFCURVE",
"1116 1938 OFFCURVE",
"1106 1872 CURVE SMOOTH",
"1084 1743 LINE",
"792 1731 OFFCURVE",
"496 1587 OFFCURVE",
"496 1294 CURVE SMOOTH",
"496 1049 OFFCURVE",
"756 941 OFFCURVE",
"923 853 CURVE",
"807 210 LINE",
"651 222 OFFCURVE",
"496 270 OFFCURVE",
"496 420 CURVE SMOOTH",
"496 529 OFFCURVE",
"543 598 OFFCURVE",
"647 598 CURVE SMOOTH",
"699 598 OFFCURVE",
"733 632 OFFCURVE",
"733 680 CURVE SMOOTH",
"733 743 OFFCURVE",
"682 778 OFFCURVE",
"617 778 CURVE SMOOTH",
"394 778 OFFCURVE",
"257 635 OFFCURVE",
"257 417 CURVE SMOOTH",
"257 133 OFFCURVE",
"505 26 OFFCURVE",
"770 4 CURVE",
"762 -37 OFFCURVE",
"754 -70 OFFCURVE",
"754 -114 CURVE SMOOTH",
"754 -167 OFFCURVE",
"776 -224 OFFCURVE",
"827 -224 CURVE SMOOTH",
"839 -224 OFFCURVE",
"850 -225 OFFCURVE"
);
}
);
width = 1735;
},
{
layerId = "DE4BB00D-BABA-4D36-9D9A-44FD0E91C3DF";
name = Light;
paths = (
{
closed = 1;
nodes = (
"982.812 1039.76 CURVE",
"910.562 1091.16 OFFCURVE",
"742 1187 OFFCURVE",
"742 1347 CURVE",
"742 1517 OFFCURVE",
"933 1574 OFFCURVE",
"1076 1582 CURVE",
"1048 1416 OFFCURVE",
"1014 1235 OFFCURVE"
);
},
{
closed = 1;
nodes = (
"995 168 CURVE",
"1106.11 783.584 LINE",
"1169 709 OFFCURVE",
"1315 638 OFFCURVE",
"1315 484 CURVE",
"1315 288 OFFCURVE",
"1146 196 OFFCURVE"
);
},
{
closed = 1;
nodes = (
"820 -222 CURVE",
"888 -223 OFFCURVE",
"919 -213 OFFCURVE",
"931 -175 CURVE",
"964 4 LINE",
"1265 26 OFFCURVE",
"1505 168 OFFCURVE",
"1505 484 CURVE",
"1505 723 OFFCURVE",
"1298.84 858.188 OFFCURVE",
"1135.41 953.087 CURVE",
"1239 1575 LINE",
"1331 1562 OFFCURVE",
"1482 1513 OFFCURVE",
"1482 1397 CURVE",
"1482 1328 OFFCURVE",
"1522 1275 OFFCURVE",
"1584 1275 CURVE",
"1642 1275 OFFCURVE",
"1672 1328 OFFCURVE",
"1672 1397 CURVE",
"1672 1604 OFFCURVE",
"1451 1699 OFFCURVE",
"1264 1731 CURVE",
"1283 1847 LINE",
"1294 1920 OFFCURVE",
"1302 1982 OFFCURVE",
"1250 1982 CURVE",
"1185 1982 OFFCURVE",
"1139 1944 OFFCURVE",
"1131 1891 CURVE",
"1105 1742 LINE",
"814 1736 OFFCURVE",
"521 1599 OFFCURVE",
"521 1317 CURVE",
"521 1082 OFFCURVE",
"782.932 957.127 OFFCURVE",
"950.838 866.492 CURVE",
"821 160 LINE",
"656 169 OFFCURVE",
"464 220 OFFCURVE",
"464 397 CURVE",
"464 517 OFFCURVE",
"519 600 OFFCURVE",
"640 600 CURVE",
"678 600 OFFCURVE",
"701 623 OFFCURVE",
"701 657 CURVE",
"701 703 OFFCURVE",
"663 730 OFFCURVE",
"610 730 CURVE",
"402 730 OFFCURVE",
"275 598 OFFCURVE",
"275 394 CURVE",
"275 119 OFFCURVE",
"523 20 OFFCURVE",
"793 4 CURVE",
"775 -81 OFFCURVE",
"750 -222 OFFCURVE"
);
}
);
width = 1735;
}
);
unicode = 0024;
},
{
glyphname = percent;
lastChange = "2013-12-29 00:27:25 -0800";
layers = (
{
layerId = "5ACEE878-7952-4CAC-A6A7-BEDE971843B4";
name = Regular;
paths = (
{
closed = 1;
nodes = (
"1687 256 CURVE SMOOTH",
"1590 256 OFFCURVE",
"1568 393 OFFCURVE",
"1568 494 CURVE SMOOTH",
"1568 671 OFFCURVE",
"1613 928 OFFCURVE",
"1782 928 CURVE SMOOTH",
"1886 928 OFFCURVE",
"1900 765 OFFCURVE",
"1900 656 CURVE SMOOTH",
"1900 508 OFFCURVE",
"1832 256 OFFCURVE"
);
},
{
closed = 1;
nodes = (
"1669 64 CURVE SMOOTH",
"1717 64 OFFCURVE",
"1762 73 OFFCURVE",
"1804 90 CURVE SMOOTH",
"2001 171 OFFCURVE",
"2146 398 OFFCURVE",
"2146 674 CURVE SMOOTH",
"2146 917 OFFCURVE",
"2049 1120 OFFCURVE",
"1808 1120 CURVE SMOOTH",
"1475 1120 OFFCURVE",
"1312 816 OFFCURVE",
"1312 482 CURVE SMOOTH",
"1312 247 OFFCURVE",
"1433 64 OFFCURVE"
);
},
{
closed = 1;
nodes = (
"827 112 CURVE SMOOTH",
"1599 1557 LINE SMOOTH",
"1618 1591 OFFCURVE",
"1634 1619 OFFCURVE",
"1644 1670 CURVE SMOOTH",
"1659 1747 OFFCURVE",
"1553 1822 OFFCURVE",
"1463 1672 CURVE SMOOTH",
"682 366 LINE SMOOTH",
"636 289 OFFCURVE",
"583 204 OFFCURVE",
"609 127 CURVE SMOOTH",
"642 21 OFFCURVE",
"773 13 OFFCURVE"
);
},
{
closed = 1;
nodes = (
"473 864 CURVE SMOOTH",
"370 864 OFFCURVE",
"350 1031 OFFCURVE",
"350 1141 CURVE SMOOTH",
"350 1310 OFFCURVE",
"405 1536 OFFCURVE",
"568 1536 CURVE SMOOTH",
"677 1536 OFFCURVE",
"706 1425 OFFCURVE",
"706 1314 CURVE SMOOTH",
"706 1151 OFFCURVE",
"631 864 OFFCURVE"
);
},
{
closed = 1;
nodes = (
"455 672 CURVE SMOOTH",
"505 672 OFFCURVE",
"552 681 OFFCURVE",
"596 699 CURVE SMOOTH",
"802 784 OFFCURVE",
"950 1023 OFFCURVE",
"950 1312 CURVE SMOOTH",
"950 1554 OFFCURVE",
"837 1728 OFFCURVE",
"594 1728 CURVE SMOOTH",
"268 1728 OFFCURVE",
"93.9999 1446 OFFCURVE",
"93.9999 1120 CURVE SMOOTH",
"93.9999 877 OFFCURVE",
"213 672 OFFCURVE"
);
}
);
width = 2208;
},
{
layerId = "DE4BB00D-BABA-4D36-9D9A-44FD0E91C3DF";
name = Light;
paths = (
{
closed = 1;
nodes = (
"1687 129 CURVE",
"1569 129 OFFCURVE",
"1543 289 OFFCURVE",
"1543 392 CURVE",
"1543 571 OFFCURVE",
"1592 851 OFFCURVE",
"1782 851 CURVE",
"1909 851 OFFCURVE",
"1925 664 OFFCURVE",
"1925 554 CURVE",
"1925 400 OFFCURVE",
"1853 129 OFFCURVE"
);
},
{
closed = 1;
nodes = (
"1669 -13 CURVE",
"1891 -13 OFFCURVE",
"2121 220 OFFCURVE",
"2121 572 CURVE",
"2121 807 OFFCURVE",
"2031 993 OFFCURVE",
"1808 993 CURVE",
"1494 993 OFFCURVE",
"1337 703 OFFCURVE",
"1337 380 CURVE",
"1337 156 OFFCURVE",
"1450 -13 OFFCURVE"
);
},
{
closed = 1;
nodes = (
"761 45 CURVE",
"1285 878 OFFCURVE",
"1638 1612 OFFCURVE",
"1638 1689 CURVE",
"1638 1750 OFFCURVE",
"1575 1798 OFFCURVE",
"1503 1678 CURVE",
"659 274 LINE",
"613 197 OFFCURVE",
"566 122 OFFCURVE",
"588 55 CURVE",
"614 -29 OFFCURVE",
"716 -34 OFFCURVE"
);
},
{
closed = 1;
nodes = (
"473 874 CURVE",
"348 874 OFFCURVE",
"325 1065 OFFCURVE",
"325 1176 CURVE",
"325 1348 OFFCURVE",
"385 1596 OFFCURVE",
"568 1596 CURVE",
"696 1596 OFFCURVE",
"731 1463 OFFCURVE",
"731 1349 CURVE",
"731 1181 OFFCURVE",
"652 874 OFFCURVE"
);
},
{
closed = 1;
nodes = (
"455 732 CURVE",
"503 732 OFFCURVE",
"545 740 OFFCURVE",
"586 757 CURVE",
"783 838 OFFCURVE",
"925 1067 OFFCURVE",
"925 1347 CURVE",
"925 1578 OFFCURVE",
"819 1738 OFFCURVE",
"594 1738 CURVE",
"286 1738 OFFCURVE",
"119 1470 OFFCURVE",
"119 1155 CURVE",
"119 923 OFFCURVE",
"231 732 OFFCURVE"
);
}
);
width = 2208;
}
);
unicode = 0025;
},
{
glyphname = ampersand;
lastChange = "2013-12-29 00:27:25 -0800";
layers = (
{
layerId = "5ACEE878-7952-4CAC-A6A7-BEDE971843B4";
name = Regular;
paths = (
{
closed = 1;
nodes = (
"711 992.999 CURVE",
"659 1080 OFFCURVE",
"630 1176 OFFCURVE",
"630 1256 CURVE SMOOTH",
"630 1361 OFFCURVE",
"680 1440 OFFCURVE",
"794 1440 CURVE SMOOTH",
"878 1440 OFFCURVE",
"928 1414 OFFCURVE",
"928 1332 CURVE SMOOTH",
"928 1172 OFFCURVE",
"801 1075 OFFCURVE"
);
},
{
closed = 1;
nodes = (
"566 202 CURVE SMOOTH",
"433 202 OFFCURVE",
"322 252 OFFCURVE",
"322 381 CURVE SMOOTH",
"322 544 OFFCURVE",
"440 660 OFFCURVE",
"535 734 CURVE",
"631 547 OFFCURVE",
"718 405 OFFCURVE",
"839 252 CURVE",
"768 226 OFFCURVE",
"675 202 OFFCURVE"
);
},
{
closed = 1;
nodes = (
"1370 -238 CURVE SMOOTH",
"1510 -238 OFFCURVE",
"1600 -169 OFFCURVE",
"1600 -132 CURVE SMOOTH",
"1600 -72 OFFCURVE",
"1433 -31 OFFCURVE",
"1364 24 CURVE SMOOTH",
"1321 58 OFFCURVE",
"1263 111 OFFCURVE",
"1174 196 CURVE",
"1339 287 OFFCURVE",
"1481 397 OFFCURVE",
"1481 563 CURVE SMOOTH",
"1481 625 OFFCURVE",
"1384 667 OFFCURVE",
"1321 667 CURVE SMOOTH",
"1291 667 OFFCURVE",
"1269 657 OFFCURVE",
"1269 636 CURVE SMOOTH",
"1269 495 OFFCURVE",
"1196 426 OFFCURVE",
"1058 365 CURVE",
"966 495 OFFCURVE",
"838 698 OFFCURVE",
"758 864 CURVE",
"921 963 OFFCURVE",
"1115 1112 OFFCURVE",
"1115 1355 CURVE SMOOTH",
"1115 1541 OFFCURVE",
"969.999 1652 OFFCURVE",
"782 1652 CURVE SMOOTH",
"550 1652 OFFCURVE",
"353 1473 OFFCURVE",
"353 1242 CURVE SMOOTH",
"353 1095 OFFCURVE",
"417 957 OFFCURVE",
"471 857 CURVE",
"295 762 OFFCURVE",
"64 602 OFFCURVE",
"64 345 CURVE SMOOTH",
"64 96.9999 OFFCURVE",
"301 0 OFFCURVE",
"558 0 CURVE SMOOTH",
"729 0 OFFCURVE",
"863 34 OFFCURVE",
"958 78 CURVE",
"958 66 OFFCURVE",
"1025 -24 OFFCURVE",
"1180 -179 CURVE SMOOTH",
"1233 -232 OFFCURVE",
"1308 -238 OFFCURVE"
);
}
);
width = 1523;
},
{
layerId = "DE4BB00D-BABA-4D36-9D9A-44FD0E91C3DF";
name = Light;
paths = (
{
closed = 1;
nodes = (
"684 1001 CURVE",
"620 1097 OFFCURVE",
"605 1194 OFFCURVE",
"605 1286 CURVE",
"605 1403 OFFCURVE",
"662 1495 OFFCURVE",
"794 1495 CURVE",
"888 1495 OFFCURVE",
"941 1463 OFFCURVE",
"941 1362 CURVE",
"941 1175 OFFCURVE",
"771 1049 OFFCURVE"
);
},
{
closed = 1;
nodes = (
"566 152 CURVE",
"426 152 OFFCURVE",
"297 256 OFFCURVE",
"297 403 CURVE",
"297 591 OFFCURVE",
"446.229 699.893 OFFCURVE",
"543.7 771.97 CURVE",
"650 536 OFFCURVE",
"743 386 OFFCURVE",
"880 216 CURVE",
"806 186 OFFCURVE",
"696 152 OFFCURVE"
);
},
{
closed = 1;
nodes = (
"1370 -238 CURVE",
"1496 -238 OFFCURVE",
"1575 -176 OFFCURVE",
"1575 -157 CURVE",
"1575 -121 OFFCURVE",
"1419 -76 OFFCURVE",
"1348 -21 CURVE",
"1301 17 OFFCURVE",
"1255 60 OFFCURVE",
"1152 159 CURVE",
"1327 251 OFFCURVE",
"1456 377 OFFCURVE",
"1456 538 CURVE",
"1456 588 OFFCURVE",
"1321 664 OFFCURVE",
"1294 611 CURVE",
"1294 453 OFFCURVE",
"1203 373 OFFCURVE",
"1049 309 CURVE",
"953 443 OFFCURVE",
"808.615 695.914 OFFCURVE",
"725.697 873.774 CURVE",
"889.844 971.102 OFFCURVE",
"1090 1147 OFFCURVE",
"1090 1385 CURVE",
"1090 1555 OFFCURVE",
"958 1657 OFFCURVE",
"782 1657 CURVE",
"564 1657 OFFCURVE",
"378 1488 OFFCURVE",
"378 1272 CURVE",
"378 1120 OFFCURVE",
"420 1013 OFFCURVE",
"476 912 CURVE",
"300 820 OFFCURVE",
"89 619 OFFCURVE",
"89 367 CURVE",
"89 138 OFFCURVE",
"308 0 OFFCURVE",
"558 0 CURVE",
"750 0 OFFCURVE",
"896 44 OFFCURVE",
"964 74 CURVE",
"1001 21 OFFCURVE",
"1094 -83 OFFCURVE",
"1198 -186 CURVE",
"1244 -233 OFFCURVE",
"1309 -238 OFFCURVE"
);
}
);
width = 1523;
}
);
unicode = 0026;
},
{
glyphname = parenleft;
lastChange = "2013-12-29 00:27:25 -0800";
layers = (
{
layerId = "5ACEE878-7952-4CAC-A6A7-BEDE971843B4";
name = Regular;
paths = (
{
closed = 1;
nodes = (
"1040 -378 CURVE SMOOTH",
"1112 -378 OFFCURVE",
"1262 -371 OFFCURVE",
"1262 -282 CURVE SMOOTH",
"1262 -189 OFFCURVE",
"1147 -210 OFFCURVE",
"1034 -191 CURVE SMOOTH",
"741 -141 OFFCURVE",
"630 103 OFFCURVE",
"630 430 CURVE SMOOTH",
"630 866 OFFCURVE",
"846 1375 OFFCURVE",
"1258 1674 CURVE SMOOTH",
"1354 1744 OFFCURVE",
"1406 1804 OFFCURVE",
"1406 1854 CURVE SMOOTH",
"1406 1892 OFFCURVE",
"1380 1917 OFFCURVE",
"1335 1917 CURVE SMOOTH",
"1313 1917 OFFCURVE",
"1288 1911 OFFCURVE",
"1258 1898 CURVE SMOOTH",
"697 1643 OFFCURVE",
"374 1001 OFFCURVE",
"374 410 CURVE SMOOTH",
"374 -52 OFFCURVE",
"610 -378 OFFCURVE"
);
}
);
width = 1377;
},
{
layerId = "DE4BB00D-BABA-4D36-9D9A-44FD0E91C3DF";
name = Light;
paths = (
{
closed = 1;
nodes = (
"1040 -353 CURVE",
"1109.36 -353 OFFCURVE",
"1237 -345 OFFCURVE",
"1237 -282 CURVE",
"1237 -217 OFFCURVE",
"1149.15 -236 OFFCURVE",
"1029.79 -216 CURVE",
"723.731 -163 OFFCURVE",
"605 97.5807 OFFCURVE",
"605 430 CURVE",
"605 871.085 OFFCURVE",
"825.698 1391.16 OFFCURVE",
"1243.27 1694.2 CURVE",
"1335.33 1761.33 OFFCURVE",
"1381 1815.42 OFFCURVE",
"1381 1854 CURVE",
"1381 1877.38 OFFCURVE",
"1365.94 1892 OFFCURVE",
"1335 1892 CURVE",
"1315.96 1892 OFFCURVE",
"1295.95 1887.2 OFFCURVE",
"1268.35 1875.24 CURVE",
"717.197 1624.72 OFFCURVE",
"399 993.059 OFFCURVE",
"399 410 CURVE",
"399 -40 OFFCURVE",
"626.765 -353 OFFCURVE"
);
}
);
width = 1377;
}
);
unicode = 0028;
},
{
glyphname = parenright;
lastChange = "2013-12-29 00:27:25 -0800";
layers = (
{
layerId = "5ACEE878-7952-4CAC-A6A7-BEDE971843B4";
name = Regular;
paths = (
{
closed = 1;
nodes = (
"345 -378 CURVE SMOOTH",
"884 -378 OFFCURVE",
"1218 130 OFFCURVE",
"1218 769 CURVE SMOOTH",
"1218 1244 OFFCURVE",
"1017 1694 OFFCURVE",
"612 1898 CURVE SMOOTH",
"585 1911 OFFCURVE",
"560 1917 OFFCURVE",
"538 1917 CURVE SMOOTH",
"489 1917 OFFCURVE",
"453 1886 OFFCURVE",
"453 1837 CURVE SMOOTH",
"453 1791 OFFCURVE",
"492 1736 OFFCURVE",
"564 1674 CURVE SMOOTH",
"834 1442 OFFCURVE",
"960 1085 OFFCURVE",
"960 733 CURVE SMOOTH",
"960 262 OFFCURVE",
"771 -129 OFFCURVE",
"392 -191 CURVE SMOOTH",
"278 -210 OFFCURVE",
"142 -187 OFFCURVE",
"142 -297 CURVE SMOOTH",
"142 -372 OFFCURVE",
"277 -378 OFFCURVE"
);
}
);
width = 1377;
},
{
layerId = "DE4BB00D-BABA-4D36-9D9A-44FD0E91C3DF";
name = Light;
paths = (
{
closed = 1;
nodes = (
"345 -353 CURVE",
"866.518 -353 OFFCURVE",
"1193 141.482 OFFCURVE",
"1193 769 CURVE",
"1193 1236.66 OFFCURVE",
"996.01 1676.58 OFFCURVE",
"600.754 1875.67 CURVE",
"576.565 1887.31 OFFCURVE",
"557.042 1892 OFFCURVE",
"538 1892 CURVE",
"502.271 1892 OFFCURVE",
"478 1870.55 OFFCURVE",
"478 1837 CURVE",
"478 1801.06 OFFCURVE",
"512.175 1751.62 OFFCURVE",
"580.313 1692.94 CURVE",
"855.354 1456.61 OFFCURVE",
"985 1089.28 OFFCURVE",
"985 733 CURVE",
"985 254.275 OFFCURVE",
"789.829 -151 OFFCURVE",
"396.036 -216 CURVE",
"275.997 -236 OFFCURVE",
"167 -215 OFFCURVE",
"167 -297 CURVE",
"167 -346 OFFCURVE",
"279.613 -353 OFFCURVE"
);
}
);
width = 1377;
}
);
unicode = 0029;
},
{
glyphname = asterisk;
lastChange = "2013-12-29 00:27:25 -0800";
layers = (
{
layerId = "5ACEE878-7952-4CAC-A6A7-BEDE971843B4";
name = Regular;
paths = (
{
closed = 1;
nodes = (
"424 864 CURVE SMOOTH",
"485 864 OFFCURVE",
"548 897 OFFCURVE",
"548 957 CURVE SMOOTH",
"548 1052 OFFCURVE",
"550 1154 OFFCURVE",
"553 1248 CURVE",
"618 1180 OFFCURVE",
"695 1110 OFFCURVE",
"765 1045 CURVE",
"780 1030 OFFCURVE",
"800 1022 OFFCURVE",
"823 1022 CURVE SMOOTH",
"885 1022 OFFCURVE",
"951 1072 OFFCURVE",
"951 1133 CURVE SMOOTH",
"951 1170 OFFCURVE",
"927 1193 OFFCURVE",
"897 1208 CURVE SMOOTH",
"816 1248 OFFCURVE",
"725 1289 OFFCURVE",
"642 1326 CURVE",
"738 1339 OFFCURVE",
"992.999 1349 OFFCURVE",
"992.999 1452 CURVE SMOOTH",
"992.999 1515 OFFCURVE",
"936 1576 OFFCURVE",
"873 1576 CURVE SMOOTH",
"856 1576 OFFCURVE",
"846 1572 OFFCURVE",
"835 1566 CURVE SMOOTH",
"755 1521 OFFCURVE",
"667 1472 OFFCURVE",
"586 1429 CURVE",
"622 1516 OFFCURVE",
"658 1616 OFFCURVE",
"689 1708 CURVE SMOOTH",
"693 1720 OFFCURVE",
"694 1732 OFFCURVE",
"694 1745 CURVE SMOOTH",
"694 1797 OFFCURVE",
"651 1824 OFFCURVE",
"601 1824 CURVE SMOOTH",
"539 1824 OFFCURVE",
"478 1793 OFFCURVE",
"478 1731 CURVE SMOOTH",
"478 1635 OFFCURVE",
"473 1532 OFFCURVE",
"473 1437 CURVE",
"405 1502 OFFCURVE",
"329 1574 OFFCURVE",
"260 1640 CURVE SMOOTH",
"245 1655 OFFCURVE",
"226 1663 OFFCURVE",
"203 1663 CURVE SMOOTH",
"141 1663 OFFCURVE",
"74 1613 OFFCURVE",
"74 1551 CURVE SMOOTH",
"74 1522 OFFCURVE",
"91 1496 OFFCURVE",
"128 1477 CURVE SMOOTH",
"208 1436 OFFCURVE",
"298 1397 OFFCURVE",
"381 1360 CURVE",
"286 1344 OFFCURVE",
"32 1340 OFFCURVE",
"32 1235 CURVE SMOOTH",
"32 1172 OFFCURVE",
"90 1110 OFFCURVE",
"153 1110 CURVE SMOOTH",
"167 1110 OFFCURVE",
"180 1113 OFFCURVE",
"191 1120 CURVE",
"272 1163 OFFCURVE",
"359 1210 OFFCURVE",
"438 1255 CURVE",
"402 1168 OFFCURVE",
"331 1050 OFFCURVE",
"331 943 CURVE SMOOTH",
"331 890 OFFCURVE",
"372 864 OFFCURVE"
);
}
);
width = 1024;
},
{
layerId = "DE4BB00D-BABA-4D36-9D9A-44FD0E91C3DF";
name = Light;
paths = (
{
closed = 1;
nodes = (
"424 884 CURVE",
"478.01 884 OFFCURVE",
"528 911.181 OFFCURVE",
"528.003 957.344 CURVE",
"542 1278 LINE",
"779.142 1059.14 LINE",
"820.532 1017.75 OFFCURVE",
"931 1055.34 OFFCURVE",
"931 1133 CURVE",
"931 1198 OFFCURVE",
"775 1250 OFFCURVE",
"610 1336 CURVE",
"714 1349 OFFCURVE",
"972.999 1374.5 OFFCURVE",
"972.999 1452 CURVE",
"973 1529.19 OFFCURVE",
"891.49 1574.24 OFFCURVE",
"844.805 1548.57 CURVE",
"747.989 1494.11 OFFCURVE",
"657 1452 OFFCURVE",
"563 1404 CURVE",
"606 1501 OFFCURVE",
"632.77 1603.76 OFFCURVE",
"670.026 1714.32 CURVE",
"685.987 1762.21 OFFCURVE",
"662.215 1804 OFFCURVE",
"601 1804 CURVE",
"545.858 1804 OFFCURVE",
"498 1778.65 OFFCURVE",
"498 1731 CURVE",
"498 1618.63 OFFCURVE",
"483 1514 OFFCURVE",
"485 1408 CURVE",
"391 1490 OFFCURVE",
"258.074 1643 OFFCURVE",
"203 1643 CURVE",
"149.71 1643 OFFCURVE",
"94 1600.9 OFFCURVE",
"94 1551 CURVE",
"94 1480.18 OFFCURVE",
"313 1411 OFFCURVE",
"423 1353 CURVE",
"405 1346 OFFCURVE",
"52 1326 OFFCURVE",
"52 1235 CURVE",
"52 1155.85 OFFCURVE",
"141.139 1110.72 OFFCURVE",
"180.821 1137.24 CURVE",
"278.081 1188.86 OFFCURVE",
"373 1234 OFFCURVE",
"463 1287 CURVE",
"440 1195 OFFCURVE",
"351 1065.67 OFFCURVE",
"351 943 CURVE",
"351 903.09 OFFCURVE",
"379.89 884 OFFCURVE"
);
}
);
width = 1024;
}
);
unicode = 002A;
},
{
glyphname = plus;
lastChange = "2013-12-29 00:27:25 -0800";
layers = (
{
layerId = "5ACEE878-7952-4CAC-A6A7-BEDE971843B4";
name = Regular;
paths = (
{
closed = 1;
nodes = (
"768 60 CURVE SMOOTH",
"834 60 OFFCURVE",
"865 124 OFFCURVE",
"865 193 CURVE SMOOTH",
"865 416 LINE",
"1096 416 LINE SMOOTH",
"1162 416 OFFCURVE",
"1215 460 OFFCURVE",
"1215 525 CURVE SMOOTH",
"1215 577 OFFCURVE",
"1174 608 OFFCURVE",
"1115 608 CURVE SMOOTH",
"865 608 LINE",
"865 855 LINE SMOOTH",
"865 914 OFFCURVE",
"834 955 OFFCURVE",
"782 955 CURVE SMOOTH",
"717 955 OFFCURVE",
"673 902 OFFCURVE",
"673 836 CURVE SMOOTH",
"673 608 LINE",
"453 608 LINE SMOOTH",
"384 608 OFFCURVE",
"320 577 OFFCURVE",
"320 511 CURVE SMOOTH",
"320 446 OFFCURVE",
"381 416 OFFCURVE",
"449 416 CURVE SMOOTH",
"673 416 LINE",
"673 189 LINE SMOOTH",
"673 121 OFFCURVE",
"703 60 OFFCURVE"
);
}
);
width = 1503;
},
{
layerId = "DE4BB00D-BABA-4D36-9D9A-44FD0E91C3DF";
name = Light;
paths = (
{
closed = 1;
nodes = (
"768 80 CURVE",
"819.393 80 OFFCURVE",
"845 130.649 OFFCURVE",
"845 193 CURVE",
"845 436 LINE",
"1096 436 LINE",
"1152.71 436 OFFCURVE",
"1195 471.46 OFFCURVE",
"1195 525 CURVE",
"1195 564.958 OFFCURVE",
"1165.22 588 OFFCURVE",
"1115 588 CURVE",
"845 588 LINE",
"845 855 LINE",
"845 905.217 OFFCURVE",
"821.958 935 OFFCURVE",
"782 935 CURVE",
"728.46 935 OFFCURVE",
"693 892.714 OFFCURVE",
"693 836 CURVE",
"693 588 LINE",
"453 588 LINE",
"390.649 588 OFFCURVE",
"340 562.393 OFFCURVE",
"340 511 CURVE",
"340 460.525 OFFCURVE",
"387.713 436 OFFCURVE",
"449 436 CURVE",
"693 436 LINE",
"693 189 LINE",
"693 127.713 OFFCURVE",
"717.525 80 OFFCURVE"
);
}
);
width = 1503;
}
);
unicode = 002B;
},
{
glyphname = comma;
lastChange = "2013-12-29 00:27:25 -0800";
layers = (
{
layerId = "5ACEE878-7952-4CAC-A6A7-BEDE971843B4";
name = Regular;
paths = (
{
closed = 1;
nodes = (
"254 -223 CURVE SMOOTH",
"395 -183 OFFCURVE",
"602 -29 OFFCURVE",
"602 183 CURVE SMOOTH",
"602 260 OFFCURVE",
"569 333 OFFCURVE",
"474 321 CURVE SMOOTH",
"395 311 OFFCURVE",
"366 273 OFFCURVE",
"359 218 CURVE SMOOTH",
"339 53 OFFCURVE",
"275 -22 OFFCURVE",
"194 -159 CURVE SMOOTH",
"166 -206 OFFCURVE",
"209 -236 OFFCURVE"
);
}
);
width = 849;
},
{
layerId = "DE4BB00D-BABA-4D36-9D9A-44FD0E91C3DF";
name = Light;
paths = (
{
closed = 1;
nodes = (
"278 -178 CURVE",
"388 -147 OFFCURVE",
"549 45 OFFCURVE",
"549 207 CURVE",
"549 265 OFFCURVE",
"526 315 OFFCURVE",
"460 306 CURVE",
"403 299 OFFCURVE",
"383 273 OFFCURVE",
"378 234 CURVE",
"361 98 OFFCURVE",
"308 -35 OFFCURVE",
"243 -144 CURVE",
"228 -171 OFFCURVE",
"249 -186 OFFCURVE"
);
}
);
width = 849;
}
);
unicode = 002C;
},
{
glyphname = hyphen;
lastChange = "2013-12-29 00:27:25 -0800";
layers = (
{
layerId = "5ACEE878-7952-4CAC-A6A7-BEDE971843B4";
name = Regular;
paths = (
{
closed = 1;
nodes = (
"440 409 CURVE SMOOTH",
"562 467 OFFCURVE",
"646 519 OFFCURVE",
"935 573 CURVE SMOOTH",
"1001 585 OFFCURVE",
"1021 604 OFFCURVE",
"1021 648 CURVE SMOOTH",
"1021 710 OFFCURVE",
"974 724 OFFCURVE",
"928 724 CURVE",
"345 682 OFFCURVE",
"311 552 OFFCURVE",
"332 469 CURVE SMOOTH",
"344 422 OFFCURVE",
"389 385 OFFCURVE"
);
}
);
width = 1074;
},
{
layerId = "DE4BB00D-BABA-4D36-9D9A-44FD0E91C3DF";
name = Light;
paths = (
{
closed = 1;
nodes = (
"360 504 CURVE",
"360.173 504 OFFCURVE",
"360.573 504.093 OFFCURVE",
"361.228 504.223 CURVE",
"803.884 546.958 LINE",
"862.469 551.33 OFFCURVE",
"896 591.511 OFFCURVE",
"896 628 CURVE",
"896 661 OFFCURVE",
"872 689 OFFCURVE",
"798.77 689.02 CURVE",
"370.671 667.015 LINE",
"313.516 664.456 OFFCURVE",
"288 625.531 OFFCURVE",
"288 585 CURVE",
"288 543.51 OFFCURVE",
"314.249 504 OFFCURVE"
);
}
);
width = 974;
}
);
unicode = 002D;
},
{
glyphname = period;
lastChange = "2013-12-29 00:27:25 -0800";
layers = (
{
layerId = "5ACEE878-7952-4CAC-A6A7-BEDE971843B4";
name = Regular;
paths = (
{
closed = 1;
nodes = (
"510 0.999999 CURVE SMOOTH",
"631 0.999999 OFFCURVE",
"701 79 OFFCURVE",
"701 196 CURVE SMOOTH",
"701 304 OFFCURVE",
"639 360 OFFCURVE",
"529 360 CURVE SMOOTH",
"409 360 OFFCURVE",
"342 283 OFFCURVE",
"342 166 CURVE SMOOTH",
"342 57 OFFCURVE",
"402 0.999999 OFFCURVE"
);
}
);
width = 882;
},
{
layerId = "DE4BB00D-BABA-4D36-9D9A-44FD0E91C3DF";
name = Light;
paths = (
{
closed = 1;
nodes = (
"502 0 CURVE",
"593 0 OFFCURVE",
"643 55 OFFCURVE",
"643 144 CURVE",
"643 223 OFFCURVE",
"601 260 OFFCURVE",
"519 260 CURVE",
"430 260 OFFCURVE",
"382 206 OFFCURVE",
"382 118 CURVE",
"382 37 OFFCURVE",
"422 0 OFFCURVE"
);
}
);
width = 882;
}
);
unicode = 002E;
},
{
glyphname = slash;
lastChange = "2013-12-29 00:27:25 -0800";
layers = (
{
layerId = "5ACEE878-7952-4CAC-A6A7-BEDE971843B4";
name = Regular;
paths = (
{
closed = 1;
nodes = (
"341 -33 CURVE SMOOTH",
"432 -33 OFFCURVE",
"482 2 OFFCURVE",
"514 64 CURVE SMOOTH",
"766 563 OFFCURVE",
"966 1119 OFFCURVE",
"1196 1622 CURVE SMOOTH",
"1212 1659 OFFCURVE",
"1248 1714 OFFCURVE",
"1248 1760 CURVE SMOOTH",
"1248 1814 OFFCURVE",
"1240 1856 OFFCURVE",
"1184 1856 CURVE SMOOTH",
"1059 1856 OFFCURVE",
"967.999 1782 OFFCURVE",
"928 1696 CURVE SMOOTH",
"720 1239 OFFCURVE",
"507 755 OFFCURVE",
"304 295 CURVE SMOOTH",
"266 210 OFFCURVE",
"222 152 OFFCURVE",
"222 55 CURVE SMOOTH",
"222 -18 OFFCURVE",
"269 -33 OFFCURVE"
);
}
);
width = 1248;
},
{
layerId = "DE4BB00D-BABA-4D36-9D9A-44FD0E91C3DF";
name = Light;
paths = (
{
closed = 1;
nodes = (
"341 2 CURVE",
"418.932 2 OFFCURVE",
"455.809 27.5661 OFFCURVE",
"482.756 79.7743 CURVE",
"734.397 578.977 OFFCURVE",
"932.366 1130.89 OFFCURVE",
"1163.88 1635.89 CURVE",
"1181.1 1675.72 OFFCURVE",
"1231 1747.57 OFFCURVE",
"1231 1783 CURVE",
"1231 1812.72 OFFCURVE",
"1212.01 1821 OFFCURVE",
"1184 1821 CURVE",
"1073.46 1821 OFFCURVE",
"995.469 1758.07 OFFCURVE",
"959.856 1681.5 CURVE",
"751.947 1224.7 OFFCURVE",
"539.021 740.869 OFFCURVE",
"335.952 280.715 CURVE",
"296.313 192.047 OFFCURVE",
"257 140.226 OFFCURVE",
"257 55 CURVE",
"257 9.44385 OFFCURVE",
"276.644 2 OFFCURVE"
);
}
);
width = 1248;
}
);
unicode = 002F;
},
{
glyphname = zero;
lastChange = "2013-12-29 00:27:25 -0800";
layers = (
{
layerId = "5ACEE878-7952-4CAC-A6A7-BEDE971843B4";
name = Regular;
paths = (
{
closed = 1;
nodes = (
"515 189 CURVE SMOOTH",
"396 189 OFFCURVE",
"382 386 OFFCURVE",
"382 505 CURVE SMOOTH",
"382 724 OFFCURVE",
"458 1230 OFFCURVE",
"697 1230 CURVE SMOOTH",
"831 1230 OFFCURVE",
"852 1058 OFFCURVE",
"852 939 CURVE SMOOTH",
"852 726 OFFCURVE",
"755 189 OFFCURVE"
);
},
{
closed = 1;
nodes = (
"492 -19 CURVE SMOOTH",
"935 -19 OFFCURVE",
"1170 465 OFFCURVE",
"1170 902 CURVE SMOOTH",
"1170 1210 OFFCURVE",
"1028 1448 OFFCURVE",
"703 1448 CURVE SMOOTH",
"263 1448 OFFCURVE",
"44 985.999 OFFCURVE",
"44 552 CURVE SMOOTH",
"44 252 OFFCURVE",
"176 -19 OFFCURVE"
);
}
);
width = 1203;
},
{
layerId = "DE4BB00D-BABA-4D36-9D9A-44FD0E91C3DF";
name = Light;
paths = (
{
closed = 1;
nodes = (
"515 76 CURVE",
"340 76 OFFCURVE",
"322 383.972 OFFCURVE",
"322 505 CURVE",
"322 737.003 OFFCURVE",
"438 1354 OFFCURVE",
"736 1354 CURVE",
"926 1354 OFFCURVE",
"912 1059.7 OFFCURVE",
"912 939 CURVE",
"912 712.773 OFFCURVE",
"813 76 OFFCURVE"
);
},
{
closed = 1;
nodes = (
"492 -12 CURVE",
"889 -12 OFFCURVE",
"1110 486.562 OFFCURVE",
"1110 902 CURVE",
"1110 1187.68 OFFCURVE",
"1022 1452 OFFCURVE",
"742 1452 CURVE",
"347 1452 OFFCURVE",
"104 964.124 OFFCURVE",
"104 552 CURVE",
"104 251.032 OFFCURVE",
"222 -12 OFFCURVE"
);
}
);
width = 1203;
}
);
unicode = 0030;
},
{
glyphname = one;
lastChange = "2013-12-29 00:27:25 -0800";
layers = (
{
layerId = "5ACEE878-7952-4CAC-A6A7-BEDE971843B4";
name = Regular;
paths = (
{
closed = 1;
nodes = (
"317 0 CURVE SMOOTH",
"358 0 OFFCURVE",
"396 24 OFFCURVE",
"403 56 CURVE SMOOTH",
"484 476 OFFCURVE",
"583 891 OFFCURVE",
"647 1316 CURVE SMOOTH",
"649 1327 OFFCURVE",
"649 1337 OFFCURVE",
"649 1346 CURVE SMOOTH",
"649 1429 OFFCURVE",
"581 1464 OFFCURVE",
"515 1442 CURVE SMOOTH",
"377 1395 OFFCURVE",
"288 1346 OFFCURVE",
"64 1258 CURVE SMOOTH",
"43 1250 OFFCURVE",
"14 1240 OFFCURVE",
"14 1192 CURVE SMOOTH",
"14 1133 OFFCURVE",
"56 1077 OFFCURVE",
"119 1105 CURVE SMOOTH",
"170 1128 OFFCURVE",
"365 1209 OFFCURVE",
"365 1209 CURVE",
"288 829 OFFCURVE",
"198 414 OFFCURVE",
"130 107 CURVE",
"122 93.9999 OFFCURVE",
"121 87 OFFCURVE",
"121 71 CURVE SMOOTH",
"121 8 OFFCURVE",
"235 0 OFFCURVE"
);
}
);
width = 682;
},
{
layerId = "DE4BB00D-BABA-4D36-9D9A-44FD0E91C3DF";
name = Light;
paths = (
{
closed = 1;
nodes = (
"264 0 CURVE",
"316 0 OFFCURVE",
"336 17 OFFCURVE",
"339 32 CURVE",
"429 499 OFFCURVE",
"592 1281 OFFCURVE",
"592 1372 CURVE",
"592 1428 OFFCURVE",
"549 1438 OFFCURVE",
"488 1438 CURVE",
"377 1438 OFFCURVE",
"287 1322 OFFCURVE",
"217 1261 CURVE",
"200 1242 OFFCURVE",
"176 1227 OFFCURVE",
"176 1208 CURVE",
"176 1190 OFFCURVE",
"188 1171 OFFCURVE",
"201 1171 CURVE",
"241 1171 OFFCURVE",
"382 1264 OFFCURVE",
"398 1281 CURVE",
"310 810 OFFCURVE",
"294 707 OFFCURVE",
"152 66 CURVE",
"140 8 OFFCURVE",
"215 0 OFFCURVE"
);
}
);
width = 682;
}
);
unicode = 0031;
},
{
glyphname = two;
lastChange = "2013-12-29 00:27:25 -0800";
layers = (
{
layerId = "5ACEE878-7952-4CAC-A6A7-BEDE971843B4";
name = Regular;
paths = (
{
closed = 1;
nodes = (
"268 181 CURVE SMOOTH",
"204 181 OFFCURVE",
"170 227 OFFCURVE",
"170 269 CURVE SMOOTH",
"170 303 OFFCURVE",
"193 334 OFFCURVE",
"240 334 CURVE SMOOTH",
"307 334 OFFCURVE",
"406 301 OFFCURVE",
"425 290 CURVE",
"378 221 OFFCURVE",
"317 181 OFFCURVE"
);
},
{
closed = 1;
nodes = (
"295 0.999999 CURVE SMOOTH",
"417 0.999999 OFFCURVE",
"511 65 OFFCURVE",
"590 131 CURVE",
"659 76 OFFCURVE",
"744 0.999999 OFFCURVE",
"856 0.999999 CURVE SMOOTH",
"987.999 0.999999 OFFCURVE",
"1030 120 OFFCURVE",
"1030 221 CURVE SMOOTH",
"1030 257 OFFCURVE",
"1022 284 OFFCURVE",
"994.999 284 CURVE SMOOTH",
"959 284 OFFCURVE",
"942 229 OFFCURVE",
"895 229 CURVE SMOOTH",
"825 229 OFFCURVE",
"774 248 OFFCURVE",
"725 276 CURVE",
"835 422 OFFCURVE",
"968.999 649 OFFCURVE",
"968.999 895 CURVE SMOOTH",
"968.999 1172 OFFCURVE",
"787 1333 OFFCURVE",
"536 1333 CURVE SMOOTH",
"316 1333 OFFCURVE",
"82 1187 OFFCURVE",
"82 960 CURVE SMOOTH",
"82 832 OFFCURVE",
"126 747 OFFCURVE",
"242 747 CURVE SMOOTH",
"302 747 OFFCURVE",
"368 792 OFFCURVE",
"368 840 CURVE SMOOTH",
"368 896 OFFCURVE",
"320 892 OFFCURVE",
"320 967.999 CURVE SMOOTH",
"320 1068 OFFCURVE",
"406 1135 OFFCURVE",
"511 1135 CURVE SMOOTH",
"658 1135 OFFCURVE",
"710 1025 OFFCURVE",
"710 891 CURVE SMOOTH",
"710 720 OFFCURVE",
"631 511 OFFCURVE",
"549 422 CURVE",
"465 475 OFFCURVE",
"370 520 OFFCURVE",
"236 520 CURVE SMOOTH",
"90 520 OFFCURVE",
"-4 420 OFFCURVE",
"-4 276 CURVE SMOOTH",
"-4 114 OFFCURVE",
"136 0.999999 OFFCURVE"
);
}
);
width = 1101;
},
{
layerId = "DE4BB00D-BABA-4D36-9D9A-44FD0E91C3DF";
name = Light;
paths = (
{
closed = 1;
nodes = (
"255 134 CURVE",
"172 134 OFFCURVE",
"142 182 OFFCURVE",
"142 238 CURVE",
"142 286 OFFCURVE",
"174 334 OFFCURVE",
"240 334 CURVE",
"350 334 OFFCURVE",
"393 308 OFFCURVE",
"459 268 CURVE",
"409 195 OFFCURVE",
"313 134 OFFCURVE"
);
},
{
closed = 1;
nodes = (
"282 0 CURVE",
"404 0 OFFCURVE",
"493 68 OFFCURVE",
"576 139 CURVE",
"651 81 OFFCURVE",
"733 0 OFFCURVE",
"843 0 CURVE",
"951 0 OFFCURVE",
"987 96 OFFCURVE",
"987 190 CURVE",
"987 218 OFFCURVE",
"983 223 OFFCURVE",
"982 223 CURVE",
"968 223 OFFCURVE",
"951 168 OFFCURVE",
"882 168 CURVE",
"792 168 OFFCURVE",
"726 199 OFFCURVE",
"668 237 CURVE",
"780 380 OFFCURVE",
"964 673 OFFCURVE",
"964 925 CURVE",
"964 1185 OFFCURVE",
"783 1333 OFFCURVE",
"547 1333 CURVE",
"340 1333 OFFCURVE",
"123 1197 OFFCURVE",
"123 990 CURVE",
"123 874 OFFCURVE",
"199 807 OFFCURVE",
"273 807 CURVE SMOOTH",
"426 807 OFFCURVE",
"292 841 OFFCURVE",
"292 1001 CURVE",
"292 1120 OFFCURVE",
"403 1187 OFFCURVE",
"522 1187 CURVE",
"692 1187 OFFCURVE",
"751 1066 OFFCURVE",
"751 921 CURVE",
"751 733 OFFCURVE",
"632 433 OFFCURVE",
"540 353 CURVE",
"451 411 OFFCURVE",
"360 472 OFFCURVE",
"223 472 CURVE",
"94 472 OFFCURVE",
"13 373 OFFCURVE",
"13 245 CURVE",
"13 101 OFFCURVE",
"137 0 OFFCURVE"
);
}
);
width = 1101;
}
);
unicode = 0032;
},
{
glyphname = three;
lastChange = "2013-12-29 00:27:25 -0800";
layers = (
{
layerId = "5ACEE878-7952-4CAC-A6A7-BEDE971843B4";
name = Regular;
paths = (
{
closed = 1;
nodes = (
"500 -18 CURVE SMOOTH",
"861 -18 OFFCURVE",
"1088 163 OFFCURVE",
"1088 452 CURVE SMOOTH",
"1088 641 OFFCURVE",
"961 793 OFFCURVE",
"758 845 CURVE",
"946 905 OFFCURVE",
"1064 1028 OFFCURVE",
"1064 1165 CURVE SMOOTH",
"1064 1351 OFFCURVE",
"925 1465 OFFCURVE",
"701 1465 CURVE SMOOTH",
"574 1465 OFFCURVE",
"219 1425 OFFCURVE",
"219 1213 CURVE SMOOTH",
"219 1173 OFFCURVE",
"248 1148 OFFCURVE",
"293 1148 CURVE SMOOTH",
"345 1148 OFFCURVE",
"441 1259 OFFCURVE",
"572 1259 CURVE SMOOTH",
"670 1259 OFFCURVE",
"732 1205 OFFCURVE",
"732 1119 CURVE SMOOTH",
"732 975 OFFCURVE",
"621 884 OFFCURVE",
"444 884 CURVE SMOOTH",
"371 884 OFFCURVE",
"325 856 OFFCURVE",
"325 812 CURVE SMOOTH",
"325 777 OFFCURVE",
"355 755 OFFCURVE",
"402 755 CURVE SMOOTH",
"620 755 OFFCURVE",
"757 640 OFFCURVE",
"757 456 CURVE SMOOTH",
"757 265 OFFCURVE",
"651 142 OFFCURVE",
"481 137 CURVE SMOOTH",
"325 132 OFFCURVE",
"227 201 OFFCURVE",
"227 317 CURVE SMOOTH",
"227 370 OFFCURVE",
"256 418 OFFCURVE",
"256 463 CURVE SMOOTH",
"256 507 OFFCURVE",
"224 534 OFFCURVE",
"173 534 CURVE SMOOTH",
"66 534 OFFCURVE",
"-1 452 OFFCURVE",
"-1 321 CURVE SMOOTH",
"-1 113 OFFCURVE",
"192 -18 OFFCURVE"
);
}
);
width = 1129;
},
{
layerId = "DE4BB00D-BABA-4D36-9D9A-44FD0E91C3DF";
name = Light;
paths = (
{
closed = 1;
nodes = (
"480 -4 CURVE",
"818 -4 OFFCURVE",
"1038 150 OFFCURVE",
"1038 436 CURVE",
"1038 632 OFFCURVE",
"960 773 OFFCURVE",
"731.42 854.351 CURVE",
"912.463 888.542 OFFCURVE",
"1047 1008 OFFCURVE",
"1047 1197 CURVE",
"1047 1389 OFFCURVE",
"849 1466 OFFCURVE",
"682 1466 CURVE",
"465 1466 OFFCURVE",
"253 1378 OFFCURVE",
"253 1279 CURVE",
"253 1250 OFFCURVE",
"279 1210 OFFCURVE",
"306 1210 CURVE",
"340 1210 OFFCURVE",
"444 1321 OFFCURVE",
"585 1321 CURVE",
"738 1321 OFFCURVE",
"804 1249 OFFCURVE",
"804 1173 CURVE",
"804 1037 OFFCURVE",
"614.251 884 OFFCURVE",
"444 884 CURVE",
"379.967 884 OFFCURVE",
"355 848.854 OFFCURVE",
"355 812 CURVE",
"355 797.879 OFFCURVE",
"372.18 785 OFFCURVE",
"402 785 CURVE",
"441.534 785 OFFCURVE",
"480.534 781 OFFCURVE",
"510 781 CURVE",
"708.677 781 OFFCURVE",
"815 602 OFFCURVE",
"815 440 CURVE",
"815 264 OFFCURVE",
"645 121 OFFCURVE",
"459 121 CURVE",
"357 121 OFFCURVE",
"222 171 OFFCURVE",
"222 253 CURVE",
"222 304 OFFCURVE",
"256 347 OFFCURVE",
"256 376 CURVE",
"256 434 OFFCURVE",
"214 485 OFFCURVE",
"127 485 CURVE",
"58 485 OFFCURVE",
"9 409 OFFCURVE",
"9 305 CURVE",
"9 141 OFFCURVE",
"203 -4 OFFCURVE"
);
}
);
width = 1129;
}
);
unicode = 0033;
},
{
glyphname = four;
lastChange = "2013-12-29 00:27:25 -0800";
layers = (
{
layerId = "5ACEE878-7952-4CAC-A6A7-BEDE971843B4";
name = Regular;
paths = (
{
closed = 1;
nodes = (
"597 -45 CURVE SMOOTH",
"652 -45 OFFCURVE",
"714 -38 OFFCURVE",
"770 -38 CURVE SMOOTH",
"781 -38 OFFCURVE",
"785 -37 OFFCURVE",
"785 -28 CURVE SMOOTH",
"785 28 OFFCURVE",
"693 65 OFFCURVE",
"693 130 CURVE SMOOTH",
"693 149 LINE",
"696 190 OFFCURVE",
"706 231 OFFCURVE",
"715 269 CURVE",
"771 267 OFFCURVE",
"826 264 OFFCURVE",
"881 264 CURVE SMOOTH",
"928 264 OFFCURVE",
"941 341 OFFCURVE",
"941 397 CURVE SMOOTH",
"941 418 OFFCURVE",
"936 437 OFFCURVE",
"917 437 CURVE SMOOTH",
"865 437 OFFCURVE",
"812 423 OFFCURVE",
"759 414 CURVE",
"785 493 OFFCURVE",
"836 583 OFFCURVE",
"836 674 CURVE SMOOTH",
"836 718 OFFCURVE",
"807 730 OFFCURVE",
"756 730 CURVE SMOOTH",
"686 730 OFFCURVE",
"628 691 OFFCURVE",
"612 633 CURVE SMOOTH",
"590 555 OFFCURVE",
"560 472 OFFCURVE",
"535 391 CURVE",
"522 391 LINE SMOOTH",
"483 391 OFFCURVE",
"454 392 OFFCURVE",
"411 394 CURVE",
"497 587 OFFCURVE",
"622 779 OFFCURVE",
"622 1019 CURVE SMOOTH",
"622 1050 OFFCURVE",
"535 1052 OFFCURVE",
"499 1052 CURVE SMOOTH",
"430 1052 OFFCURVE",
"325 1044 OFFCURVE",
"313 991.999 CURVE SMOOTH",
"262 764 OFFCURVE",
"218 565 OFFCURVE",
"144 372 CURVE",
"119 335 OFFCURVE",
"86 287 OFFCURVE",
"86 237 CURVE SMOOTH",
"86 212 OFFCURVE",
"95.9999 192 OFFCURVE",
"120 192 CURVE SMOOTH",
"259 192 OFFCURVE",
"347 273 OFFCURVE",
"501 273 CURVE",
"485 210 OFFCURVE",
"466 140 OFFCURVE",
"466 71 CURVE SMOOTH",
"466 -18 OFFCURVE",
"508 -45 OFFCURVE"
);
}
);
width = 927;
},
{
layerId = "DE4BB00D-BABA-4D36-9D9A-44FD0E91C3DF";
name = Light;
paths = (
{
closed = 1;
nodes = (
"597 -4 CURVE",
"650 -4 OFFCURVE",
"676 -4 OFFCURVE",
"686 3 CURVE",
"703 18 OFFCURVE",
"663 54 OFFCURVE",
"663 141 CURVE",
"668 231 OFFCURVE",
"673 243 OFFCURVE",
"678 266 CURVE",
"743 269 OFFCURVE",
"806 267 OFFCURVE",
"861 257 CURVE",
"902 248 OFFCURVE",
"911 310 OFFCURVE",
"911 359 CURVE",
"911 382 OFFCURVE",
"813 396 OFFCURVE",
"718 387 CURVE",
"738 482 OFFCURVE",
"806 575.43 OFFCURVE",
"806 674 CURVE",
"806 693.974 OFFCURVE",
"797.046 700 OFFCURVE",
"756 700 CURVE",
"699.144 700 OFFCURVE",
"652.902 668.457 OFFCURVE",
"640.873 624.856 CURVE",
"616.617 538.854 OFFCURVE",
"583 471 OFFCURVE",
"557 384 CURVE",
"505 384 OFFCURVE",
"445 381 OFFCURVE",
"366.322 366.112 CURVE",
"464 559 OFFCURVE",
"539 763 OFFCURVE",
"558 953 CURVE",
"558 993 OFFCURVE",
"551 1022 OFFCURVE",
"499 1022 CURVE",
"435.138 1022 OFFCURVE",
"348.376 1011.88 OFFCURVE",
"342.277 985.45 CURVE",
"257 486 OFFCURVE",
"116 278.723 OFFCURVE",
"116 237 CURVE",
"120 192 OFFCURVE",
"296 261 OFFCURVE",
"528 261 CURVE",
"511 188 OFFCURVE",
"496 159 OFFCURVE",
"496 82 CURVE",
"496 13 OFFCURVE",
"521 -4 OFFCURVE"
);
}
);
width = 927;
}
);
unicode = 0034;
},
{
glyphname = five;
lastChange = "2013-12-29 00:27:25 -0800";
layers = (
{
layerId = "5ACEE878-7952-4CAC-A6A7-BEDE971843B4";
name = Regular;
paths = (
{
closed = 1;
nodes = (
"489 0 CURVE SMOOTH",
"769 0 OFFCURVE",
"1029 155 OFFCURVE",
"1029 465 CURVE SMOOTH",
"1029 881 OFFCURVE",
"687 895 OFFCURVE",
"403 869 CURVE",
"380 968 OFFCURVE",
"373 1042 OFFCURVE",
"380 1125 CURVE",
"594 1129 OFFCURVE",
"580 1101 OFFCURVE",
"756 1087 CURVE",
"930 1080 OFFCURVE",
"1087 1127 OFFCURVE",
"1087 1263 CURVE SMOOTH",
"1087 1375 OFFCURVE",
"1018 1419 OFFCURVE",
"1003 1401 CURVE",
"962 1361 OFFCURVE",
"866 1345 OFFCURVE",
"795 1345 CURVE SMOOTH",
"622 1345 OFFCURVE",
"558 1393 OFFCURVE",
"354 1393 CURVE SMOOTH",
"240 1393 OFFCURVE",
"237 1153 OFFCURVE",
"238 840 CURVE",
"238 720 OFFCURVE",
"258 700 OFFCURVE",
"343 690 CURVE SMOOTH",
"561 663 OFFCURVE",
"713 622 OFFCURVE",
"713 399 CURVE SMOOTH",
"713 243 OFFCURVE",
"576 164 OFFCURVE",
"482 164 CURVE SMOOTH",
"374 164 OFFCURVE",
"300 199 OFFCURVE",
"300 298 CURVE SMOOTH",
"300 413 OFFCURVE",
"369 414 OFFCURVE",
"369 459 CURVE SMOOTH",
"369 522 OFFCURVE",
"276 539 OFFCURVE",
"239 539 CURVE SMOOTH",
"121 539 OFFCURVE",
"70 484 OFFCURVE",
"70 361 CURVE SMOOTH",
"70 119 OFFCURVE",
"291 0 OFFCURVE"
);
}
);
width = 1157;
},
{
layerId = "DE4BB00D-BABA-4D36-9D9A-44FD0E91C3DF";
name = Light;
paths = (
{
closed = 1;
nodes = (
"489 0 CURVE",
"757 0 OFFCURVE",
"999 171 OFFCURVE",
"999 460 CURVE",
"999 859 OFFCURVE",
"683 865 OFFCURVE",
"394 837 CURVE",
"363 961 OFFCURVE",
"361 1119 OFFCURVE",
"373 1222 CURVE",
"561 1230 OFFCURVE",
"702 1179 OFFCURVE",
"764 1174 CURVE",
"929 1168 OFFCURVE",
"1063 1181 OFFCURVE",
"1063 1290 CURVE",
"1063 1392 OFFCURVE",
"1025 1415 OFFCURVE",
"1014 1403 CURVE",
"967 1356 OFFCURVE",
"876 1342 OFFCURVE",
"801 1342 CURVE",
"618 1342 OFFCURVE",
"532 1390 OFFCURVE",
"338 1390 CURVE",
"260 1390 OFFCURVE",
"251 1174 OFFCURVE",
"246 840 CURVE",
"246 736 OFFCURVE",
"254 728 OFFCURVE",
"346.687 719.773 CURVE",
"566.779 692.514 OFFCURVE",
"806 715 OFFCURVE",
"806 437 CURVE",
"806 206 OFFCURVE",
"588 104 OFFCURVE",
"482 104 CURVE",
"363 104 OFFCURVE",
"270 146 OFFCURVE",
"270 268 CURVE",
"270 429 OFFCURVE",
"339 388 OFFCURVE",
"339 429 CURVE",
"339 465 OFFCURVE",
"271 479 OFFCURVE",
"239 479 CURVE",
"138 479 OFFCURVE",
"100 438 OFFCURVE",
"100 331 CURVE",
"100 111 OFFCURVE",
"303 0 OFFCURVE"
);
}
);
width = 1157;
}
);
unicode = 0035;
},
{
glyphname = six;
lastChange = "2013-12-29 00:27:25 -0800";
layers = (
{
layerId = "5ACEE878-7952-4CAC-A6A7-BEDE971843B4";
name = Regular;
paths = (
{
closed = 1;
nodes = (
"556 156 CURVE SMOOTH",
"414 156 OFFCURVE",
"366 288 OFFCURVE",
"366 425 CURVE SMOOTH",
"366 602 OFFCURVE",
"431 717 OFFCURVE",
"623 717 CURVE SMOOTH",
"753 717 OFFCURVE",
"818 642 OFFCURVE",
"818 516 CURVE SMOOTH",
"818 352 OFFCURVE",
"722 156 OFFCURVE"
);
},
{
closed = 1;
nodes = (
"551 -31 CURVE SMOOTH",
"860 -31 OFFCURVE",
"1113 184 OFFCURVE",
"1113 497 CURVE SMOOTH",
"1113 738 OFFCURVE",
"957 895 OFFCURVE",
"769 895 CURVE SMOOTH",
"627 895 OFFCURVE",
"533 842 OFFCURVE",
"456 786 CURVE",
"573 1019 OFFCURVE",
"735 1197 OFFCURVE",
"958 1328 CURVE SMOOTH",
"998.999 1353 OFFCURVE",
"1028 1387 OFFCURVE",
"1028 1436 CURVE SMOOTH",
"1028 1487 OFFCURVE",
"983.999 1521 OFFCURVE",
"921 1521 CURVE SMOOTH",
"887 1521 OFFCURVE",
"862 1510 OFFCURVE",
"832 1496 CURVE SMOOTH",
"481 1326 OFFCURVE",
"82 992.999 OFFCURVE",
"82 474 CURVE SMOOTH",
"82 156 OFFCURVE",
"263 -31 OFFCURVE"
);
}
);
width = 1166;
},
{
layerId = "DE4BB00D-BABA-4D36-9D9A-44FD0E91C3DF";
name = Light;
paths = (
{
closed = 1;
nodes = (
"556 97 CURVE",
"391 97 OFFCURVE",
"306 262 OFFCURVE",
"306 406 CURVE",
"306 595 OFFCURVE",
"379 747 OFFCURVE",
"623 747 CURVE",
"770.727 747 OFFCURVE",
"848 638 OFFCURVE",
"848 497 CURVE",
"848 322 OFFCURVE",
"745 97 OFFCURVE"
);
},
{
closed = 1;
nodes = (
"551 -30 CURVE",
"845 -30 OFFCURVE",
"1083 183 OFFCURVE",
"1083 478 CURVE",
"1083 703 OFFCURVE",
"944 879 OFFCURVE",
"757 879 CURVE",
"623 879 OFFCURVE",
"481 842 OFFCURVE",
"390 767 CURVE",
"476 976 OFFCURVE",
"706 1224 OFFCURVE",
"968 1377 CURVE",
"1003 1399 OFFCURVE",
"1023 1424 OFFCURVE",
"1023 1460 CURVE",
"1023 1492 OFFCURVE",
"995 1515 OFFCURVE",
"946 1515 CURVE",
"918 1515 OFFCURVE",
"900 1507 OFFCURVE",
"870 1493 CURVE",
"524 1325 OFFCURVE",
"112 958 OFFCURVE",
"112 455 CURVE",
"112 153 OFFCURVE",
"280 -30 OFFCURVE"
);
}
);
width = 1166;
}
);
unicode = 0036;
},
{
glyphname = seven;
lastChange = "2013-12-29 00:27:25 -0800";
layers = (
{
layerId = "5ACEE878-7952-4CAC-A6A7-BEDE971843B4";
name = Regular;
paths = (
{
closed = 1;
nodes = (
"231 -56 CURVE SMOOTH",
"311 -56 OFFCURVE",
"384 -29 OFFCURVE",
"410 50 CURVE SMOOTH",
"548 470 OFFCURVE",
"705 800 OFFCURVE",
"913 1131 CURVE",
"929 1159 OFFCURVE",
"1010 1181 OFFCURVE",
"1010 1252 CURVE SMOOTH",
"1010 1304 OFFCURVE",
"993.999 1343 OFFCURVE",
"944 1343 CURVE SMOOTH",
"921 1343 OFFCURVE",
"829 1333 OFFCURVE",
"787 1333 CURVE SMOOTH",
"573 1333 OFFCURVE",
"464 1379 OFFCURVE",
"272 1379 CURVE SMOOTH",
"191 1379 OFFCURVE",
"146 1273 OFFCURVE",
"146 1155 CURVE SMOOTH",
"146 1083 OFFCURVE",
"172 1024 OFFCURVE",
"214 1024 CURVE SMOOTH",
"291 1024 OFFCURVE",
"262 1159 OFFCURVE",
"335 1159 CURVE SMOOTH",
"667 1159 LINE",
"477 866 OFFCURVE",
"107 271 OFFCURVE",
"107 49 CURVE SMOOTH",
"107 -18 OFFCURVE",
"168 -56 OFFCURVE"
);
}
);
width = 926;
},
{
layerId = "DE4BB00D-BABA-4D36-9D9A-44FD0E91C3DF";
name = Light;
paths = (
{
closed = 1;
nodes = (
"220 -52 CURVE",
"293 -52 OFFCURVE",
"350 -29 OFFCURVE",
"371 34 CURVE",
"509 455 OFFCURVE",
"694 845 OFFCURVE",
"903 1177 CURVE",
"928 1221 OFFCURVE",
"995 1228 OFFCURVE",
"995 1282 CURVE",
"995 1324 OFFCURVE",
"985 1343 OFFCURVE",
"959 1343 CURVE",
"938 1343 OFFCURVE",
"846 1333 OFFCURVE",
"802 1333 CURVE",
"582 1333 OFFCURVE",
"473 1379 OFFCURVE",
"287 1379 CURVE",
"230 1379 OFFCURVE",
"191 1293 OFFCURVE",
"191 1185 CURVE",
"191 1126 OFFCURVE",
"212 1084 OFFCURVE",
"229 1084 CURVE",
"273 1084 OFFCURVE",
"236 1219 OFFCURVE",
"350 1219 CURVE",
"738 1219 LINE",
"561 950 OFFCURVE",
"126 247 OFFCURVE",
"126 23 CURVE",
"126 -23 OFFCURVE",
"170 -52 OFFCURVE"
);
}
);
width = 926;
}
);
unicode = 0037;
},
{
glyphname = eight;
lastChange = "2013-12-29 00:27:25 -0800";
layers = (
{
layerId = "5ACEE878-7952-4CAC-A6A7-BEDE971843B4";
name = Regular;
paths = (
{
closed = 1;
nodes = (
"400 191 CURVE SMOOTH",
"332 191 OFFCURVE",
"290 256 OFFCURVE",
"290 328 CURVE SMOOTH",
"290 486 OFFCURVE",
"391 554 OFFCURVE",
"489 606 CURVE",
"533 552 OFFCURVE",
"579 489 OFFCURVE",
"579 390 CURVE SMOOTH",
"579 275 OFFCURVE",
"513 191 OFFCURVE"
);
},
{
closed = 1;
nodes = (
"511 872 CURVE",
"462 919 OFFCURVE",
"420 994.999 OFFCURVE",
"420 1081 CURVE SMOOTH",
"420 1198 OFFCURVE",
"486 1272 OFFCURVE",
"577 1272 CURVE SMOOTH",
"647 1272 OFFCURVE",
"705 1223 OFFCURVE",
"705 1125 CURVE SMOOTH",
"705 1021 OFFCURVE",
"592 917 OFFCURVE"
);
},
{
closed = 1;
nodes = (
"447 -16 CURVE SMOOTH",
"682 -16 OFFCURVE",
"874 106 OFFCURVE",
"874 332 CURVE SMOOTH",
"874 534 OFFCURVE",
"735 645 OFFCURVE",
"625 735 CURVE",
"796 821 OFFCURVE",
"953 934 OFFCURVE",
"953 1192 CURVE SMOOTH",
"953 1382 OFFCURVE",
"785 1450 OFFCURVE",
"624 1450 CURVE SMOOTH",
"399 1450 OFFCURVE",
"179 1333 OFFCURVE",
"179 1083 CURVE SMOOTH",
"179 942 OFFCURVE",
"251 839 OFFCURVE",
"348 775 CURVE",
"205 678 OFFCURVE",
"51 559 OFFCURVE",
"51 305 CURVE SMOOTH",
"51 75 OFFCURVE",
"219 -16 OFFCURVE"
);
}
);
width = 967;
},
{
layerId = "DE4BB00D-BABA-4D36-9D9A-44FD0E91C3DF";
name = Light;
paths = (
{
closed = 1;
nodes = (
"400 131 CURVE",
"312 131 OFFCURVE",
"260 229 OFFCURVE",
"260 314 CURVE",
"260 501 OFFCURVE",
"393.323 590.773 OFFCURVE",
"496.729 643.849 CURVE",
"543.521 586.909 OFFCURVE",
"609 498 OFFCURVE",
"609 376 CURVE",
"609 247 OFFCURVE",
"532 131 OFFCURVE"
);
},
{
closed = 1;
nodes = (
"506.509 836.027 CURVE",
"448.35 882.674 OFFCURVE",
"403 994 OFFCURVE",
"403 1097 CURVE",
"403 1229 OFFCURVE",
"482 1330 OFFCURVE",
"590 1330 CURVE",
"675 1330 OFFCURVE",
"748 1257 OFFCURVE",
"748 1141 CURVE",
"748 1015 OFFCURVE",
"589.135 874.321 OFFCURVE"
);
},
{
closed = 1;
nodes = (
"447 -16 CURVE",
"669 -16 OFFCURVE",
"844 112 OFFCURVE",
"844 318 CURVE",
"844 526 OFFCURVE",
"686.092 643.34 OFFCURVE",
"570.084 741.528 CURVE",
"753.975 829.443 OFFCURVE",
"936 948 OFFCURVE",
"936 1208 CURVE",
"936 1374 OFFCURVE",
"788 1448 OFFCURVE",
"637 1448 CURVE",
"424 1448 OFFCURVE",
"222 1327 OFFCURVE",
"222 1099 CURVE",
"222 951 OFFCURVE",
"293.665 834.003 OFFCURVE",
"404.296 776.761 CURVE",
"250.077 672.864 OFFCURVE",
"81 552 OFFCURVE",
"81 291 CURVE",
"81 83 OFFCURVE",
"231 -16 OFFCURVE"
);
}
);
width = 967;
}
);
unicode = 0038;
},
{
glyphname = nine;
lastChange = "2013-12-29 00:27:25 -0800";
layers = (
{
layerId = "5ACEE878-7952-4CAC-A6A7-BEDE971843B4";
name = Regular;
paths = (
{
closed = 1;
nodes = (
"586 673 CURVE SMOOTH",
"456 673 OFFCURVE",
"391 748 OFFCURVE",
"391 874 CURVE SMOOTH",
"391 1038 OFFCURVE",
"487 1234 OFFCURVE",
"653 1234 CURVE SMOOTH",
"795 1234 OFFCURVE",
"843 1102 OFFCURVE",
"843 965 CURVE SMOOTH",
"843 788 OFFCURVE",
"778 673 OFFCURVE"
);
},
{
closed = 1;
nodes = (
"288 -131 CURVE SMOOTH",
"322 -131 OFFCURVE",
"347 -120 OFFCURVE",
"377 -106 CURVE SMOOTH",
"728 64 OFFCURVE",
"1127 397 OFFCURVE",
"1127 916 CURVE SMOOTH",
"1127 1234 OFFCURVE",
"946 1421 OFFCURVE",
"658 1421 CURVE SMOOTH",
"349 1421 OFFCURVE",
"95.9999 1206 OFFCURVE",
"95.9999 893 CURVE SMOOTH",
"95.9999 652 OFFCURVE",
"252 495 OFFCURVE",
"440 495 CURVE SMOOTH",
"582 495 OFFCURVE",
"676 548 OFFCURVE",
"753 604 CURVE",
"636 371 OFFCURVE",
"474 193 OFFCURVE",
"251 62 CURVE SMOOTH",
"210 37 OFFCURVE",
"181 3 OFFCURVE",
"181 -46 CURVE SMOOTH",
"181 -97 OFFCURVE",
"225 -131 OFFCURVE"
);
}
);
width = 1209;
},
{
layerId = "DE4BB00D-BABA-4D36-9D9A-44FD0E91C3DF";
name = Light;
paths = (
{
closed = 1;
nodes = (
"559 625 CURVE",
"411 625 OFFCURVE",
"361 748 OFFCURVE",
"361 890 CURVE",
"361 1065 OFFCURVE",
"464 1294 OFFCURVE",
"653 1294 CURVE",
"818 1294 OFFCURVE",
"907 1167 OFFCURVE",
"907 970 CURVE",
"907 781 OFFCURVE",
"806 614 OFFCURVE"
);
},
{
closed = 1;
nodes = (
"273 -126 CURVE",
"301 -126 OFFCURVE",
"320 -117 OFFCURVE",
"349 -104 CURVE",
"695 64 OFFCURVE",
"1097 429 OFFCURVE",
"1097 932 CURVE",
"1097 1233 OFFCURVE",
"929 1421 OFFCURVE",
"658 1421 CURVE",
"364 1421 OFFCURVE",
"126 1204 OFFCURVE",
"126 909 CURVE",
"126 684 OFFCURVE",
"293 504 OFFCURVE",
"464 504 CURVE",
"564 504 OFFCURVE",
"734 511 OFFCURVE",
"865 637 CURVE",
"745 371 OFFCURVE",
"513 165 OFFCURVE",
"252 12 CURVE",
"217 -10 OFFCURVE",
"196 -35 OFFCURVE",
"196 -71 CURVE",
"196 -103 OFFCURVE",
"225 -126 OFFCURVE"
);
}
);
width = 1209;
}
);
unicode = 0039;
},
{
glyphname = colon;
lastChange = "2013-12-29 00:27:25 -0800";
layers = (
{
layerId = "5ACEE878-7952-4CAC-A6A7-BEDE971843B4";
name = Regular;
paths = (
{
closed = 1;
nodes = (
"484 0 CURVE SMOOTH",
"603 0 OFFCURVE",
"672 76 OFFCURVE",
"672 191 CURVE SMOOTH",
"672 297 OFFCURVE",
"611 353 OFFCURVE",
"503 353 CURVE SMOOTH",
"386 353 OFFCURVE",
"320 277 OFFCURVE",
"320 162 CURVE SMOOTH",
"320 55 OFFCURVE",
"378 0 OFFCURVE"
);
},
{
closed = 1;
nodes = (
"544 672 CURVE SMOOTH",
"663 672 OFFCURVE",
"732 748 OFFCURVE",
"732 863 CURVE SMOOTH",
"732 968.999 OFFCURVE",
"671 1025 OFFCURVE",
"563 1025 CURVE SMOOTH",
"446 1025 OFFCURVE",
"380 949 OFFCURVE",
"380 834 CURVE SMOOTH",
"380 727 OFFCURVE",
"438 672 OFFCURVE"
);
}
);
width = 704;
},
{
layerId = "DE4BB00D-BABA-4D36-9D9A-44FD0E91C3DF";
name = Light;
paths = (
{
closed = 1;
nodes = (
"484 0 CURVE",
"586 0 OFFCURVE",
"642 62 OFFCURVE",
"642 161 CURVE",
"642 250 OFFCURVE",
"595 293 OFFCURVE",
"503 293 CURVE",
"404 293 OFFCURVE",
"350 232 OFFCURVE",
"350 132 CURVE",
"350 42 OFFCURVE",
"394 0 OFFCURVE"
);
},
{
closed = 1;
nodes = (
"544 668 CURVE",
"646 668 OFFCURVE",
"702 730 OFFCURVE",
"702 829 CURVE",
"702 918 OFFCURVE",
"655 961 OFFCURVE",
"563 961 CURVE",
"464 961 OFFCURVE",
"410 900 OFFCURVE",
"410 800 CURVE",
"410 710 OFFCURVE",
"454 668 OFFCURVE"
);
}
);
width = 704;
}
);
unicode = 003A;
},
{
glyphname = semicolon;
lastChange = "2013-12-29 00:27:25 -0800";
layers = (
{
layerId = "5ACEE878-7952-4CAC-A6A7-BEDE971843B4";
name = Regular;
paths = (
{
closed = 1;
nodes = (
"544 672 CURVE SMOOTH",
"663 672 OFFCURVE",
"732 748 OFFCURVE",
"732 863 CURVE SMOOTH",
"732 968.999 OFFCURVE",
"671 1025 OFFCURVE",
"563 1025 CURVE SMOOTH",
"446 1025 OFFCURVE",
"380 949 OFFCURVE",
"380 834 CURVE SMOOTH",
"380 727 OFFCURVE",
"438 672 OFFCURVE"
);
},
{
closed = 1;
nodes = (
"368 -191 CURVE SMOOTH",
"470 -191 OFFCURVE",
"514 -75 OFFCURVE",
"558 -8 CURVE SMOOTH",
"580 26 OFFCURVE",
"582 26 OFFCURVE",
"604 60 CURVE SMOOTH",
"631 102 OFFCURVE",
"671 143 OFFCURVE",
"671 205 CURVE SMOOTH",
"671 282 OFFCURVE",
"592 321 OFFCURVE",
"514 321 CURVE SMOOTH",
"445 321 OFFCURVE",
"392 291 OFFCURVE",
"377 237 CURVE SMOOTH",
"347 128 OFFCURVE",
"287 9.99999 OFFCURVE",
"287 -109 CURVE SMOOTH",
"287 -158 OFFCURVE",
"321 -191 OFFCURVE"
);
}
);
width = 768;
},
{
layerId = "DE4BB00D-BABA-4D36-9D9A-44FD0E91C3DF";
name = Light;
paths = (
{
closed = 1;
nodes = (
"544 702 CURVE",
"645.719 702 OFFCURVE",
"702 763.585 OFFCURVE",
"702 863 CURVE",
"702 951.817 OFFCURVE",
"655.319 995 OFFCURVE",
"563 995 CURVE",
"463.679 995 OFFCURVE",
"410 933.793 OFFCURVE",
"410 834 CURVE",
"410 743.894 OFFCURVE",
"453.961 702 OFFCURVE"
);
},
{
closed = 1;
nodes = (
"368 -161 CURVE",
"456.787 -161 OFFCURVE",
"641 152.913 OFFCURVE",
"641 205 CURVE",
"641 259.358 OFFCURVE",
"581 291 OFFCURVE",
"514 291 CURVE",
"457.914 291 OFFCURVE",
"421.737 267.297 OFFCURVE",
"404.692 225.462 CURVE",
"374.839 153.814 OFFCURVE",
"317 4.39614 OFFCURVE",
"317 -109 CURVE",
"317 -141 OFFCURVE",
"337.152 -161 OFFCURVE"
);
}
);
width = 768;
}
);
unicode = 003B;
},
{
glyphname = less;
lastChange = "2013-12-29 00:27:25 -0800";
layers = (
{
layerId = "5ACEE878-7952-4CAC-A6A7-BEDE971843B4";
name = Regular;
paths = (
{
closed = 1;
nodes = (
"936 126 CURVE SMOOTH",
"991.999 126 OFFCURVE",
"1039 153 OFFCURVE",
"1039 205 CURVE SMOOTH",
"1039 287 OFFCURVE",
"968.999 351 OFFCURVE",
"909 373 CURVE SMOOTH",
"254 613 LINE",
"1056 872 LINE SMOOTH",
"1100 885 OFFCURVE",
"1134 907 OFFCURVE",
"1134 962 CURVE SMOOTH",
"1134 1040 OFFCURVE",
"1104 1125 OFFCURVE",
"1024 1125 CURVE SMOOTH",
"1009 1125 OFFCURVE",
"994.999 1123 OFFCURVE",
"979.999 1118 CURVE SMOOTH",
"785 1055 OFFCURVE",
"576 960 OFFCURVE",
"394 880 CURVE SMOOTH",
"274 827 OFFCURVE",
"58 798 OFFCURVE",
"58 626 CURVE SMOOTH",
"58 388 OFFCURVE",
"300 340 OFFCURVE",
"493 275 CURVE SMOOTH",
"629 229 OFFCURVE",
"771 126 OFFCURVE"
);
}
);
width = 1184;
},
{
layerId = "DE4BB00D-BABA-4D36-9D9A-44FD0E91C3DF";
name = Light;
paths = (
{
closed = 1;
nodes = (
"936 156 CURVE",
"980.002 156 OFFCURVE",
"1009 174.351 OFFCURVE",
"1009 205 CURVE",
"1009 277.142 OFFCURVE",
"987.291 325.774 OFFCURVE",
"902.82 343.644 CURVE",
"674.465 391.718 OFFCURVE",
"168.09 589.203 OFFCURVE",
"228.39 622.884 CURVE",
"198.35 681.665 OFFCURVE",
"976.208 877.025 OFFCURVE",
"1046.51 900.46 CURVE",
"1099.52 918.129 OFFCURVE",
"1104 924.028 OFFCURVE",
"1104 962 CURVE",
"1104 1047.19 OFFCURVE",
"1055.69 1108.34 OFFCURVE",
"989.979 1089.66 CURVE",
"421.171 854.227 OFFCURVE",
"95.8798 720.906 OFFCURVE",
"87.8972 623.518 CURVE",
"69.3262 399.782 OFFCURVE",
"771.929 156 OFFCURVE"
);
}
);
width = 1184;
}
);
unicode = 003C;
},
{
glyphname = equal;
lastChange = "2013-12-29 00:27:25 -0800";
layers = (
{
layerId = "5ACEE878-7952-4CAC-A6A7-BEDE971843B4";
name = Regular;
paths = (
{
closed = 1;
nodes = (
"518 287 CURVE SMOOTH",
"1312 287 LINE SMOOTH",
"1511 287 OFFCURVE",
"1621 320 OFFCURVE",
"1621 450 CURVE SMOOTH",
"1621 497 OFFCURVE",
"1588 512 OFFCURVE",
"1539 512 CURVE SMOOTH",
"1208 512 LINE SMOOTH",
"1092 512 OFFCURVE",
"859 499 OFFCURVE",
"591 511 CURVE SMOOTH",
"479 516 OFFCURVE",
"349 505 OFFCURVE",
"349 415 CURVE SMOOTH",
"349 321 OFFCURVE",
"410 287 OFFCURVE"
);
},
{
closed = 1;
nodes = (
"518 687 CURVE SMOOTH",
"1410 701 LINE SMOOTH",
"1546 703 OFFCURVE",
"1656 734 OFFCURVE",
"1656 834 CURVE SMOOTH",
"1656 911 OFFCURVE",
"1626 931 OFFCURVE",
"1591 939 CURVE SMOOTH",
"1417 979 OFFCURVE",
"1235 917 OFFCURVE",
"887 925 CURVE SMOOTH",
"626 932 LINE SMOOTH",
"514 935 OFFCURVE",
"384 919 OFFCURVE",
"384 809 CURVE SMOOTH",
"384 735 OFFCURVE",
"445 686 OFFCURVE"
);
}
);
width = 1707;
},
{
layerId = "DE4BB00D-BABA-4D36-9D9A-44FD0E91C3DF";
name = Light;
paths = (
{
closed = 1;
nodes = (
"518 317 CURVE",
"1312 317 LINE",
"1502.6 317 OFFCURVE",
"1591 346.32 OFFCURVE",
"1591 450 CURVE",
"1591 473.703 OFFCURVE",
"1577.51 482 OFFCURVE",
"1539 482 CURVE",
"1208 482 LINE",
"1092.84 482 OFFCURVE",
"859.165 468.963 OFFCURVE",
"589.662 481.03 CURVE",
"481.632 485.853 OFFCURVE",
"379 475.369 OFFCURVE",
"379 415 CURVE",
"379 342.621 OFFCURVE",
"421.794 317 OFFCURVE"
);
},
{
closed = 1;
nodes = (
"535 744 CURVE",
"1427 758 LINE",
"1555 760 OFFCURVE",
"1644 788 OFFCURVE",
"1644 861 CURVE",
"1644 918 OFFCURVE",
"1628 931 OFFCURVE",
"1602 937 CURVE",
"1436 975 OFFCURVE",
"1257 914 OFFCURVE",
"904 922 CURVE",
"643 929 LINE",
"535 932 OFFCURVE",
"432 917 OFFCURVE",
"432 836 CURVE",
"432 780 OFFCURVE",
"477 743 OFFCURVE"
);
}
);
width = 1707;
}
);
unicode = 003D;
},
{
glyphname = greater;
lastChange = "2013-12-29 00:27:25 -0800";
layers = (
{
layerId = "5ACEE878-7952-4CAC-A6A7-BEDE971843B4";
name = Regular;
paths = (
{
closed = 1;
nodes = (
"266 106 CURVE SMOOTH",
"386 106 OFFCURVE",
"495 170 OFFCURVE",
"590 210 CURVE SMOOTH",
"801 299 OFFCURVE",
"1134 340 OFFCURVE",
"1134 626 CURVE SMOOTH",
"1134 791 OFFCURVE",
"951 808 OFFCURVE",
"836 863 CURVE SMOOTH",
"768 895 OFFCURVE",
"688 925 OFFCURVE",
"610 957 CURVE SMOOTH",
"508 998.999 OFFCURVE",
"369 1085 OFFCURVE",
"248 1085 CURVE SMOOTH",
"168 1085 OFFCURVE",
"138 999.999 OFFCURVE",
"138 922 CURVE SMOOTH",
"138 867 OFFCURVE",
"172 846 OFFCURVE",
"216 832 CURVE SMOOTH",
"938 613 LINE",
"253 353 LINE SMOOTH",
"201 333 OFFCURVE",
"163 260 OFFCURVE",
"163 185 CURVE SMOOTH",
"163 132 OFFCURVE",
"210 106 OFFCURVE"
);
}
);
width = 1184;
},
{
layerId = "DE4BB00D-BABA-4D36-9D9A-44FD0E91C3DF";
name = Light;
paths = (
{
closed = 1;
nodes = (
"266 136 CURVE",
"377.844 136 OFFCURVE",
"481.525 196.877 OFFCURVE",
"578.358 237.649 CURVE",
"788.255 326.184 OFFCURVE",
"1104 441.158 OFFCURVE",
"1104 626 CURVE",
"1104 759 OFFCURVE",
"884 811 OFFCURVE",
"598.613 929.245 CURVE",
"494.305 972.194 OFFCURVE",
"360.47 1055 OFFCURVE",
"248 1055 CURVE",
"193.221 1055 OFFCURVE",
"168 990.863 OFFCURVE",
"168 922 CURVE",
"168 884.772 OFFCURVE",
"176.68 877.323 OFFCURVE",
"225.796 860.356 CURVE",
"284.119 840.208 OFFCURVE",
"923.803 683.135 OFFCURVE",
"977.942 616.508 CURVE",
"980.535 493.057 OFFCURVE",
"359.769 352.882 OFFCURVE",
"248.549 323.965 CURVE",
"193.684 309.715 OFFCURVE",
"193 259.795 OFFCURVE",
"193 185 CURVE",
"193 153.676 OFFCURVE",
"221.738 136 OFFCURVE"
);
}
);
width = 1184;
}
);
unicode = 003E;
},
{
glyphname = question;
lastChange = "2013-12-29 00:27:25 -0800";
layers = (
{
layerId = "5ACEE878-7952-4CAC-A6A7-BEDE971843B4";
name = Regular;
paths = (
{
closed = 1;
nodes = (
"558 0 CURVE SMOOTH",
"677 0 OFFCURVE",
"746 76 OFFCURVE",
"746 191 CURVE SMOOTH",
"746 297 OFFCURVE",
"685 353 OFFCURVE",
"577 353 CURVE SMOOTH",
"460 353 OFFCURVE",
"394 277 OFFCURVE",
"394 162 CURVE SMOOTH",
"394 55 OFFCURVE",
"452 0 OFFCURVE"
);
},
{
closed = 1;
nodes = (
"648 624 OFFCURVE",
"662 714 CURVE SMOOTH",
"696 928 OFFCURVE",
"1193 1024 OFFCURVE",
"1208 1444 CURVE SMOOTH",
"1224 1913 OFFCURVE",
"461 2076 OFFCURVE",
"277 1510 CURVE SMOOTH",
"250 1428 OFFCURVE",
"389 1362 OFFCURVE",
"417 1420 CURVE SMOOTH",
"574 1742 OFFCURVE",
"973 1707 OFFCURVE",
"963 1425 CURVE SMOOTH",
"961 1376 OFFCURVE",
"951 1333 OFFCURVE",
"930 1296 CURVE SMOOTH",
"817 1097 OFFCURVE",
"551 1004 OFFCURVE",
"541 700 CURVE SMOOTH",
"538 630 OFFCURVE"
);
}
);
width = 1292;
},
{
layerId = "DE4BB00D-BABA-4D36-9D9A-44FD0E91C3DF";
name = Light;
paths = (
{
closed = 1;
nodes = (
"558 0 CURVE",
"660 0 OFFCURVE",
"716 62 OFFCURVE",
"716 161 CURVE",
"716 250 OFFCURVE",
"669 293 OFFCURVE",
"577 293 CURVE",
"478 293 OFFCURVE",
"424 232 OFFCURVE",
"424 132 CURVE",
"424 42 OFFCURVE",
"468 0 OFFCURVE"
);
},
{
closed = 1;
nodes = (
"602 472 CURVE",
"638 472 OFFCURVE",
"659 507 OFFCURVE",
"677 551 CURVE",
"776 799 OFFCURVE",
"1131 842 OFFCURVE",
"1131 1264 CURVE",
"1131 1456.89 OFFCURVE",
"977 1602 OFFCURVE",
"783 1602 CURVE",
"652 1602 OFFCURVE",
"449 1526 OFFCURVE",
"439 1370 CURVE",
"439 1318.2 OFFCURVE",
"469.111 1270 OFFCURVE",
"511 1270 CURVE",
"599.236 1270 OFFCURVE",
"627 1457 OFFCURVE",
"782 1457 CURVE",
"894 1457 OFFCURVE",
"972 1374 OFFCURVE",
"972 1257 CURVE",
"972 983 OFFCURVE",
"544 899 OFFCURVE",
"544 506 CURVE",
"544 484 OFFCURVE",
"566 472 OFFCURVE"
);
}
);
width = 1292;
}
);
unicode = 003F;
},
{
glyphname = at;
lastChange = "2013-12-29 00:27:25 -0800";
layers = (
{
layerId = "5ACEE878-7952-4CAC-A6A7-BEDE971843B4";
name = Regular;
paths = (
{
closed = 1;
nodes = (
"896 -362 CURVE SMOOTH",
"1159 -362 OFFCURVE",
"1398 -330 OFFCURVE",
"1598 -256 CURVE SMOOTH",
"1683 -224 OFFCURVE",
"1839 -189 OFFCURVE",
"1839 -75 CURVE SMOOTH",
"1839 4 OFFCURVE",
"1794 35 OFFCURVE",
"1733 7 CURVE SMOOTH",
"1537 -83 OFFCURVE",
"1290 -128 OFFCURVE",
"991.999 -128 CURVE SMOOTH",
"668 -128 OFFCURVE",
"400 -51 OFFCURVE",
"400 261 CURVE SMOOTH",
"400 669 OFFCURVE",
"737 1376 OFFCURVE",
"1344 1376 CURVE SMOOTH",
"1696 1376 OFFCURVE",
"1888 1190 OFFCURVE",
"1888 832 CURVE SMOOTH",
"1888 628 OFFCURVE",
"1784 289 OFFCURVE",
"1580 289 CURVE SMOOTH",
"1555 289 OFFCURVE",
"1548 313 OFFCURVE",
"1548 340 CURVE SMOOTH",
"1548 452 OFFCURVE",
"1706 754 OFFCURVE",
"1706 1018 CURVE SMOOTH",
"1706 1209 OFFCURVE",
"1604 1179 OFFCURVE",
"1556 1179 CURVE",
"1557 1184 OFFCURVE",
"1557 1189 OFFCURVE",
"1557 1194 CURVE SMOOTH",
"1557 1256 OFFCURVE",
"1341 1253 OFFCURVE",
"1202 1202 CURVE SMOOTH",
"907 1094 OFFCURVE",
"620 776 OFFCURVE",
"620 378 CURVE SMOOTH",
"620 170 OFFCURVE",
"746 32 OFFCURVE",
"950 32 CURVE SMOOTH",
"1161 32 OFFCURVE",
"1290 196 OFFCURVE",
"1363 345 CURVE",
"1342 235 OFFCURVE",
"1330 54 OFFCURVE",
"1475 54 CURVE SMOOTH",
"1767 54 OFFCURVE",
"2138 389 OFFCURVE",
"2138 870 CURVE SMOOTH",
"2138 1333 OFFCURVE",
"1804 1568 OFFCURVE",
"1344 1568 CURVE SMOOTH",
"743 1568 OFFCURVE",
"112 961 OFFCURVE",
"112 215 CURVE SMOOTH",
"112 -208 OFFCURVE",
"461 -362 OFFCURVE"
);
},
{
closed = 1;
nodes = (
"1027 227 CURVE SMOOTH",
"871 227 OFFCURVE",
"886 395 OFFCURVE",
"916 512 CURVE SMOOTH",
"1010 875 OFFCURVE",
"1229 1093 OFFCURVE",
"1486 1029 CURVE",
"1355 578 LINE SMOOTH",
"1313 434 OFFCURVE",
"1206 227 OFFCURVE"
);
}
);
width = 2241;
},
{
layerId = "DE4BB00D-BABA-4D36-9D9A-44FD0E91C3DF";
name = Light;
paths = (
{
closed = 1;
nodes = (
"890 -360 CURVE",
"452 -360 OFFCURVE",
"112 -207 OFFCURVE",
"112 205 CURVE",
"112 956 OFFCURVE",
"748 1567 OFFCURVE",
"1351 1567 CURVE",
"1811 1567 OFFCURVE",
"2138 1337 OFFCURVE",
"2138 880 CURVE",
"2138 401 OFFCURVE",
"1770 69 OFFCURVE",
"1486 69 CURVE",
"1371 69 OFFCURVE",
"1380 223 OFFCURVE",
"1401 333 CURVE",
"1343 352 LINE",
"1270 203 OFFCURVE",
"1145 47 OFFCURVE",
"945 47 CURVE",
"753 47 OFFCURVE",
"636 174 OFFCURVE",
"636 373 CURVE",
"636 766 OFFCURVE",
"922 1086 OFFCURVE",
"1216 1193 CURVE",
"1318 1231 OFFCURVE",
"1540 1222 OFFCURVE",
"1540 1213 CURVE",
"1540 1221 OFFCURVE",
"1540 1234 OFFCURVE",
"1541 1262 CURVE",
"1534 1173 LINE",
"1596 1148 OFFCURVE",
"1693 1227 OFFCURVE",
"1693 1031 CURVE",
"1693 768 OFFCURVE",
"1531 457 OFFCURVE",
"1531 334 CURVE",
"1531 299 OFFCURVE",
"1543 250 OFFCURVE",
"1594 250 CURVE",
"1832 250 OFFCURVE",
"1942 621 OFFCURVE",
"1942 840 CURVE",
"1942 1227 OFFCURVE",
"1730 1432 OFFCURVE",
"1351 1432 CURVE",
"701 1432 OFFCURVE",
"318 684 OFFCURVE",
"318 252 CURVE",
"318 -95 OFFCURVE",
"580 -180 OFFCURVE",
"921 -180 CURVE",
"1231 -180 OFFCURVE",
"1559 -133 OFFCURVE",
"1765 -38 CURVE",
"1806 -19 OFFCURVE",
"1831 -35 OFFCURVE",
"1831 -94 CURVE",
"1831 -187 OFFCURVE",
"1692 -217 OFFCURVE",
"1602 -252 CURVE",
"1399 -327 OFFCURVE",
"1159 -360 OFFCURVE"
);
},
{
closed = 1;
nodes = (
"1024 186 CURVE",
"829 186 OFFCURVE",
"849 395 OFFCURVE",
"880 518 CURVE",
"984 919 OFFCURVE",
"1236 1161 OFFCURVE",
"1536 1064 CURVE",
"1392 570 LINE",
"1348 419 OFFCURVE",
"1228 186 OFFCURVE"
);
}
);
width = 2241;
}
);
unicode = 0040;
},
{
glyphname = A;
lastChange = "2013-12-29 03:05:10 -0800";
layers = (
{
layerId = "5ACEE878-7952-4CAC-A6A7-BEDE971843B4";
name = Regular;
paths = (
{
closed = 1;
nodes = (
"803 2030 OFFCURVE",
"130 1443 OFFCURVE",
"150 577 CURVE SMOOTH",
"158 233 OFFCURVE",
"304 -175 OFFCURVE",
"812 -175 CURVE SMOOTH",
"1070 -175 OFFCURVE",
"1315 51 OFFCURVE",
"1389 253 CURVE",
"1389 253 OFFCURVE",
"1385 97 OFFCURVE",
"1385 70 CURVE SMOOTH",
"1385 -53 OFFCURVE",
"1449 -163 OFFCURVE",
"1573 -163 CURVE SMOOTH",
"1710 -163 OFFCURVE",
"1878 -78 OFFCURVE",
"1964 23 CURVE SMOOTH",
"1977 39 OFFCURVE",
"1983 58 OFFCURVE",
"1983 77 CURVE SMOOTH",
"1983 132 OFFCURVE",
"1947 184 OFFCURVE",
"1903 184 CURVE SMOOTH",
"1894 184 OFFCURVE",
"1885 183 OFFCURVE",
"1872 172 CURVE SMOOTH",
"1811 118 OFFCURVE",
"1697 46 OFFCURVE",
"1646 46 CURVE SMOOTH",
"1615 46 OFFCURVE",
"1598 78 OFFCURVE",
"1598 152 CURVE SMOOTH",
"1598 220 OFFCURVE",
"1613 324 OFFCURVE",
"1645 472 CURVE SMOOTH",
"1848 1398 LINE",
"1850 1405 OFFCURVE",
"1850 1412 OFFCURVE",
"1850 1418 CURVE SMOOTH",
"1850 1484 OFFCURVE",
"1776 1528 OFFCURVE",
"1711 1528 CURVE SMOOTH",
"1661 1526 OFFCURVE",
"1625 1506 OFFCURVE",
"1615 1459 CURVE SMOOTH",
"1428 634 LINE SMOOTH",
"1358 324 OFFCURVE",
"1151 49 OFFCURVE",
"849 49 CURVE SMOOTH",
"536 49 OFFCURVE",
"435 308 OFFCURVE",
"435 580 CURVE SMOOTH",
"435 1191 OFFCURVE",
"986 1768 OFFCURVE",
"1505 1768 CURVE SMOOTH",
"1818 1768 OFFCURVE",
"1972 1602 OFFCURVE",
"2065 1535 CURVE",
"2088 1517 OFFCURVE",
"2112 1509 OFFCURVE",
"2134 1509 CURVE SMOOTH",
"2186 1509 OFFCURVE",
"2229 1553 OFFCURVE",
"2229 1607 CURVE SMOOTH",
"2229 1632 OFFCURVE",
"2220 1663 OFFCURVE",
"2190 1694 CURVE SMOOTH",
"1992 1900 OFFCURVE",
"1708 2030 OFFCURVE",
"1517 2030 CURVE SMOOTH"
);
}
);
width = 1970;
},
{
anchors = (
{
name = top;
position = "{1475, 1718}";
}
);
layerId = "DE4BB00D-BABA-4D36-9D9A-44FD0E91C3DF";
name = Light;
paths = (
{
closed = 1;
nodes = (
"825 1940 OFFCURVE",
"190 1352 OFFCURVE",
"190 577 CURVE SMOOTH",
"190 253 OFFCURVE",
"333 -135 OFFCURVE",
"812 -135 CURVE SMOOTH",
"1065 -135 OFFCURVE",
"1259 -23 OFFCURVE",
"1381 215 CURVE",
"1381 215 OFFCURVE",
"1375 113 OFFCURVE",
"1375 90 CURVE SMOOTH",
"1375 -79 OFFCURVE",
"1464 -123 OFFCURVE",
"1573 -123 CURVE SMOOTH",
"1696 -123 OFFCURVE",
"1824 -54 OFFCURVE",
"1904 39 CURVE",
"1910 47 OFFCURVE",
"1913 56 OFFCURVE",
"1913 66 CURVE SMOOTH",
"1913 97 OFFCURVE",
"1887 132 OFFCURVE",
"1864 132 CURVE SMOOTH",
"1858 132 OFFCURVE",
"1852 130 OFFCURVE",
"1847 125 CURVE SMOOTH",
"1787 69 OFFCURVE",
"1713 6 OFFCURVE",
"1646 6 CURVE",
"1565 3 OFFCURVE",
"1536 38 OFFCURVE",
"1536 111 CURVE SMOOTH",
"1536 190 OFFCURVE",
"1569 313 OFFCURVE",
"1606 481 CURVE SMOOTH",
"1809 1406 LINE SMOOTH",
"1810 1410 OFFCURVE",
"1810 1413 OFFCURVE",
"1810 1417 CURVE SMOOTH",
"1810 1459 OFFCURVE",
"1756 1488 OFFCURVE",
"1712 1488 CURVE SMOOTH",
"1684 1488 OFFCURVE",
"1660 1476 OFFCURVE",
"1654 1450 CURVE SMOOTH",
"1467 625 LINE SMOOTH",
"1394 303 OFFCURVE",
"1175 9 OFFCURVE",
"849 9 CURVE SMOOTH",
"508 9 OFFCURVE",
"395 288 OFFCURVE",
"395 580 CURVE SMOOTH",
"395 1214 OFFCURVE",
"986 1778 OFFCURVE",
"1526 1778 CURVE SMOOTH",
"1838 1778 OFFCURVE",
"2056 1588 OFFCURVE",
"2072 1575 CURVE SMOOTH",
"2094 1557 OFFCURVE",
"2114 1550 OFFCURVE",
"2133 1550 CURVE SMOOTH",
"2166 1550 OFFCURVE",
"2190 1574 OFFCURVE",
"2190 1605 CURVE SMOOTH",
"2190 1624 OFFCURVE",
"2182 1643 OFFCURVE",
"2161 1666 CURVE SMOOTH",
"1972 1863 OFFCURVE",
"1699 1940 OFFCURVE",
"1517 1940 CURVE SMOOTH"
);
}
);
width = 1895.65;
}
);
unicode = 0041;
},
{
glyphname = B;
lastChange = "2013-12-29 02:46:06 -0800";
layers = (
{
layerId = "5ACEE878-7952-4CAC-A6A7-BEDE971843B4";
name = Regular;
paths = (
{
closed = 1;
nodes = (
"529 -176 CURVE SMOOTH",
"1018 -176 OFFCURVE",
"1554 174 OFFCURVE",
"1554 550 CURVE SMOOTH",
"1554 758 OFFCURVE",
"1360 890 OFFCURVE",
"1160 912 CURVE",
"1535 946 OFFCURVE",
"1709 1188 OFFCURVE",
"1733 1372 CURVE SMOOTH",
"1772 1672 OFFCURVE",
"1465 1977 OFFCURVE",
"915 1977 CURVE SMOOTH",
"475 1977 OFFCURVE",
"222 1812 OFFCURVE",
"47 1641 CURVE SMOOTH",
"-41 1555 OFFCURVE",
"87 1368 OFFCURVE",
"237 1501 CURVE SMOOTH",
"404 1649 OFFCURVE",
"588 1753 OFFCURVE",
"925 1753 CURVE SMOOTH",
"1279 1753 OFFCURVE",
"1440 1579 OFFCURVE",
"1440 1398 CURVE SMOOTH",
"1440 1255 OFFCURVE",
"1317 1014 OFFCURVE",
"907 1019 CURVE SMOOTH",
"822 1020 LINE SMOOTH",
"754 1021 OFFCURVE",
"699 1005 OFFCURVE",
"699 938 CURVE SMOOTH",
"698 767 OFFCURVE",
"1286 901 OFFCURVE",
"1286 535 CURVE SMOOTH",
"1286 298 OFFCURVE",
"929 24 OFFCURVE",
"522 24 CURVE SMOOTH",
"447 24 OFFCURVE",
"447 42 OFFCURVE",
"447 102 CURVE SMOOTH",
"447 510 OFFCURVE",
"524 1194 OFFCURVE",
"701 1432 CURVE",
"668 1487 OFFCURVE",
"628 1514 OFFCURVE",
"579 1514 CURVE SMOOTH",
"220 1514 OFFCURVE",
"159 398 OFFCURVE",
"159 4 CURVE SMOOTH",
"159 -112 OFFCURVE",
"303 -176 OFFCURVE"
);
}
);
width = 1642;
},
{
layerId = "DE4BB00D-BABA-4D36-9D9A-44FD0E91C3DF";
name = Light;
paths = (
{
closed = 1;
nodes = (
"559 -176 CURVE",
"1030 -176 OFFCURVE",
"1544 162 OFFCURVE",
"1544 510 CURVE",
"1544 693 OFFCURVE",
"1430 843 OFFCURVE",
"1232 897 CURVE",
"1647 971 OFFCURVE",
"1740 1292 OFFCURVE",
"1740 1420 CURVE",
"1740 1705 OFFCURVE",
"1473 1979 OFFCURVE",
"945 1979 CURVE",
"519 1979 OFFCURVE",
"276 1822 OFFCURVE",
"105 1655 CURVE",
"49 1600 OFFCURVE",
"133 1478 OFFCURVE",
"240 1573 CURVE",
"411 1724 OFFCURVE",
"607 1835 OFFCURVE",
"955 1835 CURVE",
"1333 1835 OFFCURVE",
"1537 1643 OFFCURVE",
"1537 1440 CURVE",
"1537 1281 OFFCURVE",
"1377 992 OFFCURVE",
"937 997 CURVE",
"851 998 LINE",
"793 999 OFFCURVE",
"769 971 OFFCURVE",
"769 938 CURVE",
"768 777 OFFCURVE",
"1356 890 OFFCURVE",
"1356 495 CURVE",
"1356 232 OFFCURVE",
"979 -56 OFFCURVE",
"552 -56 CURVE",
"437 -56 OFFCURVE",
"437 2 OFFCURVE",
"437 62 CURVE",
"437 460 OFFCURVE",
"511 1210 OFFCURVE",
"683 1475 CURVE",
"660 1504 OFFCURVE",
"636 1516 OFFCURVE",
"609 1516 CURVE",
"296 1516 OFFCURVE",
"229 349 OFFCURVE",
"229 -36 CURVE",
"229 -120 OFFCURVE",
"347 -176 OFFCURVE"
);
}
);
width = 1628;
}
);
unicode = 0042;
},
{
glyphname = C;
lastChange = "2013-12-29 00:59:57 -0800";
layers = (
{
layerId = "5ACEE878-7952-4CAC-A6A7-BEDE971843B4";
name = Regular;
paths = (
{
closed = 1;
nodes = (
"775 -275 CURVE SMOOTH",
"1153 -275 OFFCURVE",
"1593 -14 OFFCURVE",
"1707 331 CURVE SMOOTH",
"1709 337 OFFCURVE",
"1710 342 OFFCURVE",
"1710 347 CURVE SMOOTH",
"1710 383 OFFCURVE",
"1668 405 OFFCURVE",
"1639 405 CURVE SMOOTH",
"1626 405 OFFCURVE",
"1614 402 OFFCURVE",
"1604 393 CURVE",
"1391 185 OFFCURVE",
"1191 -51 OFFCURVE",
"838 -51 CURVE SMOOTH",
"588 -51 OFFCURVE",
"429 142 OFFCURVE",
"432 502 CURVE SMOOTH",
"436 952 OFFCURVE",
"739 1618 OFFCURVE",
"1176 1618 CURVE SMOOTH",
"1320 1618 OFFCURVE",
"1400 1536 OFFCURVE",
"1400 1394 CURVE SMOOTH",
"1400 1184 OFFCURVE",
"1238 996.999 OFFCURVE",
"1033 996.999 CURVE SMOOTH",
"932 996.999 OFFCURVE",
"863 985.999 OFFCURVE",
"863 907 CURVE SMOOTH",
"863 795 OFFCURVE",
"923 786 OFFCURVE",
"1049 786 CURVE SMOOTH",
"1356 786 OFFCURVE",
"1624 1099 OFFCURVE",
"1624 1413 CURVE SMOOTH",
"1624 1667 OFFCURVE",
"1459 1842 OFFCURVE",
"1211 1842 CURVE SMOOTH",
"603 1842 OFFCURVE",
"155 1136 OFFCURVE",
"144 482 CURVE SMOOTH",
"135 -61 OFFCURVE",
"458 -275 OFFCURVE"
);
}
);
width = 1648;
},
{
layerId = "DE4BB00D-BABA-4D36-9D9A-44FD0E91C3DF";
name = Light;
paths = (
{
closed = 1;
nodes = (
"775 -272 CURVE",
"1188 -272 OFFCURVE",
"1550 -28 OFFCURVE",
"1685 290 CURVE",
"1687 297 OFFCURVE",
"1688 311 OFFCURVE",
"1676 323 CURVE SMOOTH",
"1670 329 OFFCURVE",
"1659 333 OFFCURVE",
"1649 333 CURVE",
"1641 333 OFFCURVE",
"1633 328 OFFCURVE",
"1630 325 CURVE",
"1418 91 OFFCURVE",
"1209 -128 OFFCURVE",
"838 -128 CURVE",
"563 -128 OFFCURVE",
"389 84 OFFCURVE",
"392 502.333 CURVE",
"396.131 966.867 OFFCURVE",
"718 1695 OFFCURVE",
"1187 1695 CURVE",
"1354 1695 OFFCURVE",
"1451 1595 OFFCURVE",
"1451 1431 CURVE",
"1451 1200 OFFCURVE",
"1262.32 956.999 OFFCURVE",
"1033 956.999 CURVE",
"937.208 956.999 OFFCURVE",
"903 950 OFFCURVE",
"903 888 CURVE",
"903 831 OFFCURVE",
"928.015 826 OFFCURVE",
"1049 826 CURVE",
"1331.62 826 OFFCURVE",
"1595 1156 OFFCURVE",
"1595 1450 CURVE",
"1595 1682 OFFCURVE",
"1447 1839 OFFCURVE",
"1222 1839 CURVE",
"642 1839 OFFCURVE",
"194.704 1118.09 OFFCURVE",
"183.994 481.327 CURVE",
"175 -71 OFFCURVE",
"476 -272 OFFCURVE"
);
}
);
width = 1648;
}
);
unicode = 0043;
},
{
glyphname = D;
lastChange = "2013-12-29 01:03:20 -0800";
layers = (
{
layerId = "5ACEE878-7952-4CAC-A6A7-BEDE971843B4";
name = Regular;
paths = (
{
closed = 1;
nodes = (
"547 -139 CURVE SMOOTH",
"981 -139 OFFCURVE",
"1583 240 OFFCURVE",
"1583 1038 CURVE SMOOTH",
"1583 1538 OFFCURVE",
"1142 1796 OFFCURVE",
"594 1806 CURVE SMOOTH",
"322 1811 OFFCURVE",
"136 1715 OFFCURVE",
"-11 1540 CURVE SMOOTH",
"-27 1521 OFFCURVE",
"-101 1392 OFFCURVE",
"-101 1299 CURVE SMOOTH",
"-101 1257 OFFCURVE",
"-80 1204 OFFCURVE",
"-26 1204 CURVE SMOOTH",
"38 1204 OFFCURVE",
"113 1345 OFFCURVE",
"165 1400 CURVE SMOOTH",
"297 1540 OFFCURVE",
"472 1580 OFFCURVE",
"605 1577 CURVE SMOOTH",
"1002 1567 OFFCURVE",
"1339 1346 OFFCURVE",
"1339 1019 CURVE SMOOTH",
"1339 586 OFFCURVE",
"1014 49 OFFCURVE",
"515 49 CURVE SMOOTH",
"426 49 OFFCURVE",
"419 90 OFFCURVE",
"419 179 CURVE SMOOTH",
"419 545 OFFCURVE",
"500 1110 OFFCURVE",
"668 1336 CURVE",
"635 1391 OFFCURVE",
"595 1418 OFFCURVE",
"546 1418 CURVE SMOOTH",
"507 1418 OFFCURVE",
"464 1402 OFFCURVE",
"417 1369 CURVE",
"214 1071 OFFCURVE",
"159 511 OFFCURVE",
"159 14 CURVE SMOOTH",
"159 -28 OFFCURVE",
"167 -41 OFFCURVE",
"197 -55 CURVE SMOOTH",
"290 -98 OFFCURVE",
"411 -139 OFFCURVE"
);
}
);
width = 1574;
},
{
background = {
paths = (
{
closed = 1;
nodes = (
"617 -60 CURVE SMOOTH",
"706 -60 OFFCURVE",
"785 -45 OFFCURVE",
"862 -17 CURVE SMOOTH",
"1216 118 OFFCURVE",
"1473 537 OFFCURVE",
"1473 1028 CURVE SMOOTH",
"1489 1533 OFFCURVE",
"1161 1730 OFFCURVE",
"670 1730 CURVE SMOOTH",
"409 1730 OFFCURVE",
"236 1645 OFFCURVE",
"95 1478 CURVE SMOOTH",
"48 1423 OFFCURVE",
"0 1339 OFFCURVE",
"0 1258 CURVE SMOOTH",
"0 1228 OFFCURVE",
"21 1198 OFFCURVE",
"44 1198 CURVE SMOOTH",
"105 1198 OFFCURVE",
"94 1268 OFFCURVE",
"212 1392 CURVE SMOOTH",
"352 1541 OFFCURVE",
"544 1581 OFFCURVE",
"681 1581 CURVE SMOOTH",
"1056 1581 OFFCURVE",
"1325 1397 OFFCURVE",
"1309 1009 CURVE",
"1309 944 OFFCURVE",
"1300 875 OFFCURVE",
"1285 805 CURVE SMOOTH",
"1212 484 OFFCURVE",
"996 48 OFFCURVE",
"585 48 CURVE SMOOTH",
"462 48 OFFCURVE",
"447 48 OFFCURVE",
"449 99 CURVE",
"449 456 OFFCURVE",
"533 1119 OFFCURVE",
"695 1361 CURVE",
"673 1390 OFFCURVE",
"649 1402 OFFCURVE",
"622 1402 CURVE SMOOTH",
"593 1402 OFFCURVE",
"560 1391 OFFCURVE",
"522 1365 CURVE",
"328 1075 OFFCURVE",
"269 545 OFFCURVE",
"269 53 CURVE SMOOTH",
"269 26 OFFCURVE",
"268 27 OFFCURVE",
"284 20 CURVE SMOOTH",
"375 -22 OFFCURVE",
"488 -60 OFFCURVE"
);
}
);
};
layerId = "DE4BB00D-BABA-4D36-9D9A-44FD0E91C3DF";
name = Light;
paths = (
{
closed = 1;
nodes = (
"528 -113 CURVE SMOOTH",
"1112 -92 OFFCURVE",
"1596 351 OFFCURVE",
"1576 1018 CURVE SMOOTH",
"1561 1523 OFFCURVE",
"1121 1800 OFFCURVE",
"630 1800 CURVE SMOOTH",
"369 1800 OFFCURVE",
"156 1715 OFFCURVE",
"15 1548 CURVE SMOOTH",
"-32 1493 OFFCURVE",
"-80 1409 OFFCURVE",
"-80 1328 CURVE SMOOTH",
"-80 1298 OFFCURVE",
"-59 1268 OFFCURVE",
"-36 1268 CURVE SMOOTH",
"25 1268 OFFCURVE",
"14 1338 OFFCURVE",
"132 1462 CURVE SMOOTH",
"272 1611 OFFCURVE",
"464 1651 OFFCURVE",
"601 1651 CURVE SMOOTH",
"1096 1651 OFFCURVE",
"1387 1387 OFFCURVE",
"1412 999 CURVE SMOOTH",
"1442 527 OFFCURVE",
"1083 -2 OFFCURVE",
"505 -2 CURVE SMOOTH",
"382 -2 OFFCURVE",
"367 -2 OFFCURVE",
"369 49 CURVE",
"369 406 OFFCURVE",
"453 1189 OFFCURVE",
"615 1431 CURVE",
"593 1460 OFFCURVE",
"569 1472 OFFCURVE",
"542 1472 CURVE SMOOTH",
"513 1472 OFFCURVE",
"480 1461 OFFCURVE",
"442 1435 CURVE",
"248 1145 OFFCURVE",
"199 456 OFFCURVE",
"199 -36 CURVE SMOOTH",
"199 -63 OFFCURVE",
"198 -63 OFFCURVE",
"214 -69 CURVE SMOOTH",
"275 -92 OFFCURVE",
"399 -118 OFFCURVE"
);
}
);
width = 1634;
}
);
unicode = 0044;
},
{
glyphname = E;
lastChange = "2013-12-29 00:27:25 -0800";
layers = (
{
layerId = "5ACEE878-7952-4CAC-A6A7-BEDE971843B4";
name = Regular;
paths = (
{
closed = 1;
nodes = (
"740 -303 CURVE SMOOTH",
"1158 -303 OFFCURVE",
"1527 -66 OFFCURVE",
"1780 250 CURVE SMOOTH",
"1861 351 OFFCURVE",
"1740 534 OFFCURVE",
"1629 401 CURVE SMOOTH",
"1399 125 OFFCURVE",
"1102 -62 OFFCURVE",
"749 -62 CURVE SMOOTH",
"545 -62 OFFCURVE",
"433 37 OFFCURVE",
"418 239 CURVE SMOOTH",
"399 502 OFFCURVE",
"618 694 OFFCURVE",
"1047 694 CURVE SMOOTH",
"1239 694 OFFCURVE",
"1258 914 OFFCURVE",
"1117 945 CURVE SMOOTH",
"941 983.999 OFFCURVE",
"593 1077 OFFCURVE",
"616 1359 CURVE SMOOTH",
"648 1751 OFFCURVE",
"1313 1680 OFFCURVE",
"1533 1501 CURVE",
"1453 1313 LINE SMOOTH",
"1412.5 1218.5 OFFCURVE",
"1494.25 1167.5 OFFCURVE",
"1583.75 1181.25 CURVE SMOOTH",
"1673.25 1195 OFFCURVE",
"1770.5 1273.5 OFFCURVE",
"1761 1438 CURVE SMOOTH",
"1743 1743 OFFCURVE",
"1363 1867 OFFCURVE",
"1038 1867 CURVE SMOOTH",
"692 1867 OFFCURVE",
"362 1742 OFFCURVE",
"332 1385 CURVE SMOOTH",
"308 1105 OFFCURVE",
"503 905 OFFCURVE",
"874 855 CURVE",
"487 845 OFFCURVE",
"119 622 OFFCURVE",
"119 233 CURVE SMOOTH",
"119 -121 OFFCURVE",
"392 -303 OFFCURVE"
);
}
);
width = 1618;
},
{
layerId = "DE4BB00D-BABA-4D36-9D9A-44FD0E91C3DF";
name = Light;
paths = (
{
closed = 1;
nodes = (
"636 -303 CURVE",
"1087 -303 OFFCURVE",
"1342 -74 OFFCURVE",
"1590 235 CURVE",
"1664 327 OFFCURVE",
"1570 418 OFFCURVE",
"1501 335 CURVE",
"1267 55 OFFCURVE",
"1048 -142 OFFCURVE",
"645 -142 CURVE",
"420 -142 OFFCURVE",
"236 -28 OFFCURVE",
"219 196 CURVE",
"198 485 OFFCURVE",
"438 734 OFFCURVE",
"888 734 CURVE",
"1032 734 OFFCURVE",
"1045 885 OFFCURVE",
"949 906 CURVE",
"771 946 OFFCURVE",
"391 1057 OFFCURVE",
"417 1374 CURVE",
"454 1787 OFFCURVE",
"1191 1756 OFFCURVE",
"1397 1552 CURVE",
"1475 1469 OFFCURVE",
"1349 1476 OFFCURVE",
"1315 1364 CURVE SMOOTH",
"1301 1319 OFFCURVE",
"1338 1247 OFFCURVE",
"1423 1247 CURVE SMOOTH",
"1489 1247 OFFCURVE",
"1592 1322 OFFCURVE",
"1583 1476 CURVE",
"1567 1731 OFFCURVE",
"1194 1867 OFFCURVE",
"879 1867 CURVE",
"544 1867 OFFCURVE",
"240 1683 OFFCURVE",
"213 1394 CURVE",
"191 1138 OFFCURVE",
"328 928 OFFCURVE",
"650 855 CURVE",
"277 801 OFFCURVE",
"0 557 OFFCURVE",
"0 193 CURVE",
"0 -134 OFFCURVE",
"306 -303 OFFCURVE"
);
}
);
width = 1419;
}
);
unicode = 0045;
},
{
glyphname = F;
lastChange = "2013-12-29 01:05:59 -0800";
layers = (
{
layerId = "5ACEE878-7952-4CAC-A6A7-BEDE971843B4";
name = Regular;
paths = (
{
closed = 1;
nodes = (
"293 -198 CURVE SMOOTH",
"768 -198 OFFCURVE",
"822 194 OFFCURVE",
"982.999 749 CURVE",
"1099 749 OFFCURVE",
"1230 768 OFFCURVE",
"1344 768 CURVE SMOOTH",
"1385 768 OFFCURVE",
"1408 815 OFFCURVE",
"1408 864 CURVE SMOOTH",
"1408 918 OFFCURVE",
"1400 960 OFFCURVE",
"1344 960 CURVE SMOOTH",
"1023 960 LINE",
"1123 1341 OFFCURVE",
"1165 1592 OFFCURVE",
"1199 1794 CURVE",
"1476 1824 OFFCURVE",
"1707 1788 OFFCURVE",
"2030 1758 CURVE SMOOTH",
"2093 1752 OFFCURVE",
"2125 1816 OFFCURVE",
"2125 1878 CURVE SMOOTH",
"2125 2046 OFFCURVE",
"1466 2018 OFFCURVE",
"1293 2018 CURVE SMOOTH",
"160 2018 OFFCURVE",
"-196 1264 OFFCURVE",
"114 816 CURVE SMOOTH",
"181 719 OFFCURVE",
"449 728 OFFCURVE",
"385 812 CURVE SMOOTH",
"97 1191 OFFCURVE",
"341 1694 OFFCURVE",
"984 1774 CURVE",
"948 1644 OFFCURVE",
"837 1191 OFFCURVE",
"771 942 CURVE",
"703 933 OFFCURVE",
"556 919 OFFCURVE",
"556 832 CURVE SMOOTH",
"556 771 OFFCURVE",
"620 749 OFFCURVE",
"681 749 CURVE SMOOTH",
"724 749 LINE",
"614 309 OFFCURVE",
"572 26 OFFCURVE",
"397 26 CURVE SMOOTH",
"277 26 OFFCURVE",
"202 97 OFFCURVE",
"89 97 CURVE SMOOTH",
"23 97 OFFCURVE",
"-21 18 OFFCURVE",
"-21 -47 CURVE SMOOTH",
"-21 -164 OFFCURVE",
"173 -198 OFFCURVE"
);
}
);
width = 1376;
},
{
layerId = "DE4BB00D-BABA-4D36-9D9A-44FD0E91C3DF";
name = Light;
paths = (
{
closed = 1;
nodes = (
"414 -198 CURVE",
"773 -198 OFFCURVE",
"885 155 OFFCURVE",
"1012 790 CURVE",
"1155 790 OFFCURVE",
"1253 792 OFFCURVE",
"1319 812 CURVE SMOOTH",
"1339 818 OFFCURVE",
"1361 839 OFFCURVE",
"1361 864 CURVE",
"1361 883 OFFCURVE",
"1357 906 OFFCURVE",
"1307 916 CURVE SMOOTH",
"1259 926 OFFCURVE",
"1159 920 OFFCURVE",
"1032 920 CURVE",
"1043 982 OFFCURVE",
"1161 1657 OFFCURVE",
"1202 1859 CURVE",
"1283 1871 OFFCURVE",
"1374 1870 OFFCURVE",
"1468 1870 CURVE",
"1544 1870 OFFCURVE",
"1800 1852 OFFCURVE",
"1909 1838 CURVE",
"1987 1832 OFFCURVE",
"2022 1858 OFFCURVE",
"2022 1918 CURVE",
"2018 2010 OFFCURVE",
"1472 2018 OFFCURVE",
"1310 2018 CURVE",
"614 2018 OFFCURVE",
"-298 1687 OFFCURVE",
"231 813 CURVE",
"278 757 OFFCURVE",
"435 726 OFFCURVE",
"360 843 CURVE SMOOTH",
"-79 1527 OFFCURVE",
"517 1779 OFFCURVE",
"1050 1859 CURVE",
"1001 1609 OFFCURVE",
"949 1246 OFFCURVE",
"886 916 CURVE",
"698 911 OFFCURVE",
"632 887 OFFCURVE",
"632 844 CURVE",
"632 810.225 OFFCURVE",
"656.223 796.167 OFFCURVE",
"735.956 789.986 CURVE SMOOTH",
"762.456 787.932 OFFCURVE",
"827 787 OFFCURVE",
"867 786 CURVE",
"830 611 OFFCURVE",
"772 -74 OFFCURVE",
"434 -74 CURVE",
"254 -74 OFFCURVE",
"309 17 OFFCURVE",
"210 17 CURVE",
"173 17 OFFCURVE",
"140 -20 OFFCURVE",
"140 -69 CURVE",
"140 -168 OFFCURVE",
"301 -198 OFFCURVE"
);
}
);
width = 1288;
}
);
unicode = 0046;
},
{
glyphname = G;
lastChange = "2013-12-29 01:06:18 -0800";
layers = (
{
layerId = "5ACEE878-7952-4CAC-A6A7-BEDE971843B4";
name = Regular;
paths = (
{
closed = 1;
nodes = (
"844 -909 CURVE SMOOTH",
"1463 -1141 OFFCURVE",
"1811 -738 OFFCURVE",
"2011 349 CURVE SMOOTH",
"2056 592 OFFCURVE",
"1993 642 OFFCURVE",
"1639 642 CURVE SMOOTH",
"1549 642 OFFCURVE",
"1462 608 OFFCURVE",
"1462 522 CURVE SMOOTH",
"1462 437 OFFCURVE",
"1524 416 OFFCURVE",
"1632 416 CURVE SMOOTH",
"1768 416 OFFCURVE",
"1791 406 OFFCURVE",
"1776 339 CURVE SMOOTH",
"1757 255 LINE",
"1190 -41 OFFCURVE",
"478 -82 OFFCURVE",
"478 590 CURVE SMOOTH",
"478 1678 OFFCURVE",
"1745 2000 OFFCURVE",
"1745 1511 CURVE SMOOTH",
"1745 1370 OFFCURVE",
"1813 1353 OFFCURVE",
"1882 1353 CURVE SMOOTH",
"1962 1353 OFFCURVE",
"2026 1383 OFFCURVE",
"2026 1502 CURVE SMOOTH",
"2026 2411 OFFCURVE",
"164 1975 OFFCURVE",
"164 558 CURVE SMOOTH",
"164 -519 OFFCURVE",
"1551 -157 OFFCURVE",
"1725 79 CURVE",
"1506 -718 OFFCURVE",
"1282 -776 OFFCURVE",
"905 -641 CURVE SMOOTH",
"778 -595 OFFCURVE",
"627 -829 OFFCURVE"
);
}
);
width = 2077;
},
{
layerId = "DE4BB00D-BABA-4D36-9D9A-44FD0E91C3DF";
name = Light;
paths = (
{
closed = 1;
nodes = (
"884 -909 CURVE SMOOTH",
"1471 -1129 OFFCURVE",
"1815 -714 OFFCURVE",
"2012 356 CURVE SMOOTH",
"2051 568 OFFCURVE",
"2011 602 OFFCURVE",
"1679 602 CURVE SMOOTH",
"1601 602 OFFCURVE",
"1542 577 OFFCURVE",
"1542 522 CURVE SMOOTH",
"1542 470 OFFCURVE",
"1575 456 OFFCURVE",
"1672 456 CURVE SMOOTH",
"1822 456 OFFCURVE",
"1879 435 OFFCURVE",
"1855 330 CURVE",
"1844 292 LINE",
"1509 0 OFFCURVE",
"440 -277 OFFCURVE",
"440 590 CURVE SMOOTH",
"440 1784 OFFCURVE",
"1825 2127 OFFCURVE",
"1825 1511 CURVE SMOOTH",
"1825 1405 OFFCURVE",
"1862 1393 OFFCURVE",
"1922 1393 CURVE SMOOTH",
"1989 1393 OFFCURVE",
"2026 1412 OFFCURVE",
"2026 1502 CURVE SMOOTH",
"2026 2402 OFFCURVE",
"244 1985 OFFCURVE",
"244 558 CURVE SMOOTH",
"244 -580 OFFCURVE",
"1651 -91 OFFCURVE",
"1815 115 CURVE",
"1573 -910 OFFCURVE",
"1258 -904 OFFCURVE",
"917 -751 CURVE",
"831 -720 OFFCURVE",
"725 -850 OFFCURVE"
);
}
);
width = 2127;
}
);
unicode = 0047;
},
{
glyphname = H;
lastChange = "2013-12-29 01:08:21 -0800";
layers = (
{
layerId = "5ACEE878-7952-4CAC-A6A7-BEDE971843B4";
name = Regular;
paths = (
{
closed = 1;
nodes = (
"2126 -208 CURVE SMOOTH",
"2205 -153 OFFCURVE",
"2124 3 OFFCURVE",
"2047 -29 CURVE SMOOTH",
"1779 -139 OFFCURVE",
"1270 -436 OFFCURVE",
"1466 380 CURVE SMOOTH",
"1649 1140 LINE SMOOTH",
"1709 1387 OFFCURVE",
"1803 1594 OFFCURVE",
"2000 1634 CURVE SMOOTH",
"2495 1734 OFFCURVE",
"2431 676 OFFCURVE",
"773 928 CURVE SMOOTH",
"656 946 OFFCURVE",
"578 756 OFFCURVE",
"725 734 CURVE SMOOTH",
"2860 414 OFFCURVE",
"2884 1983 OFFCURVE",
"2011 1870 CURVE SMOOTH",
"1818 1845 OFFCURVE",
"1570 1695 OFFCURVE",
"1434 1177 CURVE SMOOTH",
"1215 344 LINE SMOOTH",
"990.999 -509 OFFCURVE",
"1638 -547 OFFCURVE"
);
},
{
closed = 1;
nodes = (
"226 -306 CURVE SMOOTH",
"345 -326 OFFCURVE",
"380 -244 OFFCURVE",
"419 -124 CURVE SMOOTH",
"805 1076 LINE SMOOTH",
"941 1497 OFFCURVE",
"913 1862 OFFCURVE",
"584 1892 CURVE SMOOTH",
"327 1915 OFFCURVE",
"124 1751 OFFCURVE",
"41 1631 CURVE SMOOTH",
"-47 1504 OFFCURVE",
"110 1353 OFFCURVE",
"243 1507 CURVE SMOOTH",
"286 1557 OFFCURVE",
"402 1678 OFFCURVE",
"480 1678 CURVE SMOOTH",
"626 1678 OFFCURVE",
"706 1484 OFFCURVE",
"532 1014 CURVE SMOOTH",
"150 -45 LINE SMOOTH",
"72 -257 OFFCURVE",
"157 -294 OFFCURVE"
);
}
);
width = 2148;
},
{
layerId = "DE4BB00D-BABA-4D36-9D9A-44FD0E91C3DF";
name = Light;
paths = (
{
closed = 1;
nodes = (
"2003 -211 CURVE",
"2043 -184 OFFCURVE",
"1994 -89 OFFCURVE",
"1962 -102 CURVE",
"1655 -264 OFFCURVE",
"1114 -535 OFFCURVE",
"1327 353 CURVE",
"1535 1149 LINE SMOOTH",
"1645 1570 OFFCURVE",
"1724 1665 OFFCURVE",
"1896 1727 CURVE SMOOTH",
"2459 1930 OFFCURVE",
"2371 654 OFFCURVE",
"644 916 CURVE",
"569 928 OFFCURVE",
"523 786 OFFCURVE",
"608 774 CURVE",
"2631 525 OFFCURVE",
"2695 2073 OFFCURVE",
"1868 1867 CURVE SMOOTH",
"1679 1820 OFFCURVE",
"1487 1644 OFFCURVE",
"1373 1167 CURVE SMOOTH",
"1172 330 LINE",
"962 -470 OFFCURVE",
"1531 -539 OFFCURVE"
);
},
{
closed = 1;
nodes = (
"85 -303 CURVE",
"171 -318 OFFCURVE",
"196 -265 OFFCURVE",
"234 -148 CURVE",
"682 1134 LINE",
"815 1556 OFFCURVE",
"784 1871 OFFCURVE",
"495 1898 CURVE",
"227 1933 OFFCURVE",
"67 1767 OFFCURVE",
"-12 1654 CURVE",
"-74 1564 OFFCURVE",
"30 1465 OFFCURVE",
"127 1579 CURVE",
"171 1629 OFFCURVE",
"300 1755 OFFCURVE",
"395 1755 CURVE",
"623 1755 OFFCURVE",
"667 1540 OFFCURVE",
"484 1046 CURVE",
"75 -97 LINE",
"12 -268 OFFCURVE",
"38 -295 OFFCURVE"
);
}
);
width = 1983;
}
);
unicode = 0048;
},
{
glyphname = I;
lastChange = "2013-12-29 03:09:04 -0800";
layers = (
{
layerId = "5ACEE878-7952-4CAC-A6A7-BEDE971843B4";
name = Regular;
paths = (
{
closed = 1;
nodes = (
"60 -86 CURVE SMOOTH",
"104 -101 OFFCURVE",
"568 -24 OFFCURVE",
"866 -12 CURVE SMOOTH",
"1005 -6 OFFCURVE",
"1010 143 OFFCURVE",
"950 166 CURVE SMOOTH",
"890 189 OFFCURVE",
"651 176 OFFCURVE",
"618 170 CURVE",
"650 515 OFFCURVE",
"982 1649 OFFCURVE",
"1028 1654 CURVE SMOOTH",
"1136 1667 OFFCURVE",
"1395 1662 OFFCURVE",
"1419 1724 CURVE SMOOTH",
"1450 1805 OFFCURVE",
"1464 1944 OFFCURVE",
"1384 1942 CURVE SMOOTH",
"1304 1940 OFFCURVE",
"570 1923 OFFCURVE",
"496 1916 CURVE SMOOTH",
"422 1909 OFFCURVE",
"393 1712 OFFCURVE",
"430 1671 CURVE SMOOTH",
"471 1625 OFFCURVE",
"706 1648 OFFCURVE",
"805 1648 CURVE",
"630 1264 OFFCURVE",
"465 662 OFFCURVE",
"391 161 CURVE",
"299 157 OFFCURVE",
"27 132 OFFCURVE",
"6 56 CURVE SMOOTH",
"-14 -15 OFFCURVE",
"16 -71 OFFCURVE"
);
}
);
width = 982;
},
{
layerId = "DE4BB00D-BABA-4D36-9D9A-44FD0E91C3DF";
name = Light;
paths = (
{
closed = 1;
nodes = (
"74 -68 CURVE",
"107 -79 OFFCURVE",
"635 -24 OFFCURVE",
"931 -12 CURVE",
"1032 -8 OFFCURVE",
"1037 96 OFFCURVE",
"1005 108 CURVE",
"945 131 OFFCURVE",
"778 106 OFFCURVE",
"570 107 CURVE",
"650 491 OFFCURVE",
"925 1384 OFFCURVE",
"1018 1713 CURVE",
"1120 1725 OFFCURVE",
"1415 1738 OFFCURVE",
"1508 1754 CURVE SMOOTH",
"1557 1762 OFFCURVE",
"1544 1872 OFFCURVE",
"1502 1871 CURVE",
"792 1959 OFFCURVE",
"515 1842 OFFCURVE",
"442 1805 CURVE SMOOTH",
"401 1784 OFFCURVE",
"422 1664 OFFCURVE",
"456 1670 CURVE SMOOTH",
"601 1696 OFFCURVE",
"814 1697 OFFCURVE",
"864 1704 CURVE",
"680 1219 OFFCURVE",
"518 624 OFFCURVE",
"403 102 CURVE",
"351 99 OFFCURVE",
"54 93 OFFCURVE",
"39 38 CURVE",
"23 -18 OFFCURVE",
"45 -58 OFFCURVE"
);
}
);
width = 982;
}
);
unicode = 0049;
},
{
glyphname = J;
lastChange = "2013-12-29 03:13:20 -0800";
layers = (
{
background = {
paths = (
{
closed = 1;
nodes = (
"274 -754 CURVE",
"876 -779 OFFCURVE",
"1221 271 OFFCURVE",
"1236 1087 CURVE SMOOTH",
"1251 1903 OFFCURVE",
"979 1987 OFFCURVE",
"793 1987 CURVE",
"620 1987 OFFCURVE",
"222 1836 OFFCURVE",
"214 1285 CURVE SMOOTH",
"204 611 OFFCURVE",
"1361 298 OFFCURVE",
"1472 300 CURVE SMOOTH",
"1532 301 OFFCURVE",
"1590 340 OFFCURVE",
"1589 381 CURVE",
"1588 404 OFFCURVE",
"1577 414 OFFCURVE",
"1536 429 CURVE SMOOTH",
"899 663 OFFCURVE",
"470 918 OFFCURVE",
"467 1317 CURVE",
"464 1542 OFFCURVE",
"647 1789 OFFCURVE",
"797 1772 CURVE",
"947 1755 OFFCURVE",
"981 1607 OFFCURVE",
"981 1311 CURVE SMOOTH",
"981 -35 OFFCURVE",
"502 -527 OFFCURVE",
"296 -526 CURVE",
"228 -525 OFFCURVE",
"152 -458 OFFCURVE",
"153 -316 CURVE SMOOTH",
"158 332 OFFCURVE",
"768 504 OFFCURVE",
"997 487 CURVE SMOOTH",
"1048 483 OFFCURVE",
"1000 589 OFFCURVE",
"988 609 CURVE",
"976 629 OFFCURVE",
"927 632 OFFCURVE",
"883 630 CURVE",
"144 631 OFFCURVE",
"-95 16 OFFCURVE",
"-86 -281 CURVE SMOOTH",
"-79 -519 OFFCURVE",
"-38 -729 OFFCURVE"
);
}
);
};
layerId = "5ACEE878-7952-4CAC-A6A7-BEDE971843B4";
name = Regular;
paths = (
{
closed = 1;
nodes = (
"131 -267 OFFCURVE",
"229 -709 OFFCURVE",
"538 -709 CURVE SMOOTH",
"1008 -709 OFFCURVE",
"1406 548 OFFCURVE",
"1507 1445 CURVE SMOOTH",
"1508 1452 OFFCURVE",
"1508 1458 OFFCURVE",
"1508 1464 CURVE SMOOTH",
"1508 1526 OFFCURVE",
"1472 1556 OFFCURVE",
"1412 1556 CURVE SMOOTH",
"1308 1556 OFFCURVE",
"1275 1537 OFFCURVE",
"1253 1421 CURVE SMOOTH",
"1183 1032 OFFCURVE",
"828 -469 OFFCURVE",
"475 -469 CURVE SMOOTH",
"258 -469 OFFCURVE",
"295 -76 OFFCURVE",
"295 71 CURVE SMOOTH",
"295 125 OFFCURVE",
"254 166 OFFCURVE",
"213 166 CURVE SMOOTH",
"174 166 OFFCURVE",
"136 128 OFFCURVE",
"136 27 CURVE"
);
},
{
closed = 1;
nodes = (
"1502 1906 CURVE SMOOTH",
"1665 1906 OFFCURVE",
"1759 1984 OFFCURVE",
"1759 2101 CURVE SMOOTH",
"1759 2209 OFFCURVE",
"1676 2265 OFFCURVE",
"1528 2265 CURVE SMOOTH",
"1366 2265 OFFCURVE",
"1276 2188 OFFCURVE",
"1276 2071 CURVE SMOOTH",
"1276 1962 OFFCURVE",
"1357 1906 OFFCURVE"
);
}
);
width = 1483;
},
{
background = {
paths = (
{
closed = 1;
nodes = (
"31 -669 OFFCURVE",
"129 -1111 OFFCURVE",
"438 -1111 CURVE SMOOTH",
"908 -1111 OFFCURVE",
"1306 146 OFFCURVE",
"1407 1043 CURVE SMOOTH",
"1408 1050 OFFCURVE",
"1408 1056 OFFCURVE",
"1408 1062 CURVE SMOOTH",
"1408 1124 OFFCURVE",
"1372 1154 OFFCURVE",
"1312 1154 CURVE SMOOTH",
"1208 1154 OFFCURVE",
"1175 1135 OFFCURVE",
"1153 1019 CURVE SMOOTH",
"1083 630 OFFCURVE",
"728 -871 OFFCURVE",
"375 -871 CURVE SMOOTH",
"158 -871 OFFCURVE",
"195 -478 OFFCURVE",
"195 -331 CURVE SMOOTH",
"195 -277 OFFCURVE",
"154 -236 OFFCURVE",
"113 -236 CURVE SMOOTH",
"74 -236 OFFCURVE",
"36 -274 OFFCURVE",
"36 -375 CURVE"
);
},
{
closed = 1;
nodes = (
"1402 1504 CURVE SMOOTH",
"1565 1504 OFFCURVE",
"1659 1582 OFFCURVE",
"1659 1699 CURVE SMOOTH",
"1659 1807 OFFCURVE",
"1576 1863 OFFCURVE",
"1428 1863 CURVE SMOOTH",
"1266 1863 OFFCURVE",
"1176 1786 OFFCURVE",
"1176 1669 CURVE SMOOTH",
"1176 1560 OFFCURVE",
"1257 1504 OFFCURVE"
);
}
);
};
layerId = "DE4BB00D-BABA-4D36-9D9A-44FD0E91C3DF";
name = Light;
paths = (
{
closed = 1;
nodes = (
"244 -310 OFFCURVE",
"315 -551 OFFCURVE",
"576 -551 CURVE SMOOTH",
"997 -551 OFFCURVE",
"1265 392 OFFCURVE",
"1365 1277 CURVE",
"1366 1281 OFFCURVE",
"1366 1285 OFFCURVE",
"1366 1292 CURVE SMOOTH",
"1366 1332 OFFCURVE",
"1353 1344 OFFCURVE",
"1320 1344 CURVE SMOOTH",
"1238 1344 OFFCURVE",
"1228 1337 OFFCURVE",
"1210 1242 CURVE SMOOTH",
"1138 840 OFFCURVE",
"922 -391 OFFCURVE",
"513 -391 CURVE SMOOTH",
"343 -391 OFFCURVE",
"335 -151 OFFCURVE",
"335 -1 CURVE SMOOTH",
"335 22 OFFCURVE",
"317 52 OFFCURVE",
"284 52 CURVE SMOOTH",
"259 52 OFFCURVE",
"244 28 OFFCURVE",
"244 -25 CURVE SMOOTH"
);
},
{
closed = 1;
nodes = (
"1224 1794 OFFCURVE",
"1279 1754 OFFCURVE",
"1400 1754 CURVE SMOOTH",
"1536 1754 OFFCURVE",
"1607 1814 OFFCURVE",
"1607 1909 CURVE SMOOTH",
"1607 1993 OFFCURVE",
"1550 2033 OFFCURVE",
"1426 2033 CURVE SMOOTH",
"1291 2033 OFFCURVE",
"1224 1975 OFFCURVE",
"1224 1879 CURVE SMOOTH"
);
}
);
width = 1407;
}
);
unicode = 004A;
},
{
glyphname = K;
lastChange = "2013-12-29 01:10:01 -0800";
layers = (
{
layerId = "5ACEE878-7952-4CAC-A6A7-BEDE971843B4";
name = Regular;
paths = (
{
closed = 1;
nodes = (
"1755 -405 CURVE SMOOTH",
"1797 -405 OFFCURVE",
"2096 -383 OFFCURVE",
"2096 -278 CURVE SMOOTH",
"2096 -228 OFFCURVE",
"2080 -162 OFFCURVE",
"2027 -162 CURVE SMOOTH",
"1968 -162 OFFCURVE",
"1897 -198 OFFCURVE",
"1838 -198 CURVE SMOOTH",
"1512 -198 OFFCURVE",
"1343 265 OFFCURVE",
"1161 901 CURVE",
"1676 1126 OFFCURVE",
"2090 1594 OFFCURVE",
"2170 1771 CURVE SMOOTH",
"2209 1860 OFFCURVE",
"2215 1967 OFFCURVE",
"2106 1967 CURVE SMOOTH",
"2032 1967 OFFCURVE",
"1998 1883 OFFCURVE",
"1926 1786 CURVE SMOOTH",
"1766 1571 OFFCURVE",
"1309 1210 OFFCURVE",
"949 991.999 CURVE",
"993.999 1195 OFFCURVE",
"1001 1676 OFFCURVE",
"1001 1899 CURVE SMOOTH",
"1001 1969 OFFCURVE",
"947 2004 OFFCURVE",
"875 1995 CURVE SMOOTH",
"33 1895 OFFCURVE",
"-208 1480 OFFCURVE",
"-148 1057 CURVE SMOOTH",
"-137 977 OFFCURVE",
"-74 921 OFFCURVE",
"6 931 CURVE SMOOTH",
"106 943 OFFCURVE",
"144 980 OFFCURVE",
"140 1034 CURVE SMOOTH",
"120 1317 OFFCURVE",
"218 1620 OFFCURVE",
"747 1790 CURVE",
"767 1007 OFFCURVE",
"359 -80 OFFCURVE",
"-131 -170 CURVE SMOOTH",
"-188 -180 OFFCURVE",
"-232 -143 OFFCURVE",
"-279 -143 CURVE SMOOTH",
"-341 -143 OFFCURVE",
"-406 -241 OFFCURVE",
"-406 -303 CURVE SMOOTH",
"-406 -388 OFFCURVE",
"-189 -403 OFFCURVE",
"-96 -403 CURVE SMOOTH",
"347 -403 OFFCURVE",
"646 103 OFFCURVE",
"919 862 CURVE",
"1093 19 OFFCURVE",
"1311 -405 OFFCURVE"
);
}
);
width = 1790;
},
{
layerId = "DE4BB00D-BABA-4D36-9D9A-44FD0E91C3DF";
name = Light;
paths = (
{
closed = 1;
nodes = (
"1790 -401 CURVE",
"1882 -401 OFFCURVE",
"2063 -365 OFFCURVE",
"2091 -305 CURVE",
"2110 -258 OFFCURVE",
"2080 -229 OFFCURVE",
"2062 -229 CURVE",
"2013 -229 OFFCURVE",
"1942 -265 OFFCURVE",
"1873 -265 CURVE",
"1485 -283 OFFCURVE",
"1433 -61 OFFCURVE",
"1012 916 CURVE",
"1536 1182 OFFCURVE",
"1889 1553 OFFCURVE",
"1969 1730 CURVE",
"2003 1809 OFFCURVE",
"2004 1870 OFFCURVE",
"1941 1870 CURVE",
"1894 1870 OFFCURVE",
"1869 1806 OFFCURVE",
"1794 1705 CURVE",
"1620 1472 OFFCURVE",
"1332 1226 OFFCURVE",
"923 998 CURVE",
"971 1302 OFFCURVE",
"972 1579 OFFCURVE",
"972 1840 CURVE",
"972 1881 OFFCURVE",
"946 1896 OFFCURVE",
"886 1896 CURVE",
"455 1896 OFFCURVE",
"-105 1699 OFFCURVE",
"-105 1088 CURVE",
"-105 1034 OFFCURVE",
"-67 1005 OFFCURVE",
"-19 1012 CURVE",
"41 1021 OFFCURVE",
"60 1042 OFFCURVE",
"60 1075 CURVE",
"60 1635 OFFCURVE",
"501 1795 OFFCURVE",
"833 1774 CURVE",
"763 270 OFFCURVE",
"509 -170 OFFCURVE",
"185 -170 CURVE",
"114 -170 OFFCURVE",
"34 -137 OFFCURVE",
"-3 -137 CURVE",
"-38 -137 OFFCURVE",
"-80 -183 OFFCURVE",
"-80 -226 CURVE",
"-80 -283 OFFCURVE",
"106 -303 OFFCURVE",
"190 -303 CURVE",
"630 -303 OFFCURVE",
"791 271 OFFCURVE",
"905 885 CURVE",
"1315 -58 OFFCURVE",
"1358 -401 OFFCURVE"
);
}
);
width = 1642;
}
);
unicode = 004B;
},
{
glyphname = L;
lastChange = "2013-12-29 00:27:25 -0800";
layers = (
{
layerId = "5ACEE878-7952-4CAC-A6A7-BEDE971843B4";
name = Regular;
paths = (
{
closed = 1;
nodes = (
"546 -292 CURVE SMOOTH",
"1261 -292 OFFCURVE",
"1438 372 OFFCURVE",
"1408 1023 CURVE",
"1408 1546 OFFCURVE",
"1435 1703 OFFCURVE",
"1684 1764 CURVE SMOOTH",
"2364 1930 OFFCURVE",
"2521 896 OFFCURVE",
"836 1291 CURVE SMOOTH",
"722 1318 OFFCURVE",
"662 1120 OFFCURVE",
"763 1097 CURVE SMOOTH",
"2861 619 OFFCURVE",
"2695 2086 OFFCURVE",
"1716 1997 CURVE SMOOTH",
"1401 1968 OFFCURVE",
"1155 1788 OFFCURVE",
"1155 1198 CURVE SMOOTH",
"1155 1143 OFFCURVE",
"1158 1085 OFFCURVE",
"1164 1023 CURVE SMOOTH",
"1244 227 OFFCURVE",
"829 -91 OFFCURVE",
"556 -91 CURVE SMOOTH",
"327 -91 OFFCURVE",
"330 114 OFFCURVE",
"484 115 CURVE SMOOTH",
"1015 120 OFFCURVE",
"1560 -710 OFFCURVE",
"2160 -286 CURVE SMOOTH",
"2235 -233 OFFCURVE",
"2132 -67 OFFCURVE",
"2058 -111 CURVE SMOOTH",
"1511 -437 OFFCURVE",
"1109 344 OFFCURVE",
"481 344 CURVE SMOOTH",
"40 344 OFFCURVE",
"54 -292 OFFCURVE"
);
}
);
width = 1820;
},
{
layerId = "DE4BB00D-BABA-4D36-9D9A-44FD0E91C3DF";
name = Light;
paths = (
{
closed = 1;
nodes = (
"589 -292 CURVE",
"1227 -292 OFFCURVE",
"1407 341 OFFCURVE",
"1377 1022 CURVE",
"1377 1503 OFFCURVE",
"1405 1761 OFFCURVE",
"1684 1844 CURVE",
"2481 2025 OFFCURVE",
"2504 853 OFFCURVE",
"826.781 1252.08 CURVE",
"762.053 1267.41 OFFCURVE",
"725.15 1146.64 OFFCURVE",
"771.886 1136 CURVE",
"2758 656 OFFCURVE",
"2643 2223 OFFCURVE",
"1645 1984 CURVE",
"1347 1918 OFFCURVE",
"1195 1704 OFFCURVE",
"1195 1198 CURVE",
"1195 1144.03 OFFCURVE",
"1197.9 1087.96 OFFCURVE",
"1203.8 1027 CURVE",
"1287 163 OFFCURVE",
"849 -171 OFFCURVE",
"599 -171 CURVE",
"286 -171 OFFCURVE",
"241 114 OFFCURVE",
"484 115 CURVE",
"1051 120 OFFCURVE",
"1604 -679 OFFCURVE",
"2160 -286 CURVE",
"2215 -247 OFFCURVE",
"2216 -92 OFFCURVE",
"2123 -162 CURVE",
"1554 -502 OFFCURVE",
"1069 264 OFFCURVE",
"481 264 CURVE",
"60 264 OFFCURVE",
"72 -292 OFFCURVE"
);
}
);
width = 1820;
}
);
unicode = 004C;
},
{
glyphname = M;
lastChange = "2013-12-29 00:27:25 -0800";
layers = (
{
background = {
paths = (
{
closed = 1;
nodes = (
"1506 1070 LINE",
"1572 1251 OFFCURVE",
"1632 1472 OFFCURVE",
"1632 1597 CURVE SMOOTH",
"1632 1748 OFFCURVE",
"1536 1862 OFFCURVE",
"1359 1878 CURVE SMOOTH",
"930 1918 OFFCURVE",
"676 1405 OFFCURVE",
"506 971 CURVE",
"574 1222 OFFCURVE",
"630 1485 OFFCURVE",
"630 1619 CURVE SMOOTH",
"630 1782 OFFCURVE",
"498 1879 OFFCURVE",
"358 1867 CURVE SMOOTH",
"125 1847 OFFCURVE",
"-46 1670 OFFCURVE",
"-139 1478 CURVE SMOOTH",
"-209 1334 OFFCURVE",
"6 1248 OFFCURVE",
"19 1283 CURVE SMOOTH",
"68 1416 OFFCURVE",
"231 1672 OFFCURVE",
"333 1671 CURVE SMOOTH",
"403 1670 OFFCURVE",
"402 1532 OFFCURVE",
"402 1504 CURVE SMOOTH",
"402 1159 OFFCURVE",
"93 359 OFFCURVE",
"-78 -48 CURVE SMOOTH",
"-78 -49 OFFCURVE",
"-10 -122 OFFCURVE",
"82 -122 CURVE SMOOTH",
"199 -122 OFFCURVE",
"231 4 OFFCURVE",
"259 65 CURVE SMOOTH",
"610 826 OFFCURVE",
"923 1624 OFFCURVE",
"1256 1624 CURVE SMOOTH",
"1336 1624 OFFCURVE",
"1368 1564 OFFCURVE",
"1368 1497 CURVE SMOOTH",
"1368 1418 OFFCURVE",
"1315 1228 OFFCURVE",
"1258 1070 CURVE"
);
},
{
closed = 1;
nodes = (
"1769 54 OFFCURVE",
"1889 -92 OFFCURVE",
"2158 -92 CURVE SMOOTH",
"2281 -92 OFFCURVE",
"2450 -12 OFFCURVE",
"2551 86 CURVE SMOOTH",
"2706 238 OFFCURVE",
"2557 357 OFFCURVE",
"2451 242 CURVE SMOOTH",
"2286 63 OFFCURVE",
"1977 56 OFFCURVE",
"2037 298 CURVE SMOOTH",
"2158 790 OFFCURVE",
"2439 1298 OFFCURVE",
"2439 1597 CURVE SMOOTH",
"2439 1748 OFFCURVE",
"2343 1860 OFFCURVE",
"2166 1878 CURVE SMOOTH",
"1767 1918 OFFCURVE",
"1392 1335 OFFCURVE",
"1252 1061 CURVE",
"819 -48 LINE",
"819 -49 OFFCURVE",
"887 -122 OFFCURVE",
"979 -122 CURVE SMOOTH",
"1096 -122 OFFCURVE",
"1132 4 OFFCURVE",
"1156 65 CURVE SMOOTH",
"1467 856 OFFCURVE",
"1670 1624 OFFCURVE",
"2063 1624 CURVE SMOOTH",
"2143 1624 OFFCURVE",
"2175 1564 OFFCURVE",
"2175 1497 CURVE SMOOTH",
"2175 1292 OFFCURVE",
"1893 755 OFFCURVE",
"1803 248 CURVE SMOOTH"
);
}
);
};
layerId = "5ACEE878-7952-4CAC-A6A7-BEDE971843B4";
name = Regular;
paths = (
{
closed = 1;
nodes = (
"2286 63 OFFCURVE",
"1977 56 OFFCURVE",
"2037 298 CURVE SMOOTH",
"2158 790 OFFCURVE",
"2439 1298 OFFCURVE",
"2439 1597 CURVE SMOOTH",
"2439 1748 OFFCURVE",
"2343 1860 OFFCURVE",
"2166 1878 CURVE SMOOTH",
"1975 1897 OFFCURVE",
"1699 1727 OFFCURVE",
"1542 1355 CURVE",
"1619 1710 OFFCURVE",
"1531 1862 OFFCURVE",
"1359 1878 CURVE SMOOTH",
"930 1918 OFFCURVE",
"676 1405 OFFCURVE",
"506 971 CURVE",
"574 1222 OFFCURVE",
"630 1485 OFFCURVE",
"630 1619 CURVE SMOOTH",
"630 1782 OFFCURVE",
"498 1879 OFFCURVE",
"358 1867 CURVE SMOOTH",
"125 1847 OFFCURVE",
"-46 1670 OFFCURVE",
"-139 1478 CURVE SMOOTH",
"-209 1334 OFFCURVE",
"6 1248 OFFCURVE",
"19 1283 CURVE SMOOTH",
"68 1416 OFFCURVE",
"231 1672 OFFCURVE",
"333 1671 CURVE SMOOTH",
"403 1670 OFFCURVE",
"402 1532 OFFCURVE",
"402 1504 CURVE SMOOTH",
"402 1159 OFFCURVE",
"93 359 OFFCURVE",
"-78 -48 CURVE",
"-78 -49 OFFCURVE",
"-10 -122 OFFCURVE",
"82 -122 CURVE SMOOTH",
"199 -122 OFFCURVE",
"231 4 OFFCURVE",
"259 65 CURVE SMOOTH",
"610 826 OFFCURVE",
"923 1624 OFFCURVE",
"1256 1624 CURVE SMOOTH",
"1336 1624 OFFCURVE",
"1368 1564 OFFCURVE",
"1368 1497 CURVE SMOOTH",
"1368 1419 OFFCURVE",
"1317 1235 OFFCURVE",
"1261 1079 CURVE",
"1252 1061 LINE",
"819 -48 LINE",
"819 -49 OFFCURVE",
"887 -122 OFFCURVE",
"979 -122 CURVE SMOOTH",
"1096 -122 OFFCURVE",
"1132 4 OFFCURVE",
"1156 65 CURVE SMOOTH",
"1467 856 OFFCURVE",
"1670 1624 OFFCURVE",
"2063 1624 CURVE SMOOTH",
"2143 1624 OFFCURVE",
"2175 1564 OFFCURVE",
"2175 1497 CURVE SMOOTH",
"2175 1292 OFFCURVE",
"1893 755 OFFCURVE",
"1803 248 CURVE SMOOTH",
"1769 54 OFFCURVE",
"1889 -92 OFFCURVE",
"2158 -92 CURVE SMOOTH",
"2281 -92 OFFCURVE",
"2450 -12 OFFCURVE",
"2551 86 CURVE SMOOTH",
"2706 238 OFFCURVE",
"2557 357 OFFCURVE",
"2451 242 CURVE SMOOTH"
);
}
);
width = 2341;
},
{
layerId = "DE4BB00D-BABA-4D36-9D9A-44FD0E91C3DF";
name = Light;
paths = (
{
closed = 1;
nodes = (
"2068 -97 CURVE",
"2284 -72 OFFCURVE",
"2409 64 OFFCURVE",
"2473 186 CURVE",
"2484 211 OFFCURVE",
"2483 230 OFFCURVE",
"2481 240 CURVE",
"2478 252 OFFCURVE",
"2467 265 OFFCURVE",
"2450 265 CURVE SMOOTH",
"2420 265 OFFCURVE",
"2400 247 OFFCURVE",
"2360 206 CURVE SMOOTH",
"2307 151 OFFCURVE",
"2214 47 OFFCURVE",
"2094 47 CURVE SMOOTH",
"2002 47 OFFCURVE",
"1970 116 OFFCURVE",
"1970 199 CURVE SMOOTH",
"1970 565 OFFCURVE",
"2205 1037 OFFCURVE",
"2205 1422 CURVE SMOOTH",
"2205 1655 OFFCURVE",
"2045 1734 OFFCURVE",
"1930 1734 CURVE SMOOTH",
"1702 1738 OFFCURVE",
"1524 1500 OFFCURVE",
"1416 1088 CURVE",
"1425 1132 OFFCURVE",
"1441 1247 OFFCURVE",
"1442.8 1349.48 CURVE SMOOTH",
"1446 1556 OFFCURVE",
"1376.33 1730 OFFCURVE",
"1219 1730 CURVE SMOOTH",
"883 1723 OFFCURVE",
"733 1272 OFFCURVE",
"605 920 CURVE",
"637 1033 OFFCURVE",
"669 1325 OFFCURVE",
"669 1418 CURVE SMOOTH",
"669 1629 OFFCURVE",
"583 1703 OFFCURVE",
"468 1703 CURVE SMOOTH",
"238 1703 OFFCURVE",
"55 1529 OFFCURVE",
"-21 1339 CURVE SMOOTH",
"-25 1329 OFFCURVE",
"-26 1322 OFFCURVE",
"-26 1312 CURVE SMOOTH",
"-26 1274 OFFCURVE",
"23 1227 OFFCURVE",
"53 1212 CURVE",
"65 1204 OFFCURVE",
"73 1214 OFFCURVE",
"73 1214 CURVE",
"139 1370 OFFCURVE",
"299 1592 OFFCURVE",
"415 1592 CURVE SMOOTH",
"485 1592 OFFCURVE",
"524 1538 OFFCURVE",
"524 1400 CURVE SMOOTH",
"524 1280.83 OFFCURVE",
"483.524 1010.76 OFFCURVE",
"418.65 696.838 CURVE SMOOTH",
"374.651 483.929 OFFCURVE",
"319.429 250.85 OFFCURVE",
"258 31 CURVE",
"247 -17 OFFCURVE",
"207 -68 OFFCURVE",
"383 -68 CURVE SMOOTH",
"478 -68 OFFCURVE",
"500 62 OFFCURVE",
"529 204 CURVE SMOOTH",
"588 500 OFFCURVE",
"933 1546 OFFCURVE",
"1165 1560 CURVE SMOOTH",
"1247 1565 OFFCURVE",
"1280 1482 OFFCURVE",
"1285 1360 CURVE SMOOTH",
"1293 1177 OFFCURVE",
"1238 905 OFFCURVE",
"1192.07 706.43 CURVE SMOOTH",
"1036 -23 LINE",
"1021 -64 OFFCURVE",
"1127 -62 OFFCURVE",
"1170 -62 CURVE SMOOTH",
"1212 -62 OFFCURVE",
"1248 -40 OFFCURVE",
"1257 12 CURVE",
"1427 737 OFFCURVE",
"1621 1558 OFFCURVE",
"1893 1558 CURVE SMOOTH",
"1994 1558 OFFCURVE",
"2020 1459 OFFCURVE",
"2020 1370 CURVE SMOOTH",
"2020 1003 OFFCURVE",
"1794 515 OFFCURVE",
"1794 159 CURVE SMOOTH",
"1794 5 OFFCURVE",
"1890 -97 OFFCURVE"
);
}
);
width = 2282.26;
}
);
unicode = 004D;
},
{
glyphname = N;
lastChange = "2013-12-29 00:27:25 -0800";
layers = (
{
background = {
paths = (
{
closed = 1;
nodes = (
"1961 -150 CURVE SMOOTH",
"2208 -130 OFFCURVE",
"2322 54 OFFCURVE",
"2426 171 CURVE SMOOTH",
"2442 189 OFFCURVE",
"2440 212 OFFCURVE",
"2440 229 CURVE SMOOTH",
"2440 267 OFFCURVE",
"2416 290 OFFCURVE",
"2380 290 CURVE SMOOTH",
"2345 290 OFFCURVE",
"2300 269 OFFCURVE",
"2253 221 CURVE SMOOTH",
"2200 166 OFFCURVE",
"2118 74 OFFCURVE",
"2016 74 CURVE SMOOTH",
"1953 74 OFFCURVE",
"1890 97 OFFCURVE",
"1902 166 CURVE SMOOTH",
"1962 522 OFFCURVE",
"2143 980 OFFCURVE",
"2143 1376 CURVE SMOOTH",
"2143 1597 OFFCURVE",
"2000 1736 OFFCURVE",
"1873 1736 CURVE SMOOTH",
"1666 1736 OFFCURVE",
"1466 1575 OFFCURVE",
"1286 849 CURVE",
"1328 1283 OFFCURVE",
"1388 1724 OFFCURVE",
"1117 1724 CURVE SMOOTH",
"824 1724 OFFCURVE",
"623 1122 OFFCURVE",
"494 819 CURVE",
"588 1351 OFFCURVE",
"754 1697 OFFCURVE",
"366 1697 CURVE SMOOTH",
"173 1697 OFFCURVE",
"-79 1512 OFFCURVE",
"-160 1308 CURVE SMOOTH",
"-166 1293 OFFCURVE",
"-168 1279 OFFCURVE",
"-168 1266 CURVE SMOOTH",
"-168 1203 OFFCURVE",
"-75 1127 OFFCURVE",
"-25 1127 CURVE SMOOTH",
"-14 1127 OFFCURVE",
"-6 1130 OFFCURVE",
"-1 1138 CURVE",
"57 1280 OFFCURVE",
"220 1521 OFFCURVE",
"313 1521 CURVE SMOOTH",
"354 1521 OFFCURVE",
"382 1475 OFFCURVE",
"382 1354 CURVE SMOOTH",
"382 1157 OFFCURVE",
"296 665 OFFCURVE",
"-17 -57 CURVE",
"71 -105 OFFCURVE",
"212 -188 OFFCURVE",
"285 -28 CURVE SMOOTH",
"498 440 OFFCURVE",
"908 1474 OFFCURVE",
"1052 1474 CURVE SMOOTH",
"1132 1474 OFFCURVE",
"1135 1346 OFFCURVE",
"1135 1247 CURVE SMOOTH",
"1135 1138 OFFCURVE",
"1177 960 OFFCURVE",
"971 295 CURVE SMOOTH",
"862 -57 LINE",
"862 -57 OFFCURVE",
"968 -114 OFFCURVE",
"1042 -114 CURVE SMOOTH",
"1099 -114 OFFCURVE",
"1142 -76 OFFCURVE",
"1168 -6 CURVE SMOOTH",
"1271 271 OFFCURVE",
"1560 1472 OFFCURVE",
"1791 1472 CURVE SMOOTH",
"1863 1472 OFFCURVE",
"1878 1400 OFFCURVE",
"1878 1324 CURVE SMOOTH",
"1878 967 OFFCURVE",
"1696 492 OFFCURVE",
"1646 126 CURVE SMOOTH",
"1622 -48 OFFCURVE",
"1789 -164 OFFCURVE"
);
}
);
};
layerId = "5ACEE878-7952-4CAC-A6A7-BEDE971843B4";
name = Regular;
paths = (
{
closed = 1;
nodes = (
"972 54 OFFCURVE",
"1092 -92 OFFCURVE",
"1361 -92 CURVE SMOOTH",
"1484 -92 OFFCURVE",
"1653 -12 OFFCURVE",
"1754 86 CURVE SMOOTH",
"1909 238 OFFCURVE",
"1760 357 OFFCURVE",
"1654 242 CURVE SMOOTH",
"1489 63 OFFCURVE",
"1180 56 OFFCURVE",
"1240 298 CURVE SMOOTH",
"1361 790 OFFCURVE",
"1642 1298 OFFCURVE",
"1642 1597 CURVE SMOOTH",
"1642 1748 OFFCURVE",
"1546 1864 OFFCURVE",
"1369 1878 CURVE SMOOTH",
"880 1918 OFFCURVE",
"626 1405 OFFCURVE",
"456 971 CURVE",
"524 1222 OFFCURVE",
"580 1485 OFFCURVE",
"580 1619 CURVE SMOOTH",
"580 1782 OFFCURVE",
"448 1879 OFFCURVE",
"308 1867 CURVE SMOOTH",
"75 1847 OFFCURVE",
"-96 1670 OFFCURVE",
"-189 1478 CURVE SMOOTH",
"-259 1334 OFFCURVE",
"-44 1248 OFFCURVE",
"-31 1283 CURVE SMOOTH",
"18 1416 OFFCURVE",
"181 1672 OFFCURVE",
"283 1671 CURVE SMOOTH",
"353 1670 OFFCURVE",
"352 1532 OFFCURVE",
"352 1504 CURVE SMOOTH",
"352 1159 OFFCURVE",
"43 359 OFFCURVE",
"-128 -48 CURVE SMOOTH",
"-128 -49 OFFCURVE",
"-60 -122 OFFCURVE",
"32 -122 CURVE SMOOTH",
"149 -122 OFFCURVE",
"181 4 OFFCURVE",
"209 65 CURVE SMOOTH",
"560 826 OFFCURVE",
"873 1624 OFFCURVE",
"1266 1624 CURVE SMOOTH",
"1346 1624 OFFCURVE",
"1378 1564 OFFCURVE",
"1378 1497 CURVE SMOOTH",
"1378 1292 OFFCURVE",
"1096 755 OFFCURVE",
"1006 248 CURVE SMOOTH"
);
}
);
width = 1575;
},
{
layerId = "DE4BB00D-BABA-4D36-9D9A-44FD0E91C3DF";
name = Light;
paths = (
{
closed = 1;
nodes = (
"1046 27 OFFCURVE",
"1121 -92 OFFCURVE",
"1361 -92 CURVE SMOOTH",
"1473 -92 OFFCURVE",
"1631 -17 OFFCURVE",
"1726 75 CURVE SMOOTH",
"1839 185 OFFCURVE",
"1755 253 OFFCURVE",
"1683 175 CURVE SMOOTH",
"1502 -22 OFFCURVE",
"1173 -44 OFFCURVE",
"1200 261 CURVE SMOOTH",
"1232 612 OFFCURVE",
"1512 1198 OFFCURVE",
"1512 1486 CURVE SMOOTH",
"1512 1617 OFFCURVE",
"1430 1711 OFFCURVE",
"1275 1728 CURVE SMOOTH",
"935 1765 OFFCURVE",
"573 1161 OFFCURVE",
"451 807 CURVE",
"486.5 1018 OFFCURVE",
"517.5 1241 OFFCURVE",
"504.875 1411.25 CURVE SMOOTH",
"492.25 1581.5 OFFCURVE",
"436 1699 OFFCURVE",
"297 1699 CURVE SMOOTH",
"133 1695 OFFCURVE",
"48 1606 OFFCURVE",
"-26 1484 CURVE SMOOTH",
"-82 1390 OFFCURVE",
"5 1334 OFFCURVE",
"59 1408 CURVE SMOOTH",
"147 1531 OFFCURVE",
"195 1592 OFFCURVE",
"264 1581 CURVE",
"323 1573 OFFCURVE",
"346 1530 OFFCURVE",
"350 1482 CURVE SMOOTH",
"369 1113 OFFCURVE",
"276 495 OFFCURVE",
"123 67 CURVE SMOOTH",
"107 25 OFFCURVE",
"127 -46 OFFCURVE",
"199 -46 CURVE SMOOTH",
"259 -46 OFFCURVE",
"293 -21 OFFCURVE",
"309 26 CURVE SMOOTH",
"513 624 OFFCURVE",
"903 1579 OFFCURVE",
"1208 1579 CURVE SMOOTH",
"1316 1579 OFFCURVE",
"1360 1493 OFFCURVE",
"1360 1412 CURVE SMOOTH",
"1360 1198 OFFCURVE",
"1046 555 OFFCURVE",
"1046 208 CURVE SMOOTH"
);
}
);
width = 1575;
}
);
unicode = 004E;
},
{
glyphname = O;
lastChange = "2013-12-29 00:27:25 -0800";
layers = (
{
layerId = "5ACEE878-7952-4CAC-A6A7-BEDE971843B4";
name = Regular;
paths = (
{
closed = 1;
nodes = (
"882 -70 CURVE SMOOTH",
"561 -70 OFFCURVE",
"411 278 OFFCURVE",
"411 536 CURVE SMOOTH",
"411 965 OFFCURVE",
"649 1638 OFFCURVE",
"1157 1638 CURVE SMOOTH",
"1460 1638 OFFCURVE",
"1575 1333 OFFCURVE",
"1575 1041 CURVE SMOOTH",
"1575 644 OFFCURVE",
"1383 -70 OFFCURVE"
);
},
{
closed = 1;
nodes = (
"863 -303 CURVE SMOOTH",
"1513 -303 OFFCURVE",
"1845 438 OFFCURVE",
"1845 991.999 CURVE SMOOTH",
"1845 1458 OFFCURVE",
"1606 1867 OFFCURVE",
"1143 1867 CURVE SMOOTH",
"524 1867 OFFCURVE",
"150 1186 OFFCURVE",
"150 543 CURVE SMOOTH",
"150 146 OFFCURVE",
"396 -303 OFFCURVE"
);
}
);
width = 1853;
},
{
layerId = "DE4BB00D-BABA-4D36-9D9A-44FD0E91C3DF";
name = Light;
paths = (
{
closed = 1;
nodes = (
"882 -150 CURVE",
"531 -150 OFFCURVE",
"371 265.731 OFFCURVE",
"371 536 CURVE",
"371 975.874 OFFCURVE",
"617 1720 OFFCURVE",
"1157 1720 CURVE",
"1492 1720 OFFCURVE",
"1615 1344.3 OFFCURVE",
"1615 1041 CURVE",
"1615 634.706 OFFCURVE",
"1418 -150 OFFCURVE"
);
},
{
closed = 1;
nodes = (
"863 -303 CURVE",
"1483 -303 OFFCURVE",
"1805 450.551 OFFCURVE",
"1805 991.999 CURVE",
"1805 1441.19 OFFCURVE",
"1577 1869 OFFCURVE",
"1143 1869 CURVE",
"554 1869 OFFCURVE",
"190 1169.75 OFFCURVE",
"190 543 CURVE",
"190 160.24 OFFCURVE",
"424 -303 OFFCURVE"
);
}
);
width = 1853;
}
);
unicode = 004F;
},
{
glyphname = P;
lastChange = "2013-12-29 03:04:16 -0800";
layers = (
{
layerId = "5ACEE878-7952-4CAC-A6A7-BEDE971843B4";
name = Regular;
paths = (
{
closed = 1;
nodes = (
"93 155 OFFCURVE",
"206 -293 OFFCURVE",
"526 -293 CURVE SMOOTH",
"834 -293 OFFCURVE",
"919 -15 OFFCURVE",
"960 345 CURVE SMOOTH",
"989 592 OFFCURVE",
"1008 747 OFFCURVE",
"1010 747 CURVE",
"1546 807 OFFCURVE",
"1882 1073 OFFCURVE",
"1882 1437 CURVE SMOOTH",
"1882 1802 OFFCURVE",
"1556 2079 OFFCURVE",
"1022 2060 CURVE SMOOTH",
"405 2038 OFFCURVE",
"93 1401 OFFCURVE",
"93 648 CURVE SMOOTH"
);
},
{
closed = 1;
nodes = (
"700 309 OFFCURVE",
"721 -60 OFFCURVE",
"560 -60 CURVE SMOOTH",
"385 -60 OFFCURVE",
"350 359 OFFCURVE",
"350 648 CURVE SMOOTH",
"350 1141 OFFCURVE",
"500 1736 OFFCURVE",
"989 1765 CURVE SMOOTH",
"1367 1787 OFFCURVE",
"1605 1652 OFFCURVE",
"1605 1416 CURVE SMOOTH",
"1605 1174 OFFCURVE",
"1384 997 OFFCURVE",
"1033 957 CURVE",
"1044 1092 OFFCURVE",
"1163 1274 OFFCURVE",
"1199 1409 CURVE",
"1199 1469 OFFCURVE",
"1132 1492 OFFCURVE",
"1073 1492 CURVE SMOOTH",
"875 1492 OFFCURVE",
"864 1224 OFFCURVE",
"794 966 CURVE",
"735 979 OFFCURVE",
"628 1051 OFFCURVE",
"566 1051 CURVE SMOOTH",
"523 1051 OFFCURVE",
"523 997 OFFCURVE",
"523 954 CURVE SMOOTH",
"523 813 OFFCURVE",
"650 785 OFFCURVE",
"762 740 CURVE"
);
}
);
width = 1551;
},
{
layerId = "DE4BB00D-BABA-4D36-9D9A-44FD0E91C3DF";
name = Light;
paths = (
{
closed = 1;
nodes = (
"-95 134 OFFCURVE",
"34 -349 OFFCURVE",
"318 -349 CURVE SMOOTH",
"594 -349 OFFCURVE",
"672 -101 OFFCURVE",
"712 290 CURVE SMOOTH",
"747 591 OFFCURVE",
"773 780 OFFCURVE",
"778 780 CURVE SMOOTH",
"1335 797 OFFCURVE",
"1684 1050 OFFCURVE",
"1684 1437 CURVE SMOOTH",
"1684 1801 OFFCURVE",
"1376 2055 OFFCURVE",
"846 2036 CURVE SMOOTH",
"257 2015 OFFCURVE",
"-95 1419 OFFCURVE",
"-95 679 CURVE SMOOTH"
);
},
{
closed = 1;
nodes = (
"549 382 OFFCURVE",
"564 -196 OFFCURVE",
"352 -196 CURVE SMOOTH",
"133 -196 OFFCURVE",
"67 291 OFFCURVE",
"67 647 CURVE SMOOTH",
"67 1148 OFFCURVE",
"271 1814 OFFCURVE",
"794 1845 CURVE SMOOTH",
"1220 1870 OFFCURVE",
"1522 1706 OFFCURVE",
"1522 1418 CURVE SMOOTH",
"1522 1123 OFFCURVE",
"1217 927 OFFCURVE",
"786 913 CURVE SMOOTH",
"786 1040 OFFCURVE",
"849 1227 OFFCURVE",
"950 1399 CURVE SMOOTH",
"963 1421 OFFCURVE",
"929 1452 OFFCURVE",
"865 1452 CURVE SMOOTH",
"700 1452 OFFCURVE",
"672 1224 OFFCURVE",
"616 920 CURVE",
"535 920 OFFCURVE",
"402 991 OFFCURVE",
"372 1005 CURVE SMOOTH",
"354 1013 OFFCURVE",
"355 973 OFFCURVE",
"355 954 CURVE SMOOTH",
"355 836 OFFCURVE",
"527 796 OFFCURVE",
"602 788 CURVE"
);
}
);
width = 1374;
}
);
unicode = 0050;
},
{
glyphname = Q;
lastChange = "2013-12-29 00:27:25 -0800";
layers = (
{
layerId = "5ACEE878-7952-4CAC-A6A7-BEDE971843B4";
name = Regular;
paths = (
{
closed = 1;
nodes = (
"1515 -963 CURVE SMOOTH",
"1733 -963 OFFCURVE",
"1804 -896 OFFCURVE",
"1855 -874 CURVE",
"1875 -860 OFFCURVE",
"1884 -841 OFFCURVE",
"1884 -821 CURVE SMOOTH",
"1884 -773 OFFCURVE",
"1836 -719 OFFCURVE",
"1792 -719 CURVE SMOOTH",
"1782 -719 OFFCURVE",
"1772 -722 OFFCURVE",
"1763 -728 CURVE",
"1703 -741 OFFCURVE",
"1645 -752 OFFCURVE",
"1590 -752 CURVE SMOOTH",
"1368 -752 OFFCURVE",
"1135 -403 OFFCURVE",
"1041 492 CURVE SMOOTH",
"1035 550 OFFCURVE",
"844 518 OFFCURVE",
"850 460 CURVE SMOOTH",
"934 -343 OFFCURVE",
"1058 -963 OFFCURVE"
);
},
{
closed = 1;
nodes = (
"882 -70 CURVE SMOOTH",
"561 -70 OFFCURVE",
"411 278 OFFCURVE",
"411 536 CURVE SMOOTH",
"411 965 OFFCURVE",
"649 1638 OFFCURVE",
"1157 1638 CURVE SMOOTH",
"1460 1638 OFFCURVE",
"1575 1333 OFFCURVE",
"1575 1041 CURVE SMOOTH",
"1575 644 OFFCURVE",
"1383 -70 OFFCURVE"
);
},
{
closed = 1;
nodes = (
"863 -303 CURVE SMOOTH",
"1513 -303 OFFCURVE",
"1845 438 OFFCURVE",
"1845 991.999 CURVE SMOOTH",
"1845 1458 OFFCURVE",
"1606 1867 OFFCURVE",
"1143 1867 CURVE SMOOTH",
"524 1867 OFFCURVE",
"150 1186 OFFCURVE",
"150 543 CURVE SMOOTH",
"150 146 OFFCURVE",
"396 -303 OFFCURVE"
);
}
);
width = 1853;
},
{
layerId = "DE4BB00D-BABA-4D36-9D9A-44FD0E91C3DF";
name = Light;
paths = (
{
closed = 1;
nodes = (
"1541 -947 CURVE",
"1700 -947 OFFCURVE",
"1801 -895 OFFCURVE",
"1833 -877 CURVE",
"1860 -861 OFFCURVE",
"1870 -853 OFFCURVE",
"1870 -836 CURVE",
"1870 -818 OFFCURVE",
"1851 -789 OFFCURVE",
"1834 -786 CURVE",
"1825 -784 OFFCURVE",
"1815 -787 OFFCURVE",
"1804 -790 CURVE",
"1741 -804 OFFCURVE",
"1677 -816 OFFCURVE",
"1616 -816 CURVE",
"1364 -816 OFFCURVE",
"1097 -434 OFFCURVE",
"1001 479 CURVE",
"1001 504 OFFCURVE",
"887 490 OFFCURVE",
"890 456 CURVE",
"973 -342 OFFCURVE",
"1121 -947 OFFCURVE"
);
},
{
closed = 1;
nodes = (
"882 -150 CURVE",
"531 -150 OFFCURVE",
"371 265.731 OFFCURVE",
"371 536 CURVE",
"371 975.874 OFFCURVE",
"617 1717 OFFCURVE",
"1157 1717 CURVE",
"1492 1717 OFFCURVE",
"1615 1344.3 OFFCURVE",
"1615 1041 CURVE",
"1615 635 OFFCURVE",
"1418 -150 OFFCURVE"
);
},
{
closed = 1;
nodes = (
"863 -303 CURVE",
"1483 -303 OFFCURVE",
"1805 451 OFFCURVE",
"1805 991.999 CURVE",
"1805 1441.19 OFFCURVE",
"1577 1866 OFFCURVE",
"1143 1866 CURVE",
"554 1866 OFFCURVE",
"190 1169.75 OFFCURVE",
"190 543 CURVE",
"190 160.24 OFFCURVE",
"424 -303 OFFCURVE"
);
}
);
width = 1853;
}
);
unicode = 0051;
},
{
glyphname = R;
lastChange = "2013-12-29 03:04:08 -0800";
layers = (
{
layerId = "5ACEE878-7952-4CAC-A6A7-BEDE971843B4";
name = Regular;
paths = (
{
closed = 1;
nodes = (
"1194 900 CURVE",
"1283 463 OFFCURVE",
"1382 -301 OFFCURVE",
"1848 -301 CURVE SMOOTH",
"2071 -301 OFFCURVE",
"2143 -233 OFFCURVE",
"2195 -211 CURVE",
"2215 -196 OFFCURVE",
"2225 -177 OFFCURVE",
"2225 -156 CURVE SMOOTH",
"2225 -107 OFFCURVE",
"2176 -52 OFFCURVE",
"2131 -52 CURVE SMOOTH",
"2063 -52 OFFCURVE",
"1991 -86 OFFCURVE",
"1925 -86 CURVE SMOOTH",
"1698 -86 OFFCURVE",
"1523 423 OFFCURVE",
"1419 926 CURVE",
"1666 983 OFFCURVE",
"1896 1063 OFFCURVE",
"1928 1387 CURVE SMOOTH",
"1960 1715 OFFCURVE",
"1620 2058 OFFCURVE",
"1134 2058 CURVE SMOOTH",
"440 2058 OFFCURVE",
"95 1487 OFFCURVE",
"130 454 CURVE SMOOTH",
"143 87 OFFCURVE",
"225 -325 OFFCURVE",
"583 -325 CURVE SMOOTH",
"1056 -325 OFFCURVE",
"1037 803 OFFCURVE",
"1092 1092 CURVE SMOOTH",
"1118 1227 OFFCURVE",
"1205 1314 OFFCURVE",
"1207 1398 CURVE SMOOTH",
"1207 1455 OFFCURVE",
"1160 1484 OFFCURVE",
"1095 1484 CURVE SMOOTH",
"957 1484 OFFCURVE",
"899 1261 OFFCURVE",
"870 1121 CURVE SMOOTH",
"815 824 OFFCURVE",
"760 -90 OFFCURVE",
"596 -91 CURVE SMOOTH",
"448 -92 OFFCURVE",
"405 149 OFFCURVE",
"391 419 CURVE SMOOTH",
"348 1224 OFFCURVE",
"529 1758 OFFCURVE",
"1104 1758 CURVE SMOOTH",
"1466 1758 OFFCURVE",
"1656 1556 OFFCURVE",
"1636 1373 CURVE SMOOTH",
"1609 1129 OFFCURVE",
"1414 1077 OFFCURVE",
"991 1077 CURVE SMOOTH",
"899 1077 OFFCURVE",
"756 1107 OFFCURVE",
"715 1107 CURVE SMOOTH",
"670 1107 OFFCURVE",
"661 1060 OFFCURVE",
"661 1023 CURVE SMOOTH",
"661 879 OFFCURVE",
"955 876 OFFCURVE"
);
}
);
width = 2036;
},
{
layerId = "DE4BB00D-BABA-4D36-9D9A-44FD0E91C3DF";
name = Light;
paths = (
{
closed = 1;
nodes = (
"1208.54 911.114 CURVE",
"1351 47 OFFCURVE",
"1606 -284 OFFCURVE",
"1902 -277 CURVE",
"2010 -277 OFFCURVE",
"2083.25 -250 OFFCURVE",
"2128.5 -217 CURVE SMOOTH",
"2173.75 -184 OFFCURVE",
"2191 -146 OFFCURVE",
"2187 -123 CURVE",
"2180 -98 OFFCURVE",
"2147 -84 OFFCURVE",
"2112 -96 CURVE",
"2037 -122 OFFCURVE",
"2010 -126 OFFCURVE",
"1936 -126 CURVE",
"1821 -126 OFFCURVE",
"1573 -52 OFFCURVE",
"1369.76 932.932 CURVE",
"1499.2 929.699 OFFCURVE",
"1851.93 1084.51 OFFCURVE",
"1857 1418.42 CURVE",
"1861.69 1751.55 OFFCURVE",
"1540 1978 OFFCURVE",
"1159 1981 CURVE",
"857 1983 OFFCURVE",
"169 1841.42 OFFCURVE",
"169 585 CURVE",
"169 -293 OFFCURVE",
"469 -302 OFFCURVE",
"593 -301 CURVE",
"893 -299 OFFCURVE",
"998.454 147.478 OFFCURVE",
"1048.05 974.804 CURVE",
"1064 1237 OFFCURVE",
"1153 1362 OFFCURVE",
"1153 1413 CURVE SMOOTH",
"1153 1435 OFFCURVE",
"1136 1443 OFFCURVE",
"1087.97 1442.02 CURVE",
"973 1438 OFFCURVE",
"917 1258 OFFCURVE",
"881 1020 CURVE SMOOTH",
"810 554 OFFCURVE",
"813 -132 OFFCURVE",
"589 -132 CURVE",
"372 -132 OFFCURVE",
"359 417.492 OFFCURVE",
"359 597 CURVE",
"359 771.708 OFFCURVE",
"362 1805 OFFCURVE",
"1111 1805 CURVE",
"1437 1805 OFFCURVE",
"1648 1579.9 OFFCURVE",
"1648 1396 CURVE",
"1648 1213.81 OFFCURVE",
"1500 1048 OFFCURVE",
"1044 1064 CURVE",
"922 1064 OFFCURVE",
"832 1080 OFFCURVE",
"775 1082 CURVE SMOOTH",
"730 1085 OFFCURVE",
"705 1079 OFFCURVE",
"698.122 1052.79 CURVE",
"676.049 971.325 OFFCURVE",
"774.162 888.55 OFFCURVE"
);
}
);
width = 2002;
}
);
unicode = 0052;
},
{
glyphname = S;
lastChange = "2013-12-29 01:11:11 -0800";
layers = (
{
layerId = "5ACEE878-7952-4CAC-A6A7-BEDE971843B4";
name = Regular;
paths = (
{
closed = 1;
nodes = (
"783 -333 CURVE SMOOTH",
"1271 -333 OFFCURVE",
"1631 -112 OFFCURVE",
"1631 255 CURVE SMOOTH",
"1631 592 OFFCURVE",
"1398 692 OFFCURVE",
"1056 883 CURVE SMOOTH",
"643 1113 OFFCURVE",
"541 1142 OFFCURVE",
"541 1344 CURVE SMOOTH",
"541 1514 OFFCURVE",
"806 1645 OFFCURVE",
"1038 1645 CURVE SMOOTH",
"1254 1645 OFFCURVE",
"1446 1557 OFFCURVE",
"1446 1402 CURVE SMOOTH",
"1446 1305 OFFCURVE",
"1404 1238 OFFCURVE",
"1353 1181 CURVE SMOOTH",
"1252 1066 OFFCURVE",
"1418 914 OFFCURVE",
"1577 1083 CURVE SMOOTH",
"1641 1151 OFFCURVE",
"1701 1262 OFFCURVE",
"1699 1401 CURVE SMOOTH",
"1694 1702 OFFCURVE",
"1395 1860 OFFCURVE",
"1008 1850 CURVE SMOOTH",
"632 1841 OFFCURVE",
"246 1650 OFFCURVE",
"246 1320 CURVE SMOOTH",
"246 1012 OFFCURVE",
"481 900 OFFCURVE",
"756 738 CURVE SMOOTH",
"1031 576 OFFCURVE",
"1337 491 OFFCURVE",
"1337 234 CURVE SMOOTH",
"1337 33 OFFCURVE",
"1179 -118 OFFCURVE",
"800 -118 CURVE SMOOTH",
"473 -118 OFFCURVE",
"272 7 OFFCURVE",
"272 244 CURVE SMOOTH",
"272 321 OFFCURVE",
"312 375 OFFCURVE",
"312 443 CURVE SMOOTH",
"312 493 OFFCURVE",
"277 520 OFFCURVE",
"227 520 CURVE SMOOTH",
"83 520 OFFCURVE",
"-9 384 OFFCURVE",
"-9 243 CURVE SMOOTH",
"-9 -150 OFFCURVE",
"382 -333 OFFCURVE"
);
}
);
width = 1733;
},
{
layerId = "DE4BB00D-BABA-4D36-9D9A-44FD0E91C3DF";
name = Light;
paths = (
{
closed = 1;
nodes = (
"787 -333 CURVE",
"1227 -333 OFFCURVE",
"1543 -105 OFFCURVE",
"1543 235 CURVE",
"1543 547 OFFCURVE",
"1305 657 OFFCURVE",
"981 849 CURVE",
"599 1099 OFFCURVE",
"476 1139 OFFCURVE",
"476 1368 CURVE",
"476 1568 OFFCURVE",
"790 1725 OFFCURVE",
"1025 1725 CURVE",
"1246 1725 OFFCURVE",
"1454 1611 OFFCURVE",
"1454 1426 CURVE",
"1454 1318 OFFCURVE",
"1406 1240 OFFCURVE",
"1358 1180 CURVE",
"1293 1103 OFFCURVE",
"1392 1008 OFFCURVE",
"1502 1133 CURVE",
"1558 1195 OFFCURVE",
"1609 1297 OFFCURVE",
"1607 1424 CURVE",
"1603 1697 OFFCURVE",
"1345 1860 OFFCURVE",
"999 1850 CURVE",
"659 1841 OFFCURVE",
"303 1647 OFFCURVE",
"303 1344 CURVE",
"303 1060 OFFCURVE",
"575 914 OFFCURVE",
"835 751 CURVE",
"1087 594 OFFCURVE",
"1388 497 OFFCURVE",
"1388 213 CURVE",
"1388 -10 OFFCURVE",
"1184 -213 OFFCURVE",
"802 -213 CURVE",
"474 -213 OFFCURVE",
"262 -40 OFFCURVE",
"262 224 CURVE",
"262 315 OFFCURVE",
"301 365 OFFCURVE",
"301 423 CURVE",
"301 449 OFFCURVE",
"288 460 OFFCURVE",
"262 460 CURVE",
"157 460 OFFCURVE",
"83 347 OFFCURVE",
"83 223 CURVE",
"83 -142 OFFCURVE",
"424 -333 OFFCURVE"
);
}
);
width = 1641;
}
);
unicode = 0053;
},
{
glyphname = T;
lastChange = "2013-12-29 03:09:23 -0800";
layers = (
{
layerId = "5ACEE878-7952-4CAC-A6A7-BEDE971843B4";
name = Regular;
paths = (
{
closed = 1;
nodes = (
"889 -254 CURVE SMOOTH",
"981 -254 OFFCURVE",
"1036 -204 OFFCURVE",
"1052 -105 CURVE SMOOTH",
"1072 19 OFFCURVE",
"872 395 OFFCURVE",
"1298 1559 CURVE",
"2077 1550 OFFCURVE",
"2074 1532 OFFCURVE",
"2284 1576 CURVE SMOOTH",
"2351 1590 OFFCURVE",
"2467 1832 OFFCURVE",
"2236 1847 CURVE SMOOTH",
"1442 1897 OFFCURVE",
"201 2244 OFFCURVE",
"-268 1050 CURVE SMOOTH",
"-322 912 OFFCURVE",
"-37 910 OFFCURVE",
"-2 987 CURVE SMOOTH",
"96 1204 OFFCURVE",
"265 1590 OFFCURVE",
"1106 1573 CURVE",
"584 521 OFFCURVE",
"719 -30 OFFCURVE",
"742 -120 CURVE SMOOTH",
"762 -197 OFFCURVE",
"800 -254 OFFCURVE"
);
}
);
width = 1366;
},
{
layerId = "DE4BB00D-BABA-4D36-9D9A-44FD0E91C3DF";
name = Light;
paths = (
{
closed = 1;
nodes = (
"800 -264 CURVE",
"870 -264 OFFCURVE",
"894 -228 OFFCURVE",
"907 -149 CURVE",
"934 30 OFFCURVE",
"989 750 OFFCURVE",
"1265 1659 CURVE",
"1855 1649 OFFCURVE",
"2128 1643 OFFCURVE",
"2321 1637 CURVE SMOOTH",
"2368 1636 OFFCURVE",
"2347 1815 OFFCURVE",
"2286 1820 CURVE SMOOTH",
"813 1950 OFFCURVE",
"118 1917 OFFCURVE",
"-123 1131 CURVE",
"-167 968 OFFCURVE",
"-63 969 OFFCURVE",
"-36 1052 CURVE",
"321 1661 OFFCURVE",
"653 1690 OFFCURVE",
"1146 1659 CURVE",
"781 784 OFFCURVE",
"712 -69 OFFCURVE",
"715 -169 CURVE",
"716 -225 OFFCURVE",
"733 -264 OFFCURVE"
);
}
);
width = 1311.09;
}
);
unicode = 0054;
},
{
glyphname = U;
lastChange = "2013-12-29 01:19:29 -0800";
layers = (
{
layerId = "5ACEE878-7952-4CAC-A6A7-BEDE971843B4";
name = Regular;
paths = (
{
closed = 1;
nodes = (
"66 459 CURVE SMOOTH",
"66 111 OFFCURVE",
"171 -160 OFFCURVE",
"539 -160 CURVE SMOOTH",
"1138 -160 OFFCURVE",
"1399 779 OFFCURVE",
"1666 1693 CURVE SMOOTH",
"1692 1781 OFFCURVE",
"1646 1828 OFFCURVE",
"1558 1828 CURVE SMOOTH",
"1498 1828 OFFCURVE",
"1430 1775 OFFCURVE",
"1398 1668 CURVE SMOOTH",
"1214 1053 OFFCURVE",
"1073 64 OFFCURVE",
"582 64 CURVE SMOOTH",
"380 64 OFFCURVE",
"323 267 OFFCURVE",
"323 485 CURVE SMOOTH",
"323 822 OFFCURVE",
"539 1346 OFFCURVE",
"683 1687 CURVE",
"683 1695 LINE SMOOTH",
"688 1783 OFFCURVE",
"645 1790 OFFCURVE",
"574 1790 CURVE SMOOTH",
"471 1790 OFFCURVE",
"450 1709 OFFCURVE",
"408 1630 CURVE SMOOTH",
"244 1319 OFFCURVE",
"66 810 OFFCURVE"
);
},
{
closed = 1;
nodes = (
"1358 1079 LINE",
"1165 440 OFFCURVE",
"1151 21 OFFCURVE",
"1394 -79 CURVE SMOOTH",
"1595 -162 OFFCURVE",
"1753 5 OFFCURVE",
"1783 43 CURVE SMOOTH",
"1852 131 OFFCURVE",
"1771 169 OFFCURVE",
"1740 145 CURVE SMOOTH",
"1680 97 OFFCURVE",
"1624 62 OFFCURVE",
"1514 72 CURVE SMOOTH",
"1314 90 OFFCURVE",
"1384 611 OFFCURVE",
"1487 1104 CURVE"
);
}
);
width = 1666;
},
{
background = {
paths = (
{
closed = 1;
nodes = (
"1358 1079 LINE",
"1165 440 OFFCURVE",
"1151 21 OFFCURVE",
"1394 -79 CURVE SMOOTH",
"1595 -162 OFFCURVE",
"1753 5 OFFCURVE",
"1783 43 CURVE SMOOTH",
"1852 131 OFFCURVE",
"1771 169 OFFCURVE",
"1740 145 CURVE SMOOTH",
"1680 97 OFFCURVE",
"1624 62 OFFCURVE",
"1514 72 CURVE SMOOTH",
"1314 90 OFFCURVE",
"1384 611 OFFCURVE",
"1487 1104 CURVE"
);
}
);
};
layerId = "DE4BB00D-BABA-4D36-9D9A-44FD0E91C3DF";
name = Light;
paths = (
{
closed = 1;
nodes = (
"1450 985 LINE",
"992 -142 OFFCURVE",
"1495 -240 OFFCURVE",
"1846 32 CURVE",
"1888 85 OFFCURVE",
"1825 142 OFFCURVE",
"1799 122 CURVE",
"1307 -117 OFFCURVE",
"1339 254 OFFCURVE",
"1532 1035 CURVE"
);
},
{
closed = 1;
nodes = (
"-39 -190 OFFCURVE",
"700 -160 CURVE SMOOTH",
"887 -152 OFFCURVE",
"1024 -72 OFFCURVE",
"1132 36 CURVE",
"1446 352 OFFCURVE",
"1495 992 OFFCURVE",
"1695 1638 CURVE",
"1695 1710 OFFCURVE",
"1679 1733 OFFCURVE",
"1622 1733 CURVE",
"1530 1733 OFFCURVE",
"1492 1698 OFFCURVE",
"1487 1611 CURVE",
"1343 1163 OFFCURVE",
"1251 13 OFFCURVE",
"709 -17 CURVE SMOOTH",
"88 -51 OFFCURVE",
"253 807 OFFCURVE",
"657 1668 CURVE",
"657 1672 LINE",
"657 1722 OFFCURVE",
"624 1727 OFFCURVE",
"540 1727 CURVE",
"468 1727 OFFCURVE",
"453 1679 OFFCURVE",
"424 1594 CURVE",
"3 650 OFFCURVE"
);
}
);
width = 1722;
}
);
unicode = 0055;
},
{
glyphname = V;
lastChange = "2013-12-29 00:27:25 -0800";
layers = (
{
layerId = "5ACEE878-7952-4CAC-A6A7-BEDE971843B4";
name = Regular;
paths = (
{
closed = 1;
nodes = (
"360 -170 CURVE SMOOTH",
"449 -187 OFFCURVE",
"513 -166 OFFCURVE",
"606 0 CURVE SMOOTH",
"1440 1394 LINE SMOOTH",
"1570 1626 OFFCURVE",
"1572 1686 OFFCURVE",
"1437 1686 CURVE SMOOTH",
"1381 1686 OFFCURVE",
"1310 1636 OFFCURVE",
"1268 1559 CURVE SMOOTH",
"459 139 LINE",
"372 1580 LINE SMOOTH",
"368 1675 OFFCURVE",
"347 1730 OFFCURVE",
"251 1730 CURVE SMOOTH",
"156 1730 OFFCURVE",
"109 1683 OFFCURVE",
"109 1590 CURVE SMOOTH",
"109 1583 OFFCURVE",
"109.472 1575.04 OFFCURVE",
"189 363 CURVE SMOOTH",
"219 -97 OFFCURVE",
"247 -148 OFFCURVE"
);
}
);
width = 1236;
},
{
layerId = "DE4BB00D-BABA-4D36-9D9A-44FD0E91C3DF";
name = Light;
paths = (
{
closed = 1;
nodes = (
"360 -170 CURVE",
"424 -182 OFFCURVE",
"468 -171 OFFCURVE",
"533 -71 CURVE",
"1474 1528 LINE",
"1513 1597 OFFCURVE",
"1547 1681 OFFCURVE",
"1459 1681 CURVE",
"1420 1681 OFFCURVE",
"1379 1672 OFFCURVE",
"1325 1575 CURVE",
"1325 1575 OFFCURVE",
"420 -3 OFFCURVE",
"420 -3 CURVE",
"332 1618 LINE",
"328 1703 OFFCURVE",
"315 1730 OFFCURVE",
"251 1730 CURVE",
"178 1730 OFFCURVE",
"149 1701 OFFCURVE",
"149 1630 CURVE",
"149 1628 OFFCURVE",
"148.889 1625 OFFCURVE",
"221 326 CURVE",
"250 -117 OFFCURVE",
"273 -153 OFFCURVE"
);
}
);
width = 1236;
}
);
unicode = 0056;
},
{
glyphname = W;
lastChange = "2013-12-29 00:27:25 -0800";
layers = (
{
layerId = "5ACEE878-7952-4CAC-A6A7-BEDE971843B4";
name = Regular;
paths = (
{
closed = 1;
nodes = (
"1772 340 LINE",
"1864 67 OFFCURVE",
"2197 66 OFFCURVE",
"2458 339 CURVE",
"2384 449 LINE",
"2204 305 OFFCURVE",
"1880 208 OFFCURVE",
"1997 540 CURVE"
);
},
{
closed = 1;
nodes = (
"1422 -101 CURVE SMOOTH",
"1903 -121 OFFCURVE",
"2105 742 OFFCURVE",
"2207 1649 CURVE SMOOTH",
"2215 1724 OFFCURVE",
"2178 1760 OFFCURVE",
"2112 1760 CURVE SMOOTH",
"2008 1760 OFFCURVE",
"1975 1741 OFFCURVE",
"1953 1625 CURVE SMOOTH",
"1926 1475 OFFCURVE",
"1735 225 OFFCURVE",
"1458 151 CURVE SMOOTH",
"1142 67 OFFCURVE",
"1223 764 OFFCURVE",
"1312 1168 CURVE SMOOTH",
"1358 1379 OFFCURVE",
"1384 1502 OFFCURVE",
"1409 1612 CURVE SMOOTH",
"1426 1687 OFFCURVE",
"1369 1710 OFFCURVE",
"1307 1710 CURVE SMOOTH",
"1196 1710 OFFCURVE",
"1165 1627 OFFCURVE",
"1137 1509 CURVE SMOOTH",
"1080 1270 OFFCURVE",
"1001 970.999 OFFCURVE",
"950 786 CURVE SMOOTH",
"864 474 OFFCURVE",
"687 145 OFFCURVE",
"466 145 CURVE SMOOTH",
"359 145 OFFCURVE",
"318 282 OFFCURVE",
"328 457 CURVE SMOOTH",
"341 719 OFFCURVE",
"454 1091 OFFCURVE",
"485 1190 CURVE SMOOTH",
"530 1335 OFFCURVE",
"583 1505 OFFCURVE",
"626 1659 CURVE SMOOTH",
"639.333 1712.33 OFFCURVE",
"597.059 1751 OFFCURVE",
"530 1751 CURVE SMOOTH",
"408 1751 OFFCURVE",
"376 1643 OFFCURVE",
"332 1541 CURVE SMOOTH",
"261 1372 OFFCURVE",
"92.9999 872 OFFCURVE",
"73 495 CURVE SMOOTH",
"55 162 OFFCURVE",
"123 -98 OFFCURVE",
"430 -98 CURVE SMOOTH",
"727 -98 OFFCURVE",
"955 226 OFFCURVE",
"1036 535 CURVE",
"1031 246 OFFCURVE",
"1126 -89 OFFCURVE"
);
}
);
width = 2192;
},
{
layerId = "DE4BB00D-BABA-4D36-9D9A-44FD0E91C3DF";
name = Light;
paths = (
{
closed = 1;
nodes = (
"1771 317 LINE",
"1771 317 OFFCURVE",
"1996 -20 OFFCURVE",
"2409 345 CURVE SMOOTH",
"2426 360 OFFCURVE",
"2395 437 OFFCURVE",
"2376 426 CURVE SMOOTH",
"1970 194 OFFCURVE",
"1931 389 OFFCURVE",
"1911 431 CURVE"
);
},
{
closed = 1;
nodes = (
"1422 -101 CURVE",
"1844.58 -117 OFFCURVE",
"2061.12 751.141 OFFCURVE",
"2167 1693 CURVE",
"2173 1743 OFFCURVE",
"2156 1760 OFFCURVE",
"2112 1760 CURVE",
"2025 1760 OFFCURVE",
"2010 1750 OFFCURVE",
"1992 1658 CURVE",
"1964 1500 OFFCURVE",
"1777 155 OFFCURVE",
"1467 72 CURVE",
"1090 -28 OFFCURVE",
"1197 804 OFFCURVE",
"1287 1214 CURVE",
"1333 1425 OFFCURVE",
"1359 1527 OFFCURVE",
"1384 1637 CURVE",
"1393 1675 OFFCURVE",
"1371 1707 OFFCURVE",
"1321 1707 CURVE",
"1240 1707 OFFCURVE",
"1217 1650 OFFCURVE",
"1190 1537 CURVE",
"1133 1297 OFFCURVE",
"1039.62 960.574 OFFCURVE",
"988.562 775.371 CURVE",
"900.297 455.154 OFFCURVE",
"698 68 OFFCURVE",
"449 68 CURVE",
"306 68 OFFCURVE",
"260 234 OFFCURVE",
"271 422 CURVE",
"284 689 OFFCURVE",
"432 1143 OFFCURVE",
"463 1242 CURVE",
"508 1387 OFFCURVE",
"561 1528 OFFCURVE",
"604 1681 CURVE",
"606.883 1692.53 OFFCURVE",
"638.431 1751 OFFCURVE",
"547 1751 CURVE",
"454 1751 OFFCURVE",
"430 1669 OFFCURVE",
"385 1566 CURVE",
"315 1398 OFFCURVE",
"115 827 OFFCURVE",
"96 455 CURVE",
"78 133 OFFCURVE",
"140 -95 OFFCURVE",
"413 -95 CURVE",
"685 -95 OFFCURVE",
"970 197 OFFCURVE",
"1056 561 CURVE",
"1051 282 OFFCURVE",
"1054 -108 OFFCURVE"
);
}
);
width = 2192;
}
);
unicode = 0057;
},
{
glyphname = X;
lastChange = "2013-12-29 02:34:53 -0800";
layers = (
{
background = {
paths = (
{
closed = 1;
nodes = (
"259 878 OFFCURVE",
"547 875 OFFCURVE",
"782 899 CURVE",
"869 470 OFFCURVE",
"966 -279 OFFCURVE",
"1423 -279 CURVE SMOOTH",
"1641 -279 OFFCURVE",
"1712 -212 OFFCURVE",
"1763 -190 CURVE",
"1783 -176 OFFCURVE",
"1792 -157 OFFCURVE",
"1792 -137 CURVE SMOOTH",
"1792 -89 OFFCURVE",
"1744 -35 OFFCURVE",
"1700 -35 CURVE SMOOTH",
"1633 -35 OFFCURVE",
"1563 -68 OFFCURVE",
"1498 -68 CURVE SMOOTH",
"1276 -68 OFFCURVE",
"1104 431 OFFCURVE",
"1002 924 CURVE",
"1244 980 OFFCURVE",
"1470 1059 OFFCURVE",
"1501 1376 CURVE SMOOTH",
"1533 1698 OFFCURVE",
"1228 1974 OFFCURVE",
"751 1974 CURVE SMOOTH",
"71 1974 OFFCURVE",
"-296 1474 OFFCURVE",
"-261 461 CURVE SMOOTH",
"-249 102 OFFCURVE",
"-168 -302 OFFCURVE",
"183 -302 CURVE SMOOTH",
"646 -302 OFFCURVE",
"628 804 OFFCURVE",
"682 1087 CURVE SMOOTH",
"707 1219 OFFCURVE",
"792 1305 OFFCURVE",
"794 1387 CURVE SMOOTH",
"794 1443 OFFCURVE",
"748 1471 OFFCURVE",
"685 1471 CURVE SMOOTH",
"549 1471 OFFCURVE",
"492 1253 OFFCURVE",
"464 1115 CURVE SMOOTH",
"410 824 OFFCURVE",
"356 -72 OFFCURVE",
"195 -73 CURVE SMOOTH",
"50 -74 OFFCURVE",
"8 162 OFFCURVE",
"-6 427 CURVE SMOOTH",
"-48 1216 OFFCURVE",
"130 1740 OFFCURVE",
"693 1740 CURVE SMOOTH",
"1048 1740 OFFCURVE",
"1235 1542 OFFCURVE",
"1215 1362 CURVE SMOOTH",
"1189 1123 OFFCURVE",
"997 1072 OFFCURVE",
"583 1072 CURVE SMOOTH",
"492 1072 OFFCURVE",
"352 1102 OFFCURVE",
"312 1102 CURVE SMOOTH",
"268 1102 OFFCURVE",
"259 1056 OFFCURVE",
"259 1019 CURVE SMOOTH"
);
}
);
};
layerId = "5ACEE878-7952-4CAC-A6A7-BEDE971843B4";
name = Regular;
paths = (
{
closed = 1;
nodes = (
"1633 -35 OFFCURVE",
"1563 -68 OFFCURVE",
"1498 -68 CURVE SMOOTH",
"1276 -68 OFFCURVE",
"1104 431 OFFCURVE",
"1002 924 CURVE SMOOTH",
"908 1488 OFFCURVE",
"744 1753 OFFCURVE",
"408 1753 CURVE SMOOTH",
"-44 1753 OFFCURVE",
"-285 1165 OFFCURVE",
"1215 726 CURVE SMOOTH",
"1365 682 OFFCURVE",
"1415 811 OFFCURVE",
"1336 836 CURVE SMOOTH",
"236 1185 OFFCURVE",
"158 1508 OFFCURVE",
"375 1508 CURVE SMOOTH",
"557 1508 OFFCURVE",
"690 1399 OFFCURVE",
"802 849 CURVE SMOOTH",
"889 419 OFFCURVE",
"966 -279 OFFCURVE",
"1423 -279 CURVE SMOOTH",
"1641 -279 OFFCURVE",
"1712 -212 OFFCURVE",
"1763 -190 CURVE",
"1783 -176 OFFCURVE",
"1792 -157 OFFCURVE",
"1792 -137 CURVE SMOOTH",
"1792 -89 OFFCURVE",
"1744 -35 OFFCURVE",
"1700 -35 CURVE SMOOTH"
);
},
{
closed = 1;
nodes = (
"-66 -358 OFFCURVE",
"131 -397 OFFCURVE",
"184 -308 CURVE SMOOTH",
"281 -143 OFFCURVE",
"1335 1186 OFFCURVE",
"1815 1489 CURVE SMOOTH",
"2028 1620 OFFCURVE",
"2040 1777 OFFCURVE",
"1939 1811 CURVE SMOOTH",
"1486 1963 OFFCURVE",
"106 -1 OFFCURVE",
"8 -204 CURVE SMOOTH"
);
}
);
width = 1746;
},
{
layerId = "DE4BB00D-BABA-4D36-9D9A-44FD0E91C3DF";
name = Light;
paths = (
{
closed = 1;
nodes = (
"574 -153 OFFCURVE",
"1392 -280 CURVE SMOOTH",
"1612 -314 OFFCURVE",
"1690 -232 OFFCURVE",
"1739 -201 CURVE SMOOTH",
"1819 -150 OFFCURVE",
"1753 -54 OFFCURVE",
"1704 -78 CURVE SMOOTH",
"1661 -99 OFFCURVE",
"1576 -146 OFFCURVE",
"1484 -144 CURVE SMOOTH",
"889 -130 OFFCURVE",
"1143 1742 OFFCURVE",
"362 1751 CURVE SMOOTH",
"92 1754 OFFCURVE",
"55 1623 OFFCURVE",
"77 1433 CURVE SMOOTH",
"102 1212 OFFCURVE",
"476 945 OFFCURVE",
"1272 746 CURVE SMOOTH",
"1336 730 OFFCURVE",
"1347 841 OFFCURVE",
"1295 859 CURVE SMOOTH",
"570 1110 OFFCURVE",
"295 1255 OFFCURVE",
"231 1444 CURVE SMOOTH",
"205 1522 OFFCURVE",
"264 1572 OFFCURVE",
"322 1577 CURVE SMOOTH",
"964 1632 OFFCURVE"
);
},
{
closed = 1;
nodes = (
"2081 1723 OFFCURVE",
"1875 1869 OFFCURVE",
"1674 1751 CURVE SMOOTH",
"1307 1536 OFFCURVE",
"518 669 OFFCURVE",
"-17 -195 CURVE SMOOTH",
"-55 -257 OFFCURVE",
"61 -330 OFFCURVE",
"98 -272 CURVE SMOOTH",
"634 568 OFFCURVE",
"1267 1253 OFFCURVE",
"1823 1574 CURVE SMOOTH"
);
}
);
width = 1536;
}
);
unicode = 0058;
},
{
glyphname = Y;
lastChange = "2013-12-29 02:45:05 -0800";
layers = (
{
background = {
paths = (
{
closed = 1;
nodes = (
"-86 750 OFFCURVE",
"-60 -60 OFFCURVE",
"599 -60 CURVE SMOOTH",
"1198 -60 OFFCURVE",
"1324 609 OFFCURVE",
"1543 1523 CURVE SMOOTH",
"1565 1611 OFFCURVE",
"1516 1658 OFFCURVE",
"1428 1658 CURVE SMOOTH",
"1368 1658 OFFCURVE",
"1303 1605 OFFCURVE",
"1276 1498 CURVE SMOOTH",
"1125 883 OFFCURVE",
"1121 164 OFFCURVE",
"630 164 CURVE SMOOTH",
"181 164 OFFCURVE",
"256 879 OFFCURVE",
"561 1517 CURVE",
"560 1525 LINE SMOOTH",
"560 1613 OFFCURVE",
"517 1620 OFFCURVE",
"446 1620 CURVE SMOOTH",
"343 1620 OFFCURVE",
"329 1538 OFFCURVE",
"288 1460 CURVE SMOOTH"
);
},
{
closed = 1;
nodes = (
"830 -189 OFFCURVE",
"615 -688 OFFCURVE",
"393 -688 CURVE SMOOTH",
"328 -688 OFFCURVE",
"211 -655 OFFCURVE",
"144 -655 CURVE SMOOTH",
"100 -655 OFFCURVE",
"47 -709 OFFCURVE",
"43 -757 CURVE SMOOTH",
"41 -777 OFFCURVE",
"48 -796 OFFCURVE",
"67 -810 CURVE",
"116 -832 OFFCURVE",
"232 -899 OFFCURVE",
"450 -899 CURVE SMOOTH",
"907 -899 OFFCURVE",
"1098 -153 OFFCURVE",
"1213 279 CURVE SMOOTH",
"1543 1523 LINE",
"975 304 LINE"
);
}
);
};
layerId = "5ACEE878-7952-4CAC-A6A7-BEDE971843B4";
name = Regular;
paths = (
{
closed = 1;
nodes = (
"1368 1688 OFFCURVE",
"1311 1664 OFFCURVE",
"1287 1556 CURVE SMOOTH",
"1271 1484 OFFCURVE",
"1084 777 OFFCURVE",
"982 451 CURVE SMOOTH",
"930 286 OFFCURVE",
"758 194 OFFCURVE",
"630 194 CURVE SMOOTH",
"181 194 OFFCURVE",
"196 799 OFFCURVE",
"561 1547 CURVE SMOOTH",
"587 1611 OFFCURVE",
"519 1650 OFFCURVE",
"446 1650 CURVE SMOOTH",
"343 1650 OFFCURVE",
"329 1568 OFFCURVE",
"288 1490 CURVE SMOOTH",
"-86 780 OFFCURVE",
"-78 -30 OFFCURVE",
"581 -30 CURVE SMOOTH",
"689 -30 OFFCURVE",
"840 32 OFFCURVE",
"911 143 CURVE",
"703 -641 OFFCURVE",
"504 -747 OFFCURVE",
"144 -625 CURVE SMOOTH",
"64 -598 OFFCURVE",
"28 -724 OFFCURVE",
"87 -750 CURVE SMOOTH",
"778 -1054 OFFCURVE",
"979 -570 OFFCURVE",
"1213 309 CURVE SMOOTH",
"1295.71 620.776 LINE",
"1386.36 877.52 OFFCURVE",
"1457.61 1196.64 OFFCURVE",
"1543 1553 CURVE SMOOTH",
"1565 1641 OFFCURVE",
"1516 1688 OFFCURVE",
"1428 1688 CURVE SMOOTH"
);
}
);
width = 1461;
},
{
background = {
paths = (
{
closed = 1;
nodes = (
"1368 1688 OFFCURVE",
"1292 1638 OFFCURVE",
"1276 1528 CURVE SMOOTH",
"1261 1425 OFFCURVE",
"1084 777 OFFCURVE",
"982 451 CURVE SMOOTH",
"930 286 OFFCURVE",
"758 194 OFFCURVE",
"630 194 CURVE SMOOTH",
"181 194 OFFCURVE",
"196 799 OFFCURVE",
"561 1547 CURVE",
"560 1555 LINE",
"560 1643 OFFCURVE",
"517 1650 OFFCURVE",
"446 1650 CURVE SMOOTH",
"343 1650 OFFCURVE",
"329 1568 OFFCURVE",
"288 1490 CURVE SMOOTH",
"-86 780 OFFCURVE",
"-78 -30 OFFCURVE",
"581 -30 CURVE SMOOTH",
"689 -30 OFFCURVE",
"840 32 OFFCURVE",
"911 143 CURVE",
"713 -441 OFFCURVE",
"495.067 -772 OFFCURVE",
"144 -625 CURVE SMOOTH",
"105 -609 OFFCURVE",
"47 -679 OFFCURVE",
"43 -727 CURVE SMOOTH",
"41 -747 OFFCURVE",
"48 -766 OFFCURVE",
"67 -780 CURVE",
"754 -1088 OFFCURVE",
"979 -570 OFFCURVE",
"1213 309 CURVE SMOOTH",
"1295.71 620.776 LINE",
"1386.36 877.52 OFFCURVE",
"1457.61 1196.64 OFFCURVE",
"1543 1553 CURVE SMOOTH",
"1565 1641 OFFCURVE",
"1516 1688 OFFCURVE",
"1428 1688 CURVE SMOOTH"
);
}
);
};
layerId = "DE4BB00D-BABA-4D36-9D9A-44FD0E91C3DF";
name = Light;
paths = (
{
closed = 1;
nodes = (
"1397 1648 OFFCURVE",
"1347 1612 OFFCURVE",
"1338 1522 CURVE",
"1321 1419 OFFCURVE",
"1185 768 OFFCURVE",
"1100 439 CURVE",
"1052 258 OFFCURVE",
"803 123 OFFCURVE",
"656 123 CURVE",
"149 123 OFFCURVE",
"204 785 OFFCURVE",
"521 1552 CURVE SMOOTH",
"540 1597 OFFCURVE",
"493 1610 OFFCURVE",
"454 1610 CURVE SMOOTH",
"391 1610 OFFCURVE",
"363 1572 OFFCURVE",
"345 1530 CURVE SMOOTH",
"-26 708 OFFCURVE",
"-51 0 OFFCURVE",
"630 0 CURVE",
"630 0 OFFCURVE",
"912 0 OFFCURVE",
"1058 189 CURVE",
"874 -608 OFFCURVE",
"734 -821 OFFCURVE",
"251 -623 CURVE SMOOTH",
"211 -610 OFFCURVE",
"191 -733 OFFCURVE",
"228 -747 CURVE SMOOTH",
"887 -1004 OFFCURVE",
"1076 -556 OFFCURVE",
"1263 319 CURVE",
"1539 1558 LINE",
"1539 1559 OFFCURVE",
"1539 1559 OFFCURVE",
"1539 1560 CURVE",
"1552 1621 OFFCURVE",
"1491 1648 OFFCURVE",
"1434 1648 CURVE"
);
}
);
width = 1461;
}
);
unicode = 0059;
},
{
glyphname = Z;
lastChange = "2013-12-29 00:27:25 -0800";
layers = (
{
layerId = "5ACEE878-7952-4CAC-A6A7-BEDE971843B4";
name = Regular;
paths = (
{
closed = 1;
nodes = (
"73 131 CURVE SMOOTH",
"84 42 OFFCURVE",
"219 16 OFFCURVE",
"337 135 CURVE",
"382 79 OFFCURVE",
"810 -194 OFFCURVE",
"1403 168 CURVE SMOOTH",
"1444 193 OFFCURVE",
"1423 271 OFFCURVE",
"1409 304 CURVE SMOOTH",
"1395 337 OFFCURVE",
"1360 390 OFFCURVE",
"1284 350 CURVE SMOOTH",
"1208 310 OFFCURVE",
"989 199 OFFCURVE",
"830 206 CURVE SMOOTH",
"599 215 OFFCURVE",
"530 351 OFFCURVE",
"464 323 CURVE",
"639 579 OFFCURVE",
"895 998 OFFCURVE",
"1339 1355 CURVE SMOOTH",
"1368 1378 OFFCURVE",
"1382 1402 OFFCURVE",
"1383 1440 CURVE",
"1384 1478 OFFCURVE",
"1382 1576 OFFCURVE",
"1288 1561 CURVE",
"1194 1546 OFFCURVE",
"800 1547 OFFCURVE",
"515 1599 CURVE SMOOTH",
"230 1651 OFFCURVE",
"132 1374 OFFCURVE",
"132 1206 CURVE SMOOTH",
"132 1152 OFFCURVE",
"149 1110 OFFCURVE",
"175 1109 CURVE",
"297 1108 OFFCURVE",
"292 1410 OFFCURVE",
"452 1381 CURVE",
"612 1352 OFFCURVE",
"920 1305 OFFCURVE",
"996 1342 CURVE",
"191 352 OFFCURVE",
"56 265 OFFCURVE"
);
}
);
width = 1265;
},
{
layerId = "DE4BB00D-BABA-4D36-9D9A-44FD0E91C3DF";
name = Light;
paths = (
{
closed = 1;
nodes = (
"87 107 CURVE SMOOTH",
"95 43 OFFCURVE",
"215 24 OFFCURVE",
"322 153 CURVE",
"325 114 OFFCURVE",
"754 -211 OFFCURVE",
"1371 166 CURVE",
"1420 192 OFFCURVE",
"1377 237 OFFCURVE",
"1365 265 CURVE SMOOTH",
"1353 293 OFFCURVE",
"1332 336 OFFCURVE",
"1282 310 CURVE SMOOTH",
"1206 270 OFFCURVE",
"980 141 OFFCURVE",
"813 148 CURVE SMOOTH",
"556 158 OFFCURVE",
"484 314 OFFCURVE",
"436 294 CURVE",
"699 677 OFFCURVE",
"859 933 OFFCURVE",
"1359 1406 CURVE",
"1382 1424 OFFCURVE",
"1391 1440 OFFCURVE",
"1392 1468 CURVE SMOOTH",
"1393 1505 OFFCURVE",
"1392 1568 OFFCURVE",
"1332 1559 CURVE SMOOTH",
"1235 1543 OFFCURVE",
"801 1544 OFFCURVE",
"514 1597 CURVE SMOOTH",
"256 1644 OFFCURVE",
"166 1394 OFFCURVE",
"166 1233 CURVE SMOOTH",
"166 1183 OFFCURVE",
"172 1167 OFFCURVE",
"180 1166 CURVE",
"318 1167 OFFCURVE",
"303 1472 OFFCURVE",
"491 1438 CURVE SMOOTH",
"652 1409 OFFCURVE",
"998 1362 OFFCURVE",
"1055 1398 CURVE",
"261 323 OFFCURVE",
"72 222 OFFCURVE"
);
}
);
width = 1265;
}
);
unicode = 005A;
},
{
glyphname = bracketleft;
lastChange = "2013-12-29 00:27:25 -0800";
layers = (
{
layerId = "5ACEE878-7952-4CAC-A6A7-BEDE971843B4";
name = Regular;
paths = (
{
closed = 1;
nodes = (
"353 -192 CURVE SMOOTH",
"671 -192 LINE SMOOTH",
"744 -192 OFFCURVE",
"828 -120 OFFCURVE",
"828 -51 CURVE SMOOTH",
"828 -5 OFFCURVE",
"791 32 OFFCURVE",
"745 32 CURVE SMOOTH",
"459 32 LINE",
"495 258 OFFCURVE",
"531 496 OFFCURVE",
"566 730 CURVE SMOOTH",
"600 957 OFFCURVE",
"672 1218 OFFCURVE",
"672 1443 CURVE",
"958 1443 LINE SMOOTH",
"1020 1443 OFFCURVE",
"1088 1499 OFFCURVE",
"1088 1561 CURVE SMOOTH",
"1088 1618 OFFCURVE",
"1049 1667 OFFCURVE",
"989.999 1667 CURVE SMOOTH",
"672 1667 LINE SMOOTH",
"487 1667 OFFCURVE",
"416 1563 OFFCURVE",
"392 1415 CURVE SMOOTH",
"329 1025 OFFCURVE",
"292 636 OFFCURVE",
"228 258 CURVE SMOOTH",
"209 147 OFFCURVE",
"176 59 OFFCURVE",
"176 -53 CURVE SMOOTH",
"176 -156 OFFCURVE",
"246 -192 OFFCURVE"
);
}
);
width = 927;
},
{
layerId = "DE4BB00D-BABA-4D36-9D9A-44FD0E91C3DF";
name = Light;
paths = (
{
closed = 1;
nodes = (
"353 -162 CURVE",
"671 -162 LINE",
"728.906 -162 OFFCURVE",
"798 -102 OFFCURVE",
"798 -51 CURVE",
"798 -21 OFFCURVE",
"774.587 2 OFFCURVE",
"745 2 CURVE",
"423.828 2 LINE",
"461.655 238.151 OFFCURVE",
"499.536 488.441 OFFCURVE",
"536.331 734.444 CURVE",
"572.163 973.673 OFFCURVE",
"648.593 1245.74 OFFCURVE",
"641.544 1473 CURVE",
"958 1473 LINE",
"1005.24 1473 OFFCURVE",
"1058 1517.15 OFFCURVE",
"1058 1561 CURVE",
"1058 1603.53 OFFCURVE",
"1030.54 1637 OFFCURVE",
"989.999 1637 CURVE",
"672 1637 LINE",
"506.843 1637 OFFCURVE",
"443.904 1547.66 OFFCURVE",
"421.616 1410.22 CURVE",
"358.772 1021.18 OFFCURVE",
"321.762 632.07 OFFCURVE",
"257.57 252.938 CURVE",
"238.09 139.132 OFFCURVE",
"206 53.56 OFFCURVE",
"206 -53 CURVE",
"206 -134 OFFCURVE",
"257.261 -162 OFFCURVE"
);
}
);
width = 927;
}
);
unicode = 005B;
},
{
glyphname = backslash;
lastChange = "2013-12-29 00:27:25 -0800";
layers = (
{
layerId = "5ACEE878-7952-4CAC-A6A7-BEDE971843B4";
name = Regular;
paths = (
{
closed = 1;
nodes = (
"1053 -39 CURVE SMOOTH",
"1114 -39 OFFCURVE",
"1159 -8 OFFCURVE",
"1159 55 CURVE SMOOTH",
"1159 108 OFFCURVE",
"1140 150 OFFCURVE",
"1120 197 CURVE SMOOTH",
"913 656 OFFCURVE",
"696 1138 OFFCURVE",
"489 1598 CURVE SMOOTH",
"440 1708 OFFCURVE",
"408 1864 OFFCURVE",
"267 1864 CURVE SMOOTH",
"196 1864 OFFCURVE",
"155 1815 OFFCURVE",
"155 1743 CURVE SMOOTH",
"155 1697 OFFCURVE",
"168 1659 OFFCURVE",
"185 1622 CURVE SMOOTH",
"414 1111 OFFCURVE",
"611 569 OFFCURVE",
"867 64 CURVE SMOOTH",
"896 6 OFFCURVE",
"966 -39 OFFCURVE"
);
}
);
width = 1248;
},
{
layerId = "DE4BB00D-BABA-4D36-9D9A-44FD0E91C3DF";
name = Light;
paths = (
{
closed = 1;
nodes = (
"1081 -48 CURVE",
"1129 -48 OFFCURVE",
"1157 -27 OFFCURVE",
"1157 16 CURVE",
"1157 122 OFFCURVE",
"673 1113 OFFCURVE",
"448 1612 CURVE",
"398 1725 OFFCURVE",
"370 1860 OFFCURVE",
"253 1860 CURVE",
"156 1860 OFFCURVE",
"154 1757 OFFCURVE",
"199 1660 CURVE",
"428 1148 OFFCURVE",
"666 542 OFFCURVE",
"922 39 CURVE",
"946 -10 OFFCURVE",
"1005 -48 OFFCURVE"
);
}
);
width = 1248;
}
);
unicode = 005C;
},
{
glyphname = bracketright;
lastChange = "2013-12-29 00:27:25 -0800";
layers = (
{
layerId = "5ACEE878-7952-4CAC-A6A7-BEDE971843B4";
name = Regular;
paths = (
{
closed = 1;
nodes = (
"108 -192 CURVE SMOOTH",
"416 -192 LINE SMOOTH",
"601 -192 OFFCURVE",
"672 -88 OFFCURVE",
"696 60 CURVE SMOOTH",
"759 450 OFFCURVE",
"794 840 OFFCURVE",
"860 1218 CURVE SMOOTH",
"879 1329 OFFCURVE",
"912 1416 OFFCURVE",
"912 1528 CURVE SMOOTH",
"912 1631 OFFCURVE",
"842 1667 OFFCURVE",
"735 1667 CURVE SMOOTH",
"389 1667 LINE SMOOTH",
"323 1667 OFFCURVE",
"264 1607 OFFCURVE",
"264 1544 CURVE SMOOTH",
"264 1490 OFFCURVE",
"315 1443 OFFCURVE",
"369 1443 CURVE SMOOTH",
"629 1443 LINE",
"593 1217 OFFCURVE",
"557 978.999 OFFCURVE",
"522 745 CURVE SMOOTH",
"488 518 OFFCURVE",
"416 257 OFFCURVE",
"416 32 CURVE",
"119 32 LINE SMOOTH",
"61 32 OFFCURVE",
"0 -22 OFFCURVE",
"0 -80 CURVE SMOOTH",
"0 -139 OFFCURVE",
"47 -192 OFFCURVE"
);
}
);
width = 927;
},
{
layerId = "DE4BB00D-BABA-4D36-9D9A-44FD0E91C3DF";
name = Light;
paths = (
{
closed = 1;
nodes = (
"108 -162 CURVE",
"416 -162 LINE",
"581.157 -162 OFFCURVE",
"644.096 -73 OFFCURVE",
"666.384 64.7841 CURVE",
"729.215 453.737 OFFCURVE",
"764.232 843.928 OFFCURVE",
"830.43 1223.06 CURVE",
"849.92 1336.92 OFFCURVE",
"882 1421.5 OFFCURVE",
"882 1528 CURVE",
"882 1608.7 OFFCURVE",
"830.739 1637 OFFCURVE",
"735 1637 CURVE",
"389 1637 LINE",
"339.569 1637 OFFCURVE",
"294 1590.73 OFFCURVE",
"294 1544 CURVE",
"294 1507.14 OFFCURVE",
"330.707 1473 OFFCURVE",
"369 1473 CURVE",
"663.949 1473 LINE",
"551.669 740.556 LINE",
"515.837 501.327 OFFCURVE",
"439.407 229.256 OFFCURVE",
"446.456 2 CURVE",
"119 2 LINE",
"76.3638 2 OFFCURVE",
"30 -40 OFFCURVE",
"30 -80 CURVE",
"30 -124 OFFCURVE",
"64.4862 -162 OFFCURVE"
);
}
);
width = 927;
}
);
unicode = 005D;
},
{
glyphname = asciicircum;
lastChange = "2013-12-29 00:27:25 -0800";
layers = (
{
layerId = "5ACEE878-7952-4CAC-A6A7-BEDE971843B4";
name = Regular;
paths = (
{
closed = 1;
nodes = (
"197 504 CURVE SMOOTH",
"198 504 OFFCURVE",
"198 503 OFFCURVE",
"198 504 CURVE SMOOTH",
"198 505 OFFCURVE",
"197 508 OFFCURVE",
"194 511 CURVE",
"254 511 OFFCURVE",
"291 554 OFFCURVE",
"318 603 CURVE",
"578 1124 LINE",
"784 642 LINE SMOOTH",
"808 587 OFFCURVE",
"858 508 OFFCURVE",
"933 508 CURVE SMOOTH",
"986.999 508 OFFCURVE",
"1023 566 OFFCURVE",
"1023 622 CURVE SMOOTH",
"1023 640 OFFCURVE",
"1021 660 OFFCURVE",
"1013 680 CURVE SMOOTH",
"945 859 OFFCURVE",
"865 1031 OFFCURVE",
"785 1189 CURVE SMOOTH",
"742 1273 OFFCURVE",
"687 1344 OFFCURVE",
"567 1344 CURVE SMOOTH",
"447 1344 OFFCURVE",
"395 1228 OFFCURVE",
"344 1132 CURVE SMOOTH",
"293 1037 OFFCURVE",
"237 930 OFFCURVE",
"186 832 CURVE SMOOTH",
"153 768 OFFCURVE",
"92.9999 702 OFFCURVE",
"92.9999 621 CURVE SMOOTH",
"92.9999 570 OFFCURVE",
"186 504 OFFCURVE"
);
}
);
width = 1089;
},
{
layerId = "DE4BB00D-BABA-4D36-9D9A-44FD0E91C3DF";
name = Light;
paths = (
{
closed = 1;
nodes = (
"933 538 CURVE",
"988.665 538 OFFCURVE",
"1004.53 620.405 OFFCURVE",
"985.146 668.858 CURVE",
"984.955 669.346 LINE",
"917.341 847.332 OFFCURVE",
"838.009 1017.89 OFFCURVE",
"758.296 1175.33 CURVE",
"717.501 1255.02 OFFCURVE",
"670.254 1314 OFFCURVE",
"567 1314 CURVE",
"466.428 1314 OFFCURVE",
"421.965 1214.81 OFFCURVE",
"370.432 1117.81 CURVE",
"319.507 1022.95 OFFCURVE",
"263.596 916.12 OFFCURVE",
"212.664 818.251 CURVE",
"177.854 750.742 OFFCURVE",
"123 690.402 OFFCURVE",
"123 621 CURVE",
"123 571.373 OFFCURVE",
"172.968 541 OFFCURVE",
"194 541 CURVE",
"237.98 541 OFFCURVE",
"273 582 OFFCURVE",
"291.435 616.953 CURVE",
"310 652 OFFCURVE",
"496 1098 OFFCURVE",
"567 1176 CURVE",
"622 1098 OFFCURVE",
"790 703 OFFCURVE",
"811 654 CURVE SMOOTH",
"833.751 602.998 OFFCURVE",
"876.583 538 OFFCURVE"
);
}
);
width = 1089;
}
);
unicode = 005E;
},
{
glyphname = underscore;
lastChange = "2013-12-29 00:27:25 -0800";
layers = (
{
layerId = "5ACEE878-7952-4CAC-A6A7-BEDE971843B4";
name = Regular;
paths = (
{
closed = 1;
nodes = (
"128 0 CURVE SMOOTH",
"1020 0 LINE SMOOTH",
"1156 0 OFFCURVE",
"1266 33 OFFCURVE",
"1266 163 CURVE SMOOTH",
"1266 210 OFFCURVE",
"1233 225 OFFCURVE",
"1184 225 CURVE SMOOTH",
"853 225 LINE SMOOTH",
"737 225 OFFCURVE",
"609 224 OFFCURVE",
"496 224 CURVE SMOOTH",
"236 224 LINE SMOOTH",
"124 224 OFFCURVE",
"-6 218 OFFCURVE",
"-6 108 CURVE SMOOTH",
"-6 34 OFFCURVE",
"55 0 OFFCURVE"
);
}
);
width = 1248;
},
{
layerId = "DE4BB00D-BABA-4D36-9D9A-44FD0E91C3DF";
name = Light;
paths = (
{
closed = 1;
nodes = (
"98 30 CURVE",
"1044 30 LINE",
"1174 30 OFFCURVE",
"1260 57 OFFCURVE",
"1260 163 CURVE",
"1260 187 OFFCURVE",
"1247 195 OFFCURVE",
"1208 195 CURVE",
"853 195 LINE",
"737.234 195 OFFCURVE",
"609 194 OFFCURVE",
"496 194 CURVE",
"206 194 LINE",
"97 194 OFFCURVE",
"-6 187 OFFCURVE",
"-6 108 CURVE",
"-6 56 OFFCURVE",
"37 30 OFFCURVE"
);
}
);
width = 1248;
}
);
unicode = 005F;
},
{
glyphname = grave;
lastChange = "2013-12-29 00:27:25 -0800";
layers = (
{
layerId = "5ACEE878-7952-4CAC-A6A7-BEDE971843B4";
name = Regular;
paths = (
{
closed = 1;
nodes = (
"448 1088 CURVE SMOOTH",
"483 1088 OFFCURVE",
"506 1119 OFFCURVE",
"506 1155 CURVE SMOOTH",
"506 1173 OFFCURVE",
"503 1189 OFFCURVE",
"496 1203 CURVE",
"427 1354 OFFCURVE",
"371 1491 OFFCURVE",
"304 1646 CURVE SMOOTH",
"288 1683 OFFCURVE",
"256 1710 OFFCURVE",
"209 1710 CURVE SMOOTH",
"131 1710 OFFCURVE",
"64 1652 OFFCURVE",
"64 1574 CURVE SMOOTH",
"64 1544 OFFCURVE",
"76 1512 OFFCURVE",
"101 1477 CURVE SMOOTH",
"163 1392 OFFCURVE",
"235 1302 OFFCURVE",
"302 1220 CURVE SMOOTH",
"337 1177 OFFCURVE",
"380 1088 OFFCURVE"
);
}
);
width = 609;
},
{
anchors = (
{
name = _top;
position = "{398, 939}";
}
);
layerId = "DE4BB00D-BABA-4D36-9D9A-44FD0E91C3DF";
name = Light;
paths = (
{
closed = 1;
nodes = (
"405 1202 CURVE",
"433 1202 OFFCURVE",
"441 1245 OFFCURVE",
"426 1274 CURVE",
"356 1426 OFFCURVE",
"282 1582 OFFCURVE",
"215 1737 CURVE",
"203 1765 OFFCURVE",
"182 1782 OFFCURVE",
"148 1782 CURVE",
"85 1782 OFFCURVE",
"33 1737 OFFCURVE",
"33 1676 CURVE",
"33 1652 OFFCURVE",
"41 1629 OFFCURVE",
"64 1597 CURVE",
"125 1513 OFFCURVE",
"215 1405 OFFCURVE",
"282 1323 CURVE",
"319 1277 OFFCURVE",
"356 1202 OFFCURVE"
);
}
);
width = 609;
}
);
unicode = 0060;
},
{
glyphname = a;
lastChange = "2013-12-29 00:27:25 -0800";
layers = (
{
layerId = "5ACEE878-7952-4CAC-A6A7-BEDE971843B4";
name = Regular;
paths = (
{
closed = 1;
nodes = (
"341 -16 CURVE SMOOTH",
"481 -16 OFFCURVE",
"599 60 OFFCURVE",
"656 191 CURVE",
"671 74 OFFCURVE",
"749 0 OFFCURVE",
"860 0 CURVE SMOOTH",
"1023 0 OFFCURVE",
"1183 150 OFFCURVE",
"1254 250 CURVE",
"1258 258 OFFCURVE",
"1260 272 OFFCURVE",
"1260 287 CURVE SMOOTH",
"1260 342 OFFCURVE",
"1235 424 OFFCURVE",
"1192 424 CURVE SMOOTH",
"1180 424 OFFCURVE",
"1165 416 OFFCURVE",
"1150 399 CURVE",
"1101 335 OFFCURVE",
"981.999 203 OFFCURVE",
"885 203 CURVE SMOOTH",
"840 203 OFFCURVE",
"830 254 OFFCURVE",
"838 303 CURVE SMOOTH",
"919 795 LINE SMOOTH",
"929 853 OFFCURVE",
"897 888 OFFCURVE",
"838 888 CURVE SMOOTH",
"760 888 LINE",
"760 915 OFFCURVE",
"768 966 OFFCURVE",
"641 966 CURVE SMOOTH",
"364 966 OFFCURVE",
"79 648 OFFCURVE",
"79 281 CURVE SMOOTH",
"79 115 OFFCURVE",
"179 -16 OFFCURVE"
);
},
{
closed = 1;
nodes = (
"407 190 CURVE SMOOTH",
"326 190 OFFCURVE",
"308 260 OFFCURVE",
"308 324 CURVE SMOOTH",
"308 508 OFFCURVE",
"467 773 OFFCURVE",
"706 773 CURVE",
"628 474 LINE SMOOTH",
"604 380 OFFCURVE",
"546 190 OFFCURVE"
);
}
);
width = 1025;
},
{
anchors = (
{
name = top;
position = "{701, 953}";
}
);
layerId = "DE4BB00D-BABA-4D36-9D9A-44FD0E91C3DF";
name = Light;
paths = (
{
closed = 1;
nodes = (
"326 -16 CURVE SMOOTH",
"487.008 -16 OFFCURVE",
"642.09 84.7552 OFFCURVE",
"673.435 266.63 CURVE",
"647.039 105.527 OFFCURVE",
"721.857 0 OFFCURVE",
"845 0 CURVE SMOOTH",
"993 0 OFFCURVE",
"1144 139 OFFCURVE",
"1213 235 CURVE",
"1217 242 OFFCURVE",
"1218 246 OFFCURVE",
"1215 279 CURVE",
"1212 302 OFFCURVE",
"1192 364 OFFCURVE",
"1177 364 CURVE SMOOTH",
"1177 364 OFFCURVE",
"1169 365 OFFCURVE",
"1158 350 CURVE SMOOTH",
"1108 284 OFFCURVE",
"980 143 OFFCURVE",
"870 143 CURVE SMOOTH",
"796 143 OFFCURVE",
"784 219 OFFCURVE",
"793 278 CURVE SMOOTH",
"889 825 LINE SMOOTH",
"896 865 OFFCURVE",
"882 888 OFFCURVE",
"840 888 CURVE SMOOTH",
"775 888 LINE",
"782 923 OFFCURVE",
"787 966 OFFCURVE",
"667 966 CURVE SMOOTH",
"407 966 OFFCURVE",
"94 603 OFFCURVE",
"94 251 CURVE SMOOTH",
"94 99 OFFCURVE",
"183 -16 OFFCURVE"
);
},
{
closed = 1;
nodes = (
"392 130 CURVE SMOOTH",
"288 130 OFFCURVE",
"263 226 OFFCURVE",
"263 294 CURVE SMOOTH",
"263 500 OFFCURVE",
"463 856 OFFCURVE",
"744 826 CURVE",
"642 437 LINE SMOOTH",
"618 342 OFFCURVE",
"553 130 OFFCURVE"
);
}
);
width = 1025;
}
);
unicode = 0061;
},
{
glyphname = b;
lastChange = "2013-12-29 00:27:25 -0800";
layers = (
{
background = {
paths = (
{
closed = 1;
nodes = (
"405 772 CURVE",
"449 1069 OFFCURVE",
"611 1680 OFFCURVE",
"796 1680 CURVE SMOOTH",
"832 1680 OFFCURVE",
"846 1662 OFFCURVE",
"846 1620 CURVE SMOOTH",
"846 1383 OFFCURVE",
"600 996 OFFCURVE"
);
},
{
closed = 1;
nodes = (
"446 -9 CURVE SMOOTH",
"611 -9 OFFCURVE",
"760 62 OFFCURVE",
"922 243 CURVE SMOOTH",
"1021 352 OFFCURVE",
"878 450 OFFCURVE",
"819 383 CURVE SMOOTH",
"718 269 OFFCURVE",
"600 177 OFFCURVE",
"495 177 CURVE SMOOTH",
"347 177 OFFCURVE",
"368 392 OFFCURVE",
"391 560 CURVE",
"698 801 OFFCURVE",
"1030 1275 OFFCURVE",
"1061 1696 CURVE SMOOTH",
"1071 1818 OFFCURVE",
"993 1920 OFFCURVE",
"864 1920 CURVE SMOOTH",
"444 1920 OFFCURVE",
"187 1032 OFFCURVE",
"147 526 CURVE SMOOTH",
"122 205 OFFCURVE",
"196 -9 OFFCURVE"
);
}
);
};
layerId = "5ACEE878-7952-4CAC-A6A7-BEDE971843B4";
name = Regular;
paths = (
{
closed = 1;
nodes = (
"942 353 CURVE SMOOTH",
"1091 353 OFFCURVE",
"1262 427 OFFCURVE",
"1348 506 CURVE SMOOTH",
"1377 533 OFFCURVE",
"1382 548 OFFCURVE",
"1382 585 CURVE SMOOTH",
"1382 629 OFFCURVE",
"1358 682 OFFCURVE",
"1318 682 CURVE SMOOTH",
"1278 682 OFFCURVE",
"1164 563 OFFCURVE",
"1006 563 CURVE SMOOTH",
"884 563 OFFCURVE",
"915 655 OFFCURVE",
"822 748 CURVE",
"734 706 OFFCURVE",
"682 603 OFFCURVE",
"682 537 CURVE SMOOTH",
"682 414 OFFCURVE",
"796 353 OFFCURVE"
);
},
{
closed = 1;
nodes = (
"551 -16 CURVE SMOOTH",
"866 -16 OFFCURVE",
"1039 277 OFFCURVE",
"1039 674 CURVE SMOOTH",
"1039 831 OFFCURVE",
"942 931 OFFCURVE",
"845 946 CURVE SMOOTH",
"752 960 OFFCURVE",
"607 865 OFFCURVE",
"607 865 CURVE",
"771 996 OFFCURVE",
"999 1335 OFFCURVE",
"1040 1591 CURVE SMOOTH",
"1070 1784 OFFCURVE",
"1051 1920 OFFCURVE",
"857 1920 CURVE SMOOTH",
"471 1920 OFFCURVE",
"124 978 OFFCURVE",
"126 408 CURVE SMOOTH",
"127 156 OFFCURVE",
"275 -16 OFFCURVE"
);
},
{
closed = 1;
nodes = (
"577 176 CURVE SMOOTH",
"439 176 OFFCURVE",
"386 296 OFFCURVE",
"386 428 CURVE SMOOTH",
"386 591 OFFCURVE",
"473 774 OFFCURVE",
"655 774 CURVE SMOOTH",
"767 774 OFFCURVE",
"812 675 OFFCURVE",
"812 557 CURVE SMOOTH",
"812 386 OFFCURVE",
"716 176 OFFCURVE"
);
},
{
closed = 1;
nodes = (
"405 772 CURVE",
"418 1066 OFFCURVE",
"636 1678 OFFCURVE",
"794 1678 CURVE SMOOTH",
"830 1678 OFFCURVE",
"849 1663 OFFCURVE",
"843 1578 CURVE SMOOTH",
"824 1317 OFFCURVE",
"559 999 OFFCURVE"
);
}
);
width = 1135;
},
{
layerId = "DE4BB00D-BABA-4D36-9D9A-44FD0E91C3DF";
name = Light;
paths = (
{
closed = 1;
nodes = (
"893 373 CURVE SMOOTH",
"1034 373 OFFCURVE",
"1200 460 OFFCURVE",
"1295 548 CURVE SMOOTH",
"1316 568 OFFCURVE",
"1319 576 OFFCURVE",
"1319 606 CURVE SMOOTH",
"1319 640 OFFCURVE",
"1302 656 OFFCURVE",
"1285 656 CURVE SMOOTH",
"1267 656 OFFCURVE",
"1118 503 OFFCURVE",
"957 503 CURVE SMOOTH",
"812 505 OFFCURVE",
"891 627 OFFCURVE",
"796 620 CURVE SMOOTH",
"713 614 OFFCURVE",
"692 559 OFFCURVE",
"692 507 CURVE SMOOTH",
"692 426 OFFCURVE",
"759 373 OFFCURVE"
);
},
{
closed = 1;
nodes = (
"502 -16 CURVE SMOOTH",
"810.952 -16 OFFCURVE",
"953.632 283.144 OFFCURVE",
"956.115 551.14 CURVE SMOOTH",
"958.153 771.003 OFFCURVE",
"865.831 969.901 OFFCURVE",
"693.547 965.454 CURVE SMOOTH",
"648.969 964.304 OFFCURVE",
"599.036 949.539 OFFCURVE",
"544 918 CURVE",
"716 1045 OFFCURVE",
"931 1403 OFFCURVE",
"953 1621 CURVE SMOOTH",
"969 1784 OFFCURVE",
"919 1920 OFFCURVE",
"749 1920 CURVE SMOOTH",
"349 1920 OFFCURVE",
"130 670 OFFCURVE",
"130 375 CURVE SMOOTH",
"130 165 OFFCURVE",
"226 -16 OFFCURVE"
);
},
{
closed = 1;
nodes = (
"500 115 CURVE SMOOTH",
"343 115 OFFCURVE",
"271 223 OFFCURVE",
"271 395 CURVE SMOOTH",
"271 594 OFFCURVE",
"425 837 OFFCURVE",
"630 837 CURVE SMOOTH",
"808 837 OFFCURVE",
"817 656 OFFCURVE",
"817 527 CURVE SMOOTH",
"817 345 OFFCURVE",
"679 115 OFFCURVE"
);
},
{
closed = 1;
nodes = (
"305 803 CURVE",
"329 935 OFFCURVE",
"549 1788 OFFCURVE",
"740 1788 CURVE SMOOTH",
"800 1788 OFFCURVE",
"821 1720 OFFCURVE",
"821 1678 CURVE SMOOTH",
"821 1290 OFFCURVE",
"341 844 OFFCURVE"
);
}
);
width = 1086;
}
);
unicode = 0062;
},
{
glyphname = c;
lastChange = "2013-12-29 00:36:09 -0800";
layers = (
{
background = {
paths = (
{
closed = 1;
nodes = (
"438 -16 CURVE SMOOTH",
"705 -33 OFFCURVE",
"884 147 OFFCURVE",
"964 267 CURVE SMOOTH",
"1002 324 OFFCURVE",
"942 427 OFFCURVE",
"880 374 CURVE SMOOTH",
"753 266 OFFCURVE",
"637 139 OFFCURVE",
"478 154 CURVE SMOOTH",
"358 165 OFFCURVE",
"281 251 OFFCURVE",
"283 395 CURVE SMOOTH",
"287 675 OFFCURVE",
"471 790 OFFCURVE",
"563 788 CURVE SMOOTH",
"651 786 OFFCURVE",
"669 669 OFFCURVE",
"589 573 CURVE SMOOTH",
"540 515 OFFCURVE",
"629 397 OFFCURVE",
"723 479 CURVE SMOOTH",
"768 518 OFFCURVE",
"821 580 OFFCURVE",
"827 711 CURVE SMOOTH",
"834 863 OFFCURVE",
"718 966 OFFCURVE",
"559 966 CURVE SMOOTH",
"294 966 OFFCURVE",
"92 703 OFFCURVE",
"66 413 CURVE SMOOTH",
"44 169 OFFCURVE",
"201 -1 OFFCURVE"
);
}
);
};
layerId = "5ACEE878-7952-4CAC-A6A7-BEDE971843B4";
name = Regular;
paths = (
{
closed = 1;
nodes = (
"199 966 OFFCURVE",
"64 544 OFFCURVE",
"64 368 CURVE SMOOTH",
"64 66 OFFCURVE",
"318 -17 OFFCURVE",
"473 -17 CURVE SMOOTH",
"721 -17 OFFCURVE",
"888 152 OFFCURVE",
"964 267 CURVE SMOOTH",
"1007 332 OFFCURVE",
"941 428 OFFCURVE",
"880 374 CURVE SMOOTH",
"760 272 OFFCURVE",
"650 153 OFFCURVE",
"504 153 CURVE SMOOTH",
"369 153 OFFCURVE",
"278 241 OFFCURVE",
"283 395 CURVE SMOOTH",
"292 669 OFFCURVE",
"445 777 OFFCURVE",
"546 777 CURVE SMOOTH",
"597 777 OFFCURVE",
"636 748 OFFCURVE",
"636 707 CURVE SMOOTH",
"636 650 OFFCURVE",
"600 643 OFFCURVE",
"600 603 CURVE SMOOTH",
"600 562 OFFCURVE",
"631 522 OFFCURVE",
"674 522 CURVE SMOOTH",
"737 522 OFFCURVE",
"832 613 OFFCURVE",
"832 735 CURVE SMOOTH",
"832 855 OFFCURVE",
"729 966 OFFCURVE",
"559 966 CURVE SMOOTH"
);
}
);
width = 827;
},
{
layerId = "DE4BB00D-BABA-4D36-9D9A-44FD0E91C3DF";
name = Light;
paths = (
{
closed = 1;
nodes = (
"327 966 OFFCURVE",
"110 688 OFFCURVE",
"85 410 CURVE SMOOTH",
"64 184 OFFCURVE",
"203 -2 OFFCURVE",
"424 -16 CURVE SMOOTH",
"676 -32 OFFCURVE",
"925 242 OFFCURVE",
"1002 358 CURVE SMOOTH",
"1026 393 OFFCURVE",
"992 450 OFFCURVE",
"963 425 CURVE SMOOTH",
"837 318 OFFCURVE",
"633 93 OFFCURVE",
"459 109 CURVE SMOOTH",
"324 122 OFFCURVE",
"251 236 OFFCURVE",
"253 395 CURVE SMOOTH",
"257 696 OFFCURVE",
"473 833 OFFCURVE",
"578 831 CURVE SMOOTH",
"647 829 OFFCURVE",
"683 784 OFFCURVE",
"684 725 CURVE SMOOTH",
"684 682 OFFCURVE",
"665 631 OFFCURVE",
"626 584 CURVE SMOOTH",
"599 551 OFFCURVE",
"655 477 OFFCURVE",
"718 532 CURVE SMOOTH",
"760 568 OFFCURVE",
"806 624 OFFCURVE",
"811 742 CURVE SMOOTH",
"818 876 OFFCURVE",
"717 966 OFFCURVE",
"573 966 CURVE SMOOTH"
);
}
);
width = 827;
}
);
unicode = 0063;
},
{
glyphname = d;
lastChange = "2013-12-29 02:59:11 -0800";
layers = (
{
layerId = "5ACEE878-7952-4CAC-A6A7-BEDE971843B4";
name = Regular;
paths = (
{
closed = 1;
nodes = (
"855 739 CURVE",
"943 1141 OFFCURVE",
"1065 1680 OFFCURVE",
"1255 1680 CURVE SMOOTH",
"1281 1680 OFFCURVE",
"1301 1667 OFFCURVE",
"1301 1619 CURVE SMOOTH",
"1301 1344 OFFCURVE",
"1068 1038 OFFCURVE"
);
},
{
closed = 1;
nodes = (
"298 -16 CURVE SMOOTH",
"450 -16 OFFCURVE",
"559 57 OFFCURVE",
"625 193 CURVE",
"673 61 OFFCURVE",
"774 -8 OFFCURVE",
"896 -8 CURVE SMOOTH",
"1112 -8 OFFCURVE",
"1266 130 OFFCURVE",
"1371 248 CURVE SMOOTH",
"1381 260 OFFCURVE",
"1401 290 OFFCURVE",
"1401 318 CURVE SMOOTH",
"1401 371 OFFCURVE",
"1358 404 OFFCURVE",
"1315 403 CURVE SMOOTH",
"1296 403 OFFCURVE",
"1283 402 OFFCURVE",
"1271 389 CURVE SMOOTH",
"1214 326 OFFCURVE",
"1067 175 OFFCURVE",
"936 175 CURVE SMOOTH",
"852 175 OFFCURVE",
"801 260 OFFCURVE",
"824 454 CURVE",
"1080 788 OFFCURVE",
"1517 1273 OFFCURVE",
"1517 1727 CURVE SMOOTH",
"1517 1828 OFFCURVE",
"1440 1921 OFFCURVE",
"1320 1921 CURVE SMOOTH",
"1025 1921 OFFCURVE",
"820 1520 OFFCURVE",
"690 951 CURVE",
"379 1052 OFFCURVE",
"36 648 OFFCURVE",
"36 283 CURVE SMOOTH",
"36 102 OFFCURVE",
"146 -16 OFFCURVE"
);
},
{
closed = 1;
nodes = (
"364 190 CURVE SMOOTH",
"323 190 OFFCURVE",
"265 207 OFFCURVE",
"265 325 CURVE SMOOTH",
"265 527 OFFCURVE",
"437 773 OFFCURVE",
"663 773 CURVE",
"612 551 LINE SMOOTH",
"545 261 OFFCURVE",
"465 190 OFFCURVE"
);
}
);
width = 1128;
},
{
layerId = "DE4BB00D-BABA-4D36-9D9A-44FD0E91C3DF";
name = Light;
paths = (
{
closed = 1;
nodes = (
"842 619 CURVE",
"929 1027 OFFCURVE",
"1086 1740 OFFCURVE",
"1301 1740 CURVE",
"1339 1740 OFFCURVE",
"1376 1717 OFFCURVE",
"1376 1649 CURVE",
"1376 1364 OFFCURVE",
"1137 1013 OFFCURVE"
);
},
{
closed = 1;
nodes = (
"321 -16 CURVE",
"487 -16 OFFCURVE",
"621 94 OFFCURVE",
"676 212 CURVE",
"702 35 OFFCURVE",
"805 -8 OFFCURVE",
"935 -8 CURVE",
"1141 -8 OFFCURVE",
"1274 123 OFFCURVE",
"1375 239 CURVE",
"1384 250 OFFCURVE",
"1397 271 OFFCURVE",
"1397 290 CURVE",
"1397 324 OFFCURVE",
"1371 346 OFFCURVE",
"1343 345 CURVE",
"1325 345 OFFCURVE",
"1318 337 OFFCURVE",
"1302 321 CURVE",
"1246 257 OFFCURVE",
"1115 135 OFFCURVE",
"974 135 CURVE",
"869 135 OFFCURVE",
"810 220 OFFCURVE",
"836 436 CURVE",
"1086 771 OFFCURVE",
"1528 1312 OFFCURVE",
"1528 1757 CURVE",
"1528 1843 OFFCURVE",
"1463 1921 OFFCURVE",
"1365 1921 CURVE",
"1093 1921 OFFCURVE",
"880 1509 OFFCURVE",
"755 930 CURVE",
"469 1063 OFFCURVE",
"85 628 OFFCURVE",
"85 267 CURVE",
"85 102 OFFCURVE",
"180 -2 OFFCURVE"
);
},
{
closed = 1;
nodes = (
"381 118 CURVE",
"336 118 OFFCURVE",
"236 155 OFFCURVE",
"236 297 CURVE",
"236 542 OFFCURVE",
"486 894 OFFCURVE",
"744 820 CURVE",
"686 533 LINE",
"641 334 OFFCURVE",
"495 118 OFFCURVE"
);
}
);
width = 1188;
}
);
unicode = 0064;
},
{
glyphname = e;
lastChange = "2013-12-29 00:27:25 -0800";
layers = (
{
layerId = "5ACEE878-7952-4CAC-A6A7-BEDE971843B4";
name = Regular;
paths = (
{
closed = 1;
nodes = (
"289 422 CURVE",
"289 587 OFFCURVE",
"420 775 OFFCURVE",
"564 775 CURVE SMOOTH",
"612 775 OFFCURVE",
"656 751 OFFCURVE",
"649 681 CURVE SMOOTH",
"638 571 OFFCURVE",
"409 464 OFFCURVE"
);
},
{
closed = 1;
nodes = (
"461 -17 CURVE SMOOTH",
"710 -24 OFFCURVE",
"945 131 OFFCURVE",
"1037 257 CURVE SMOOTH",
"1102 345 OFFCURVE",
"995.999 419 OFFCURVE",
"952 376 CURVE SMOOTH",
"716 149 OFFCURVE",
"364 97.9999 OFFCURVE",
"299 300 CURVE",
"633 388 OFFCURVE",
"827 494 OFFCURVE",
"827 717 CURVE SMOOTH",
"827 873 OFFCURVE",
"706 966 OFFCURVE",
"552 966 CURVE SMOOTH",
"271 966 OFFCURVE",
"64 648 OFFCURVE",
"64 377 CURVE SMOOTH",
"64 105 OFFCURVE",
"261 -11 OFFCURVE"
);
}
);
width = 842;
},
{
layerId = "DE4BB00D-BABA-4D36-9D9A-44FD0E91C3DF";
name = Light;
paths = (
{
closed = 1;
nodes = (
"245 415 CURVE",
"245 598 OFFCURVE",
"404 846 OFFCURVE",
"581 846 CURVE",
"640 846 OFFCURVE",
"705 802 OFFCURVE",
"695 709 CURVE",
"681 563 OFFCURVE",
"342 426 OFFCURVE"
);
},
{
closed = 1;
nodes = (
"481 -17 CURVE SMOOTH",
"719 -34 OFFCURVE",
"924 125 OFFCURVE",
"1012 245 CURVE",
"1053 300 OFFCURVE",
"992 344 OFFCURVE",
"972 324 CURVE",
"661 16 OFFCURVE",
"303 24 OFFCURVE",
"254 322 CURVE",
"601 371 OFFCURVE",
"814 539 OFFCURVE",
"814 748 CURVE",
"814 885 OFFCURVE",
"708 967 OFFCURVE",
"569 967 CURVE",
"308 967 OFFCURVE",
"112 675 OFFCURVE",
"112 377 CURVE",
"111 140 OFFCURVE",
"293 -4 OFFCURVE"
);
}
);
width = 842;
}
);
unicode = 0065;
},
{
glyphname = f;
lastChange = "2013-12-29 00:36:58 -0800";
layers = (
{
layerId = "5ACEE878-7952-4CAC-A6A7-BEDE971843B4";
name = Regular;
paths = (
{
closed = 1;
nodes = (
"53 -276 OFFCURVE",
"81 -604 OFFCURVE",
"289 -604 CURVE SMOOTH",
"549 -604 OFFCURVE",
"652 -267 OFFCURVE",
"652 -29 CURVE SMOOTH",
"652 154 OFFCURVE",
"589 305 OFFCURVE",
"533 427 CURVE",
"735 434 OFFCURVE",
"1009 453 OFFCURVE",
"1009 652 CURVE SMOOTH",
"1009 691 OFFCURVE",
"996 721 OFFCURVE",
"973 721 CURVE SMOOTH",
"967 721 OFFCURVE",
"962 719 OFFCURVE",
"955 715 CURVE SMOOTH",
"817 638 OFFCURVE",
"745 587 OFFCURVE",
"578 587 CURVE SMOOTH",
"539 587 OFFCURVE",
"493 593 OFFCURVE",
"464 603 CURVE",
"661 833 OFFCURVE",
"1001 1243 OFFCURVE",
"1001 1624 CURVE SMOOTH",
"1001 1762 OFFCURVE",
"926 1856 OFFCURVE",
"801 1856 CURVE SMOOTH",
"245 1856 OFFCURVE",
"53 521 OFFCURVE",
"53 -38 CURVE SMOOTH"
);
},
{
closed = 1;
nodes = (
"421 770 OFFCURVE",
"349 686 CURVE",
"375 775 OFFCURVE",
"535 1631 OFFCURVE",
"764 1631 CURVE SMOOTH",
"805 1631 OFFCURVE",
"814 1583 OFFCURVE",
"814 1529 CURVE SMOOTH",
"814 1243 OFFCURVE"
);
},
{
closed = 1;
nodes = (
"441 -62 LINE SMOOTH",
"441 -173 OFFCURVE",
"440 -379 OFFCURVE",
"321 -379 CURVE SMOOTH",
"282 -379 OFFCURVE",
"278 -187 OFFCURVE",
"278 -47 CURVE SMOOTH",
"278 144 OFFCURVE",
"296 330 OFFCURVE",
"305 522 CURVE",
"377 384 OFFCURVE",
"441 187 OFFCURVE",
"441 -57 CURVE SMOOTH"
);
}
);
width = 706;
},
{
layerId = "DE4BB00D-BABA-4D36-9D9A-44FD0E91C3DF";
name = Light;
paths = (
{
closed = 1;
nodes = (
"83 -273 OFFCURVE",
"111 -607 OFFCURVE",
"289 -607 CURVE SMOOTH",
"523 -607 OFFCURVE",
"622 -259 OFFCURVE",
"622 -29 CURVE SMOOTH",
"622 168 OFFCURVE",
"547 326 OFFCURVE",
"487 456 CURVE",
"667 425 OFFCURVE",
"960 464 OFFCURVE",
"979 652 CURVE SMOOTH",
"981 673 OFFCURVE",
"980 691 OFFCURVE",
"966 691 CURVE SMOOTH",
"955 691 OFFCURVE",
"927 677 OFFCURVE",
"877 648 CURVE SMOOTH",
"812 612 OFFCURVE",
"724 557 OFFCURVE",
"578 557 CURVE SMOOTH",
"530 557 OFFCURVE",
"426 570 OFFCURVE",
"391 603 CURVE",
"702 976 OFFCURVE",
"1020 1376 OFFCURVE",
"1020 1722 CURVE SMOOTH",
"1020 1846 OFFCURVE",
"956 1924 OFFCURVE",
"850 1924 CURVE SMOOTH",
"324 1924 OFFCURVE",
"83 515 OFFCURVE",
"83 -38 CURVE SMOOTH"
);
},
{
closed = 1;
nodes = (
"294 664 CURVE",
"321 757 OFFCURVE",
"553 1759 OFFCURVE",
"813 1759 CURVE SMOOTH",
"880 1759 OFFCURVE",
"893 1686 OFFCURVE",
"893 1627 CURVE SMOOTH",
"893 1348 OFFCURVE",
"532 953 OFFCURVE"
);
},
{
closed = 1;
nodes = (
"471 -62 LINE SMOOTH",
"471 -173 OFFCURVE",
"470 -442 OFFCURVE",
"321 -442 CURVE SMOOTH",
"244 -442 OFFCURVE",
"242 -195 OFFCURVE",
"242 -47 CURVE SMOOTH",
"242 179 OFFCURVE",
"254 321 OFFCURVE",
"279 548 CURVE",
"369 413 OFFCURVE",
"471 251 OFFCURVE",
"471 -57 CURVE SMOOTH"
);
}
);
width = 706;
}
);
unicode = 0066;
},
{
glyphname = g;
lastChange = "2013-12-29 00:37:52 -0800";
layers = (
{
layerId = "5ACEE878-7952-4CAC-A6A7-BEDE971843B4";
name = Regular;
paths = (
{
closed = 1;
nodes = (
"409 965 OFFCURVE",
"105 648 OFFCURVE",
"105 281 CURVE SMOOTH",
"105 123 OFFCURVE",
"210 0 OFFCURVE",
"375 0 CURVE SMOOTH",
"474 0 OFFCURVE",
"566 57 OFFCURVE",
"619 136 CURVE",
"589 -5 LINE",
"437 -121 OFFCURVE",
"286 -237 OFFCURVE",
"162 -378 CURVE SMOOTH",
"84 -466 OFFCURVE",
"-33 -588 OFFCURVE",
"-33 -729 CURVE SMOOTH",
"-33 -870 OFFCURVE",
"62 -928 OFFCURVE",
"209 -928 CURVE SMOOTH",
"352 -928 OFFCURVE",
"484 -867 OFFCURVE",
"590 -739 CURVE SMOOTH",
"719 -581 OFFCURVE",
"779 -349 OFFCURVE",
"825 -108 CURVE",
"1030 31 OFFCURVE",
"1227 118 OFFCURVE",
"1366 214 CURVE SMOOTH",
"1487 299 OFFCURVE",
"1403 412 OFFCURVE",
"1310 392 CURVE SMOOTH",
"1214 371 OFFCURVE",
"994 229 OFFCURVE",
"854 114 CURVE",
"995 795 LINE SMOOTH",
"1010 868 OFFCURVE",
"928 925 OFFCURVE",
"830 885 CURVE",
"829 885 OFFCURVE",
"839 953 OFFCURVE",
"728 956 CURVE SMOOTH"
);
},
{
closed = 1;
nodes = (
"538 -387 OFFCURVE",
"431 -754 OFFCURVE",
"220 -754 CURVE SMOOTH",
"191 -754 OFFCURVE",
"178 -724 OFFCURVE",
"178 -699 CURVE SMOOTH",
"178 -550 OFFCURVE",
"368 -397 OFFCURVE",
"573 -226 CURVE"
);
},
{
closed = 1;
nodes = (
"675 474 LINE SMOOTH",
"649 380 OFFCURVE",
"591 192 OFFCURVE",
"449 192 CURVE SMOOTH",
"365 192 OFFCURVE",
"346 260 OFFCURVE",
"346 324 CURVE SMOOTH",
"346 508 OFFCURVE",
"508 773 OFFCURVE",
"755 773 CURVE"
);
}
);
width = 1052;
},
{
layerId = "DE4BB00D-BABA-4D36-9D9A-44FD0E91C3DF";
name = Light;
paths = (
{
closed = 1;
nodes = (
"373 959 OFFCURVE",
"73 628 OFFCURVE",
"73 277 CURVE SMOOTH",
"73 134 OFFCURVE",
"166 26 OFFCURVE",
"313 26 CURVE SMOOTH",
"403 26 OFFCURVE",
"568 62 OFFCURVE",
"633 192 CURVE",
"586 -7 LINE",
"468 -97 OFFCURVE",
"308 -218 OFFCURVE",
"178 -346 CURVE SMOOTH",
"48 -475 OFFCURVE",
"-52 -612 OFFCURVE",
"-52 -735 CURVE SMOOTH",
"-52 -855 OFFCURVE",
"1 -940 OFFCURVE",
"136 -940 CURVE SMOOTH",
"312 -940 OFFCURVE",
"437 -847 OFFCURVE",
"531 -691 CURVE SMOOTH",
"625 -534 OFFCURVE",
"687 -313 OFFCURVE",
"736 -57 CURVE",
"947 88 OFFCURVE",
"1044 166 OFFCURVE",
"1183 236 CURVE",
"1272 299 OFFCURVE",
"1217 374 OFFCURVE",
"1150 360 CURVE",
"1004 289 OFFCURVE",
"901 192 OFFCURVE",
"744 74 CURVE",
"914 826 LINE SMOOTH",
"924 875 OFFCURVE",
"850 903 OFFCURVE",
"798 880 CURVE",
"798 880 OFFCURVE",
"830 948 OFFCURVE",
"675 951 CURVE SMOOTH"
);
},
{
closed = 1;
nodes = (
"504 -402 OFFCURVE",
"410 -812 OFFCURVE",
"147 -812 CURVE SMOOTH",
"94 -812 OFFCURVE",
"75 -762 OFFCURVE",
"75 -727 CURVE SMOOTH",
"75 -563 OFFCURVE",
"358 -321 OFFCURVE",
"563 -151 CURVE"
);
},
{
closed = 1;
nodes = (
"642 462 LINE SMOOTH",
"616 368 OFFCURVE",
"551 158 OFFCURVE",
"387 158 CURVE SMOOTH",
"280 158 OFFCURVE",
"254 252 OFFCURVE",
"254 320 CURVE SMOOTH",
"254 526 OFFCURVE",
"452 855 OFFCURVE",
"742 826 CURVE"
);
}
);
width = 1012;
}
);
unicode = 0067;
},
{
glyphname = h;
lastChange = "2013-12-29 03:00:04 -0800";
layers = (
{
layerId = "5ACEE878-7952-4CAC-A6A7-BEDE971843B4";
name = Regular;
paths = (
{
closed = 1;
nodes = (
"362 918 CURVE",
"393 1131 OFFCURVE",
"561 1781 OFFCURVE",
"779 1740 CURVE SMOOTH",
"809 1734 OFFCURVE",
"819 1714 OFFCURVE",
"818 1670 CURVE",
"808 1496 OFFCURVE",
"613 1161 OFFCURVE"
);
},
{
closed = 1;
nodes = (
"145 0 CURVE SMOOTH",
"243 -17 OFFCURVE",
"264 38 OFFCURVE",
"291 113 CURVE SMOOTH",
"382 364 OFFCURVE",
"522 495 OFFCURVE",
"651 591 CURVE SMOOTH",
"811 710 OFFCURVE",
"606 429 OFFCURVE",
"597 185 CURVE SMOOTH",
"592 34 OFFCURVE",
"698 -20 OFFCURVE",
"816 0 CURVE SMOOTH",
"1001 31 OFFCURVE",
"1159 123 OFFCURVE",
"1268 196 CURVE SMOOTH",
"1313 228 OFFCURVE",
"1329 271 OFFCURVE",
"1328 311 CURVE SMOOTH",
"1326 367 OFFCURVE",
"1291 415 OFFCURVE",
"1251 415 CURVE SMOOTH",
"1242 415 OFFCURVE",
"1233 412 OFFCURVE",
"1225 407 CURVE",
"1197 383 OFFCURVE",
"946 194 OFFCURVE",
"861 194 CURVE SMOOTH",
"844 194 OFFCURVE",
"834 200 OFFCURVE",
"834 213 CURVE SMOOTH",
"828 347 OFFCURVE",
"970 606 OFFCURVE",
"1037 807 CURVE SMOOTH",
"1067 897 OFFCURVE",
"992 966 OFFCURVE",
"888 966 CURVE SMOOTH",
"790 966 OFFCURVE",
"582 817 OFFCURVE",
"309 440 CURVE",
"351 731 LINE",
"890 1214 OFFCURVE",
"1028 1496 OFFCURVE",
"1052 1726 CURVE",
"1060 1874 OFFCURVE",
"975 1982 OFFCURVE",
"826 1982 CURVE SMOOTH",
"319 1982 OFFCURVE",
"85 900 OFFCURVE",
"56 333 CURVE SMOOTH",
"50 236 OFFCURVE",
"41 18 OFFCURVE"
);
}
);
width = 1081;
},
{
layerId = "DE4BB00D-BABA-4D36-9D9A-44FD0E91C3DF";
name = Light;
paths = (
{
closed = 1;
nodes = (
"283 787 CURVE",
"313 1071 OFFCURVE",
"573 1792 OFFCURVE",
"750 1761 CURVE",
"806 1751 OFFCURVE",
"826 1715 OFFCURVE",
"828 1660 CURVE",
"828 1480 OFFCURVE",
"543 1033 OFFCURVE"
);
},
{
closed = 1;
nodes = (
"146 0 CURVE",
"225 -13 OFFCURVE",
"277 25 OFFCURVE",
"308 95 CURVE",
"395 299 OFFCURVE",
"553 493 OFFCURVE",
"644 592 CURVE",
"1033 933 OFFCURVE",
"695 575 OFFCURVE",
"681 203 CURVE",
"684 75 OFFCURVE",
"727 -18 OFFCURVE",
"848 0 CURVE",
"1040 24 OFFCURVE",
"1223 143 OFFCURVE",
"1335 216 CURVE",
"1339 173 OFFCURVE",
"1384 274 OFFCURVE",
"1380 306 CURVE",
"1376 348 OFFCURVE",
"1347 380 OFFCURVE",
"1330 380 CURVE",
"1314 380 OFFCURVE",
"1304 364 OFFCURVE",
"1280 346 CURVE",
"1240 314 OFFCURVE",
"1018 134 OFFCURVE",
"913 134 CURVE",
"880 134 OFFCURVE",
"848 150 OFFCURVE",
"844 183 CURVE",
"829 325 OFFCURVE",
"963 661 OFFCURVE",
"1018 780 CURVE SMOOTH",
"1050 866 OFFCURVE",
"1003 955 OFFCURVE",
"913 955 CURVE",
"824 955 OFFCURVE",
"505 776 OFFCURVE",
"245 250 CURVE",
"273 635 LINE",
"824 1115 OFFCURVE",
"976 1472 OFFCURVE",
"988 1697 CURVE",
"987 1830 OFFCURVE",
"910 1920 OFFCURVE",
"773 1920 CURVE",
"288 1920 OFFCURVE",
"85 872 OFFCURVE",
"89 311 CURVE",
"89 218 OFFCURVE",
"78 12 OFFCURVE"
);
}
);
width = 1106.95;
}
);
unicode = 0068;
},
{
glyphname = i;
lastChange = "2013-12-29 02:57:31 -0800";
layers = (
{
layerId = "5ACEE878-7952-4CAC-A6A7-BEDE971843B4";
name = Regular;
paths = (
{
closed = 1;
nodes = (
"589 1152 CURVE SMOOTH",
"699 1152 OFFCURVE",
"773 1218 OFFCURVE",
"773 1331 CURVE SMOOTH",
"773 1429 OFFCURVE",
"705 1471 OFFCURVE",
"613 1471 CURVE SMOOTH",
"503 1471 OFFCURVE",
"417 1408 OFFCURVE",
"417 1304 CURVE SMOOTH",
"417 1203 OFFCURVE",
"482 1152 OFFCURVE"
);
},
{
closed = 1;
nodes = (
"356 -6 CURVE SMOOTH",
"510 -27 OFFCURVE",
"698 57 OFFCURVE",
"855 247 CURVE SMOOTH",
"875 272 OFFCURVE",
"886 286 OFFCURVE",
"887 307 CURVE SMOOTH",
"890 368 OFFCURVE",
"843 404 OFFCURVE",
"793 403 CURVE SMOOTH",
"772 403 OFFCURVE",
"756 393 OFFCURVE",
"741 375 CURVE SMOOTH",
"516 118 OFFCURVE",
"342 124 OFFCURVE",
"342 315 CURVE SMOOTH",
"342 457 OFFCURVE",
"440 724 OFFCURVE",
"514 863 CURVE SMOOTH",
"543 917 OFFCURVE",
"475 960 OFFCURVE",
"427 960 CURVE SMOOTH",
"364 960 OFFCURVE",
"320 951 OFFCURVE",
"278 873 CURVE SMOOTH",
"197 722 OFFCURVE",
"114 458 OFFCURVE",
"114 282 CURVE SMOOTH",
"114 124 OFFCURVE",
"212 14 OFFCURVE"
);
}
);
width = 601;
},
{
layerId = "DE4BB00D-BABA-4D36-9D9A-44FD0E91C3DF";
name = Light;
paths = (
{
closed = 1;
nodes = (
"559 1182 CURVE SMOOTH",
"654 1182 OFFCURVE",
"713 1247 OFFCURVE",
"713 1331 CURVE SMOOTH",
"713 1395 OFFCURVE",
"662 1441 OFFCURVE",
"583 1441 CURVE SMOOTH",
"487 1441 OFFCURVE",
"417 1389 OFFCURVE",
"417 1304 CURVE SMOOTH",
"417 1222 OFFCURVE",
"466 1182 OFFCURVE"
);
},
{
closed = 1;
nodes = (
"326 1 CURVE SMOOTH",
"470 -19 OFFCURVE",
"634 60 OFFCURVE",
"785 243 CURVE",
"804 268 OFFCURVE",
"809 281 OFFCURVE",
"810 295 CURVE SMOOTH",
"812 327 OFFCURVE",
"782 351 OFFCURVE",
"746 350 CURVE",
"734 349 OFFCURVE",
"724 341 OFFCURVE",
"717 332 CURVE",
"477 58 OFFCURVE",
"257 62 OFFCURVE",
"265 287 CURVE SMOOTH",
"270 434 OFFCURVE",
"399 759 OFFCURVE",
"474 900 CURVE SMOOTH",
"491 930 OFFCURVE",
"453 953 OFFCURVE",
"414 953 CURVE SMOOTH",
"356 953 OFFCURVE",
"336 946 OFFCURVE",
"302 882 CURVE SMOOTH",
"222 733 OFFCURVE",
"110 430 OFFCURVE",
"110 259 CURVE SMOOTH",
"110 116 OFFCURVE",
"197 19 OFFCURVE"
);
}
);
width = 601.005;
}
);
unicode = 0069;
},
{
glyphname = j;
lastChange = "2013-12-29 00:27:25 -0800";
layers = (
{
layerId = "5ACEE878-7952-4CAC-A6A7-BEDE971843B4";
name = Regular;
paths = (
{
closed = 1;
nodes = (
"562 1152 CURVE SMOOTH",
"672 1152 OFFCURVE",
"746 1218 OFFCURVE",
"746 1331 CURVE SMOOTH",
"746 1429 OFFCURVE",
"678 1471 OFFCURVE",
"586 1471 CURVE SMOOTH",
"476 1471 OFFCURVE",
"390 1408 OFFCURVE",
"390 1304 CURVE SMOOTH",
"390 1203 OFFCURVE",
"455 1152 OFFCURVE"
);
},
{
closed = 1;
nodes = (
"287 -384 CURVE SMOOTH",
"234 -384 OFFCURVE",
"234 -258 OFFCURVE",
"240 -192 CURVE SMOOTH",
"260 39 OFFCURVE",
"306 246 OFFCURVE",
"358 447 CURVE",
"388 299 OFFCURVE",
"429 147 OFFCURVE",
"414 -32 CURVE SMOOTH",
"401.075 -187 OFFCURVE",
"379 -384 OFFCURVE"
);
},
{
closed = 1;
nodes = (
"235 -608 CURVE SMOOTH",
"486 -608 OFFCURVE",
"584 -281 OFFCURVE",
"606 -32 CURVE SMOOTH",
"620 128 OFFCURVE",
"589 267 OFFCURVE",
"554 384 CURVE",
"733 386 OFFCURVE",
"969.999 426 OFFCURVE",
"969.999 618 CURVE SMOOTH",
"969.999 658.92 OFFCURVE",
"953.333 692.667 OFFCURVE",
"912 672 CURVE",
"734 593 OFFCURVE",
"618 579 OFFCURVE",
"396 544 CURVE",
"466 704 LINE SMOOTH",
"489 756 OFFCURVE",
"525 832 OFFCURVE",
"530 895 CURVE SMOOTH",
"533 932 OFFCURVE",
"511 960 OFFCURVE",
"470 960 CURVE SMOOTH",
"337 960 OFFCURVE",
"298 922 OFFCURVE",
"255 820 CURVE SMOOTH",
"158 592 OFFCURVE",
"57 278 OFFCURVE",
"33 0 CURVE SMOOTH",
"9.99999 -258 OFFCURVE",
"-8 -608 OFFCURVE"
);
}
);
width = 646;
},
{
layerId = "DE4BB00D-BABA-4D36-9D9A-44FD0E91C3DF";
name = Light;
paths = (
{
closed = 1;
nodes = (
"562 1182 CURVE",
"656.567 1182 OFFCURVE",
"716 1235.44 OFFCURVE",
"716 1331 CURVE",
"716 1408.27 OFFCURVE",
"665.484 1441 OFFCURVE",
"586 1441 CURVE",
"489.811 1441 OFFCURVE",
"420 1388.79 OFFCURVE",
"420 1304 CURVE",
"420 1221.59 OFFCURVE",
"469.363 1182 OFFCURVE"
);
},
{
closed = 1;
nodes = (
"287 -443 CURVE",
"200 -443 OFFCURVE",
"203.633 -261 OFFCURVE",
"210.112 -189 CURVE",
"230.283 43.5678 OFFCURVE",
"276.827 253.013 OFFCURVE",
"328.956 454.514 CURVE",
"449 332 OFFCURVE",
"460 162 OFFCURVE",
"443.896 -34 CURVE",
"429 -200 OFFCURVE",
"410 -443 OFFCURVE"
);
},
{
closed = 1;
nodes = (
"235 -607 CURVE",
"462 -607 OFFCURVE",
"554.563 -273 OFFCURVE",
"576.114 -29 CURVE",
"591.25 143.597 OFFCURVE",
"553 269 OFFCURVE",
"513 394 CURVE",
"694 391 OFFCURVE",
"920 438 OFFCURVE",
"920 599 CURVE",
"920 624 OFFCURVE",
"915 631 OFFCURVE",
"896 621 CURVE",
"785 570 OFFCURVE",
"650 506 OFFCURVE",
"346.505 505.714 CURVE",
"439 743 LINE",
"462 795 OFFCURVE",
"496 866 OFFCURVE",
"500 924 CURVE",
"502 945 OFFCURVE",
"492 956 OFFCURVE",
"470 956 CURVE",
"353 956 OFFCURVE",
"322 927 OFFCURVE",
"283 835 CURVE",
"186 608 OFFCURVE",
"86.5972 272.042 OFFCURVE",
"62.8815 -3 CURVE",
"40.1104 -258 OFFCURVE",
"26 -607 OFFCURVE"
);
}
);
width = 666;
}
);
unicode = 006A;
},
{
glyphname = k;
lastChange = "2013-12-29 00:58:30 -0800";
layers = (
{
layerId = "5ACEE878-7952-4CAC-A6A7-BEDE971843B4";
name = Regular;
paths = (
{
closed = 1;
nodes = (
"280 1920 OFFCURVE",
"106 671 OFFCURVE",
"123 230 CURVE SMOOTH",
"127 134 OFFCURVE",
"140 -11 OFFCURVE",
"224 -11 CURVE SMOOTH",
"471 -11 OFFCURVE",
"690 718 OFFCURVE",
"929 718 CURVE SMOOTH",
"961 718 OFFCURVE",
"963 688 OFFCURVE",
"961 672 CURVE SMOOTH",
"950 560 OFFCURVE",
"638 392 OFFCURVE",
"642 184 CURVE SMOOTH",
"645 22 OFFCURVE",
"737 -20 OFFCURVE",
"879 -20 CURVE SMOOTH",
"1063 -20 OFFCURVE",
"1305 156 OFFCURVE",
"1390 293 CURVE SMOOTH",
"1436 367 OFFCURVE",
"1347 499 OFFCURVE",
"1292 419 CURVE SMOOTH",
"1156 222 OFFCURVE",
"868 55 OFFCURVE",
"868 235 CURVE SMOOTH",
"868 343 OFFCURVE",
"1200 512 OFFCURVE",
"1221 723 CURVE SMOOTH",
"1234 854 OFFCURVE",
"1167 939 OFFCURVE",
"1037 941 CURVE SMOOTH",
"801 944 OFFCURVE",
"594 768 OFFCURVE",
"333 284 CURVE",
"323 366 OFFCURVE",
"330 507 OFFCURVE",
"356 604 CURVE",
"472 710 OFFCURVE",
"1039 1315 OFFCURVE",
"1039 1696 CURVE SMOOTH",
"1039 1823 OFFCURVE",
"971 1920 OFFCURVE",
"842 1920 CURVE SMOOTH"
);
},
{
closed = 1;
nodes = (
"810 1680 OFFCURVE",
"824 1662 OFFCURVE",
"824 1620 CURVE SMOOTH",
"824 1383 OFFCURVE",
"578 1027 OFFCURVE",
"383 803 CURVE",
"427 1100 OFFCURVE",
"589 1680 OFFCURVE",
"774 1680 CURVE SMOOTH"
);
}
);
width = 1227;
},
{
layerId = "DE4BB00D-BABA-4D36-9D9A-44FD0E91C3DF";
name = Light;
paths = (
{
closed = 1;
nodes = (
"510 1926 OFFCURVE",
"182 1139 OFFCURVE",
"147 329 CURVE",
"147 23 OFFCURVE",
"186 -10 OFFCURVE",
"224 -10 CURVE SMOOTH",
"366 -10 OFFCURVE",
"707 800 OFFCURVE",
"940 819 CURVE SMOOTH",
"1025 826 OFFCURVE",
"1042 754 OFFCURVE",
"1042 710 CURVE SMOOTH",
"1042 582 OFFCURVE",
"654 403 OFFCURVE",
"654 177 CURVE SMOOTH",
"654 17 OFFCURVE",
"776 -9 OFFCURVE",
"873 -9 CURVE SMOOTH",
"967 -9 OFFCURVE",
"1239 64 OFFCURVE",
"1405 310 CURVE SMOOTH",
"1437 357 OFFCURVE",
"1414 432 OFFCURVE",
"1367 432 CURVE SMOOTH",
"1365 432 OFFCURVE",
"1126 123 OFFCURVE",
"904 123 CURVE SMOOTH",
"854 123 OFFCURVE",
"817 154 OFFCURVE",
"818 208 CURVE",
"839 386 OFFCURVE",
"1216 485 OFFCURVE",
"1193 765 CURVE SMOOTH",
"1182 888 OFFCURVE",
"1107 963 OFFCURVE",
"987 963 CURVE SMOOTH",
"834 963 OFFCURVE",
"713 906 OFFCURVE",
"281 216 CURVE",
"280 313 OFFCURVE",
"294 474 OFFCURVE",
"312 611 CURVE",
"563 804 OFFCURVE",
"1029 1326 OFFCURVE",
"1029 1729 CURVE SMOOTH",
"1029 1837 OFFCURVE",
"950 1926 OFFCURVE",
"845 1926 CURVE SMOOTH"
);
},
{
closed = 1;
nodes = (
"846 1730 OFFCURVE",
"870 1696 OFFCURVE",
"870 1641 CURVE SMOOTH",
"872 1422 OFFCURVE",
"498 871 OFFCURVE",
"342 773 CURVE",
"420 1197 OFFCURVE",
"600 1723 OFFCURVE",
"790 1730 CURVE"
);
}
);
width = 1227;
}
);
unicode = 006B;
},
{
glyphname = l;
lastChange = "2013-12-29 00:27:25 -0800";
layers = (
{
layerId = "5ACEE878-7952-4CAC-A6A7-BEDE971843B4";
name = Regular;
paths = (
{
closed = 1;
nodes = (
"402 772 CURVE",
"446 1069 OFFCURVE",
"608 1680 OFFCURVE",
"793 1680 CURVE SMOOTH",
"829 1680 OFFCURVE",
"843 1662 OFFCURVE",
"843 1620 CURVE SMOOTH",
"843 1383 OFFCURVE",
"597 996 OFFCURVE"
);
},
{
closed = 1;
nodes = (
"443 -9 CURVE SMOOTH",
"608 -9 OFFCURVE",
"757 62 OFFCURVE",
"919 243 CURVE SMOOTH",
"1018 352 OFFCURVE",
"875 450 OFFCURVE",
"816 383 CURVE SMOOTH",
"715 269 OFFCURVE",
"597 177 OFFCURVE",
"492 177 CURVE SMOOTH",
"344 177 OFFCURVE",
"365 392 OFFCURVE",
"388 560 CURVE",
"695 801 OFFCURVE",
"1027 1275 OFFCURVE",
"1058 1696 CURVE SMOOTH",
"1068 1818 OFFCURVE",
"990 1920 OFFCURVE",
"861 1920 CURVE SMOOTH",
"441 1920 OFFCURVE",
"184 1032 OFFCURVE",
"144 526 CURVE SMOOTH",
"119 205 OFFCURVE",
"193 -9 OFFCURVE"
);
}
);
width = 729.999;
},
{
layerId = "DE4BB00D-BABA-4D36-9D9A-44FD0E91C3DF";
name = Light;
paths = (
{
closed = 1;
nodes = (
"313 676 CURVE",
"331 904 OFFCURVE",
"534 1741 OFFCURVE",
"777 1741 CURVE",
"831 1741 OFFCURVE",
"857 1707 OFFCURVE",
"857 1651 CURVE",
"857 1375 OFFCURVE",
"510 878 OFFCURVE"
);
},
{
closed = 1;
nodes = (
"410 -2 CURVE",
"566 -2 OFFCURVE",
"707 65 OFFCURVE",
"864 240 CURVE",
"933 317 OFFCURVE",
"841 380 OFFCURVE",
"805 340 CURVE",
"703 224 OFFCURVE",
"574 124 OFFCURVE",
"459 124 CURVE",
"272 124 OFFCURVE",
"280 345 OFFCURVE",
"304 539 CURVE",
"608 774 OFFCURVE",
"981 1314 OFFCURVE",
"1012 1729 CURVE",
"1020 1836 OFFCURVE",
"955 1921 OFFCURVE",
"845 1921 CURVE",
"451 1921 OFFCURVE",
"180 1023 OFFCURVE",
"141 524 CURVE",
"117 190 OFFCURVE",
"185 -2 OFFCURVE"
);
}
);
width = 695;
}
);
unicode = 006C;
},
{
glyphname = m;
lastChange = "2013-12-29 00:44:57 -0800";
layers = (
{
layerId = "5ACEE878-7952-4CAC-A6A7-BEDE971843B4";
name = Regular;
paths = (
{
closed = 1;
nodes = (
"285 964 OFFCURVE",
"241 918 OFFCURVE",
"224 866 CURVE SMOOTH",
"165 683 OFFCURVE",
"120 430 OFFCURVE",
"120 201 CURVE SMOOTH",
"120 91 OFFCURVE",
"138 -2 OFFCURVE",
"241 -2 CURVE SMOOTH",
"295 -2 OFFCURVE",
"346 23 OFFCURVE",
"411 185 CURVE SMOOTH",
"499 405 OFFCURVE",
"572 484 OFFCURVE",
"700 677 CURVE",
"668 515 OFFCURVE",
"635 368 OFFCURVE",
"615 179 CURVE SMOOTH",
"606 92 OFFCURVE",
"628 -2 OFFCURVE",
"706 -2 CURVE SMOOTH",
"768 -2 OFFCURVE",
"825 15 OFFCURVE",
"841 65 CURVE SMOOTH",
"908 277 OFFCURVE",
"1048 488 OFFCURVE",
"1149 677 CURVE",
"1128 573 OFFCURVE",
"1064 327 OFFCURVE",
"1056 211 CURVE SMOOTH",
"1046 64 OFFCURVE",
"1096 -9 OFFCURVE",
"1241 -7 CURVE SMOOTH",
"1365 -5 OFFCURVE",
"1572 105 OFFCURVE",
"1696 281 CURVE SMOOTH",
"1721 319 OFFCURVE",
"1608 429 OFFCURVE",
"1557 375 CURVE SMOOTH",
"1455 272 OFFCURVE",
"1362 205 OFFCURVE",
"1317 192 CURVE",
"1265 181 OFFCURVE",
"1244 210 OFFCURVE",
"1252 275 CURVE SMOOTH",
"1265 388 OFFCURVE",
"1349 730 OFFCURVE",
"1347 874 CURVE SMOOTH",
"1346 919 OFFCURVE",
"1307 967 OFFCURVE",
"1230 963 CURVE",
"1196 963 OFFCURVE",
"1161 951 OFFCURVE",
"1132 921 CURVE SMOOTH",
"1027 813 OFFCURVE",
"921 665 OFFCURVE",
"851 501 CURVE SMOOTH",
"814 409 LINE",
"814 411 OFFCURVE",
"887 817 OFFCURVE",
"887 872 CURVE SMOOTH",
"887 926 OFFCURVE",
"826 960 OFFCURVE",
"772 960 CURVE SMOOTH",
"744 960 OFFCURVE",
"721 951 OFFCURVE",
"700 934 CURVE SMOOTH",
"580 834 OFFCURVE",
"445 655 OFFCURVE",
"376 501 CURVE SMOOTH",
"333 412 LINE",
"353 507 OFFCURVE",
"436 834 OFFCURVE",
"436 874 CURVE SMOOTH",
"436 929 OFFCURVE",
"397 964 OFFCURVE",
"346 964 CURVE SMOOTH"
);
}
);
width = 1447;
},
{
layerId = "DE4BB00D-BABA-4D36-9D9A-44FD0E91C3DF";
name = Light;
paths = (
{
closed = 1;
nodes = (
"313 965 OFFCURVE",
"273 941 OFFCURVE",
"237 830 CURVE SMOOTH",
"201 720 OFFCURVE",
"169 524 OFFCURVE",
"138 180 CURVE SMOOTH",
"132 88 OFFCURVE",
"149 -8 OFFCURVE",
"229 -8 CURVE SMOOTH",
"313 -8 OFFCURVE",
"310 13 OFFCURVE",
"386 186 CURVE SMOOTH",
"476 393 OFFCURVE",
"679 747 OFFCURVE",
"717 721 CURVE",
"730 702 OFFCURVE",
"641 312 OFFCURVE",
"632 114 CURVE SMOOTH",
"627 8 OFFCURVE",
"678 -8 OFFCURVE",
"701 -8 CURVE SMOOTH",
"730 -8 OFFCURVE",
"783 -7 OFFCURVE",
"827 113 CURVE SMOOTH",
"887 277 OFFCURVE",
"1112 731 OFFCURVE",
"1154 690 CURVE",
"1158 550 OFFCURVE",
"1073 292 OFFCURVE",
"1072 140 CURVE SMOOTH",
"1071 47 OFFCURVE",
"1102 -8 OFFCURVE",
"1216 -7 CURVE SMOOTH",
"1344 -6 OFFCURVE",
"1507 64 OFFCURVE",
"1650 263 CURVE",
"1684 299 OFFCURVE",
"1594 378 OFFCURVE",
"1565 330 CURVE",
"1498 256 OFFCURVE",
"1384 129 OFFCURVE",
"1286 127 CURVE SMOOTH",
"1228 126 OFFCURVE",
"1210 163 OFFCURVE",
"1214 230 CURVE SMOOTH",
"1221 360 OFFCURVE",
"1306 601 OFFCURVE",
"1330 895 CURVE SMOOTH",
"1332 929 OFFCURVE",
"1307 963 OFFCURVE",
"1251 961 CURVE SMOOTH",
"1189 959 OFFCURVE",
"1164 928 OFFCURVE",
"1147 910 CURVE SMOOTH",
"1132 894 OFFCURVE",
"1004 740 OFFCURVE",
"838 427 CURVE",
"787 328 LINE",
"832 581 OFFCURVE",
"871 804 OFFCURVE",
"870 885 CURVE SMOOTH",
"869 945 OFFCURVE",
"840 959 OFFCURVE",
"815 959 CURVE SMOOTH",
"788 959 OFFCURVE",
"756 945 OFFCURVE",
"722 920 CURVE SMOOTH",
"613 839 OFFCURVE",
"479 647 OFFCURVE",
"370 449 CURVE",
"317 349 LINE",
"358 729 OFFCURVE",
"416 818 OFFCURVE",
"419 903 CURVE SMOOTH",
"420 961 OFFCURVE",
"383 964 OFFCURVE",
"359 964 CURVE SMOOTH"
);
}
);
width = 1447;
}
);
unicode = 006D;
},
{
glyphname = n;
lastChange = "2013-12-29 02:57:37 -0800";
layers = (
{
layerId = "5ACEE878-7952-4CAC-A6A7-BEDE971843B4";
name = Regular;
paths = (
{
closed = 1;
nodes = (
"789 -12 CURVE SMOOTH",
"885 -12 OFFCURVE",
"1120 98 OFFCURVE",
"1244 276 CURVE SMOOTH",
"1269 312 OFFCURVE",
"1156 422 OFFCURVE",
"1105 370 CURVE SMOOTH",
"1003 265 OFFCURVE",
"910 198 OFFCURVE",
"865 187 CURVE SMOOTH",
"813 174 OFFCURVE",
"792 203 OFFCURVE",
"800 270 CURVE SMOOTH",
"813 381 OFFCURVE",
"897 723 OFFCURVE",
"895 869 CURVE SMOOTH",
"894 912 OFFCURVE",
"855 960 OFFCURVE",
"778 960 CURVE SMOOTH",
"657 960 OFFCURVE",
"505 739 OFFCURVE",
"336 438 CURVE",
"362 562 OFFCURVE",
"410 762 OFFCURVE",
"442 860 CURVE SMOOTH",
"459 911 OFFCURVE",
"411 964 OFFCURVE",
"352 964 CURVE SMOOTH",
"281 964 OFFCURVE",
"247 918 OFFCURVE",
"226 861 CURVE SMOOTH",
"158 674 OFFCURVE",
"122 417 OFFCURVE",
"120 216 CURVE SMOOTH",
"119 107 OFFCURVE",
"130 0 OFFCURVE",
"239 0 CURVE SMOOTH",
"317 0 OFFCURVE",
"347 20 OFFCURVE",
"386 121 CURVE SMOOTH",
"457 305 OFFCURVE",
"602 549 OFFCURVE",
"697 672 CURVE",
"676 566 OFFCURVE",
"612 320 OFFCURVE",
"604 206 CURVE SMOOTH",
"594 57 OFFCURVE",
"644 -12 OFFCURVE"
);
}
);
width = 994;
},
{
layerId = "DE4BB00D-BABA-4D36-9D9A-44FD0E91C3DF";
name = Light;
paths = (
{
closed = 1;
nodes = (
"784 -12 CURVE",
"880 -12 OFFCURVE",
"1118 97 OFFCURVE",
"1249 267 CURVE",
"1278 307 OFFCURVE",
"1200 382 OFFCURVE",
"1147 323 CURVE",
"1047 218 OFFCURVE",
"922 147 OFFCURVE",
"864 135 CURVE",
"778 115 OFFCURVE",
"773 158 OFFCURVE",
"773 243 CURVE SMOOTH",
"773 372 OFFCURVE",
"911 644 OFFCURVE",
"911 847 CURVE SMOOTH",
"911 897 OFFCURVE",
"888 959 OFFCURVE",
"798 959 CURVE",
"686 959 OFFCURVE",
"442 773 OFFCURVE",
"233 225 CURVE",
"241 400 OFFCURVE",
"337 791 OFFCURVE",
"373 891 CURVE",
"384 920 OFFCURVE",
"348 955 OFFCURVE",
"304 955 CURVE",
"258 955 OFFCURVE",
"244 923 OFFCURVE",
"222 872 CURVE",
"147 688 OFFCURVE",
"100 385 OFFCURVE",
"98 186 CURVE",
"97 80 OFFCURVE",
"96 0 OFFCURVE",
"170 0 CURVE",
"242 0 OFFCURVE",
"265 13 OFFCURVE",
"303 102 CURVE",
"413 468 OFFCURVE",
"689 804 OFFCURVE",
"750 785 CURVE",
"750 598 OFFCURVE",
"611 366 OFFCURVE",
"611 174 CURVE SMOOTH",
"611 60 OFFCURVE",
"642 -12 OFFCURVE"
);
}
);
width = 994;
}
);
unicode = 006E;
},
{
glyphname = o;
lastChange = "2013-12-29 00:45:57 -0800";
layers = (
{
layerId = "5ACEE878-7952-4CAC-A6A7-BEDE971843B4";
name = Regular;
paths = (
{
closed = 1;
nodes = (
"439 172 CURVE SMOOTH",
"327 172 OFFCURVE",
"290 258 OFFCURVE",
"290 365 CURVE SMOOTH",
"290 537 OFFCURVE",
"403 766 OFFCURVE",
"560 766 CURVE SMOOTH",
"623 766 OFFCURVE",
"625 694 OFFCURVE",
"625 694 CURVE",
"511 586 OFFCURVE",
"526 490 OFFCURVE",
"656 428 CURVE",
"645 321 OFFCURVE",
"549 172 OFFCURVE"
);
},
{
closed = 1;
nodes = (
"375 -16 CURVE SMOOTH",
"669 -16 OFFCURVE",
"797 220 OFFCURVE",
"837 374 CURVE",
"939 383 OFFCURVE",
"1137 452 OFFCURVE",
"1222 536 CURVE SMOOTH",
"1268 582 OFFCURVE",
"1197 725 OFFCURVE",
"1143 689 CURVE SMOOTH",
"1057 632 OFFCURVE",
"987.999 581 OFFCURVE",
"864 563 CURVE",
"915 790 OFFCURVE",
"776 966 OFFCURVE",
"588 966 CURVE SMOOTH",
"304 966 OFFCURVE",
"64 672 OFFCURVE",
"64 353 CURVE SMOOTH",
"64 148 OFFCURVE",
"175 -16 OFFCURVE"
);
}
);
width = 942;
},
{
layerId = "DE4BB00D-BABA-4D36-9D9A-44FD0E91C3DF";
name = Light;
paths = (
{
closed = 1;
nodes = (
"410 120 CURVE SMOOTH",
"264 110 OFFCURVE",
"228 226 OFFCURVE",
"228 343 CURVE SMOOTH",
"228 580 OFFCURVE",
"392 837 OFFCURVE",
"572 837 CURVE SMOOTH",
"692 837 OFFCURVE",
"660 651 OFFCURVE",
"660 651 CURVE SMOOTH",
"559 625 OFFCURVE",
"521 472 OFFCURVE",
"658 472 CURVE",
"651 332 OFFCURVE",
"549 130 OFFCURVE"
);
},
{
closed = 1;
nodes = (
"351 -8 CURVE SMOOTH",
"639 -8 OFFCURVE",
"768 285 OFFCURVE",
"797 463 CURVE",
"883 462 OFFCURVE",
"1066 522 OFFCURVE",
"1151 605 CURVE",
"1193 649 OFFCURVE",
"1158 725 OFFCURVE",
"1110 712 CURVE",
"1015 650 OFFCURVE",
"974 589 OFFCURVE",
"813 577 CURVE",
"846 828 OFFCURVE",
"751 965 OFFCURVE",
"571 965 CURVE SMOOTH",
"305 965 OFFCURVE",
"70 635 OFFCURVE",
"70 331 CURVE SMOOTH",
"70 139 OFFCURVE",
"171 -8 OFFCURVE"
);
}
);
width = 925;
}
);
unicode = 006F;
},
{
glyphname = p;
lastChange = "2013-12-29 03:13:59 -0800";
layers = (
{
layerId = "5ACEE878-7952-4CAC-A6A7-BEDE971843B4";
name = Regular;
paths = (
{
closed = 1;
nodes = (
"879 330 CURVE SMOOTH",
"988.999 330 OFFCURVE",
"1178 411 OFFCURVE",
"1273 537 CURVE",
"1290 552 OFFCURVE",
"1298 574 OFFCURVE",
"1298 597 CURVE SMOOTH",
"1298 640 OFFCURVE",
"1272 685 OFFCURVE",
"1238 685 CURVE SMOOTH",
"1229 685 OFFCURVE",
"1219 681 OFFCURVE",
"1209 674 CURVE",
"1110 576 OFFCURVE",
"979.999 546 OFFCURVE",
"936 546 CURVE SMOOTH",
"928 546 OFFCURVE",
"819 704 OFFCURVE",
"748 704 CURVE SMOOTH",
"733 704 OFFCURVE",
"719 697 OFFCURVE",
"709 680 CURVE",
"672 602 OFFCURVE",
"655 538 OFFCURVE",
"655 488 CURVE SMOOTH",
"655 376 OFFCURVE",
"740 330 OFFCURVE"
);
},
{
closed = 1;
nodes = (
"44 -701 CURVE SMOOTH",
"103 -701 OFFCURVE",
"193 -646 OFFCURVE",
"203 -599 CURVE",
"226 -515 OFFCURVE",
"273 -22 OFFCURVE",
"290 63 CURVE",
"347 11 OFFCURVE",
"408 -16 OFFCURVE",
"469 -16 CURVE SMOOTH",
"763 -16 OFFCURVE",
"942 330 OFFCURVE",
"942 616 CURVE SMOOTH",
"942 805 OFFCURVE",
"852 966 OFFCURVE",
"651 966 CURVE SMOOTH",
"239 966 OFFCURVE",
"170 568 OFFCURVE",
"95.9999 254 CURVE SMOOTH",
"81 192 OFFCURVE",
"-4 -438 OFFCURVE",
"-6 -576 CURVE SMOOTH",
"-7 -643 OFFCURVE",
"5 -701 OFFCURVE"
);
},
{
closed = 1;
nodes = (
"464 182 CURVE SMOOTH",
"417 182 OFFCURVE",
"367 199 OFFCURVE",
"314 239 CURVE",
"348 386 OFFCURVE",
"369 774 OFFCURVE",
"604 774 CURVE SMOOTH",
"685 774 OFFCURVE",
"739 673 OFFCURVE",
"739 558 CURVE SMOOTH",
"739 382 OFFCURVE",
"624 182 OFFCURVE"
);
}
);
width = 984;
},
{
layerId = "DE4BB00D-BABA-4D36-9D9A-44FD0E91C3DF";
name = Light;
paths = (
{
closed = 1;
nodes = (
"856 360 CURVE",
"959 360 OFFCURVE",
"1149 438 OFFCURVE",
"1237 557 CURVE",
"1248 576 OFFCURVE",
"1257 596 OFFCURVE",
"1262 620 CURVE",
"1267 651 OFFCURVE",
"1256 692 OFFCURVE",
"1232 678 CURVE",
"1223 672 OFFCURVE",
"1198 652 OFFCURVE",
"1180 637 CURVE",
"1064 541 OFFCURVE",
"925 516 OFFCURVE",
"877 516 CURVE",
"842 516 OFFCURVE",
"810 681 OFFCURVE",
"744 681 CURVE",
"739 681 OFFCURVE",
"718 687 OFFCURVE",
"686 645 CURVE",
"648 592 OFFCURVE",
"650 534 OFFCURVE",
"662 488 CURVE",
"683 409 OFFCURVE",
"729 360 OFFCURVE"
);
},
{
closed = 1;
nodes = (
"26 -600 CURVE",
"73 -600 OFFCURVE",
"120 -571 OFFCURVE",
"126 -541 CURVE",
"167 -139 OFFCURVE",
"232 76 OFFCURVE",
"240 94 CURVE",
"297.009 36.9906 OFFCURVE",
"391 0 OFFCURVE",
"446 0 CURVE",
"718 0 OFFCURVE",
"889 341 OFFCURVE",
"889 616 CURVE",
"889 793 OFFCURVE",
"824 953 OFFCURVE",
"600 960 CURVE",
"253 973 OFFCURVE",
"146 509 OFFCURVE",
"94 251 CURVE",
"80 180 OFFCURVE",
"26 -182 OFFCURVE",
"8 -445 CURVE",
"8 -452 OFFCURVE",
"-16 -600 OFFCURVE"
);
},
{
closed = 1;
nodes = (
"462 152 CURVE",
"405 152 OFFCURVE",
"337 162 OFFCURVE",
"257 227 CURVE",
"272 325 OFFCURVE",
"322 830 OFFCURVE",
"598 830 CURVE",
"701 830 OFFCURVE",
"746 685 OFFCURVE",
"746 558 CURVE",
"746 370 OFFCURVE",
"643 152 OFFCURVE"
);
}
);
width = 984;
}
);
unicode = 0070;
},
{
glyphname = q;
lastChange = "2013-12-29 00:47:29 -0800";
layers = (
{
layerId = "5ACEE878-7952-4CAC-A6A7-BEDE971843B4";
name = Regular;
paths = (
{
closed = 1;
nodes = (
"463 -544 CURVE SMOOTH",
"439 -544 OFFCURVE",
"426 -523 OFFCURVE",
"426 -498 CURVE SMOOTH",
"426 -369 OFFCURVE",
"489 -224 OFFCURVE",
"524 -111 CURVE SMOOTH",
"560 6 OFFCURVE",
"566 24 OFFCURVE",
"569 33 CURVE",
"590 -47 OFFCURVE",
"601 -157 OFFCURVE",
"601 -256 CURVE SMOOTH",
"601 -380 OFFCURVE",
"583 -544 OFFCURVE"
);
},
{
closed = 1;
nodes = (
"441 288 CURVE",
"327 297 OFFCURVE",
"281 392 OFFCURVE",
"281 512 CURVE SMOOTH",
"281 644 OFFCURVE",
"371 768 OFFCURVE",
"505 768 CURVE SMOOTH",
"532 768 OFFCURVE",
"555 750 OFFCURVE",
"569 736 CURVE",
"525 578 OFFCURVE",
"499 432 OFFCURVE"
);
},
{
closed = 1;
nodes = (
"441 -736 CURVE SMOOTH",
"672 -736 OFFCURVE",
"761 -554 OFFCURVE",
"761 -320 CURVE SMOOTH",
"761 -212 OFFCURVE",
"743 -89 OFFCURVE",
"726 6 CURVE",
"883 28 OFFCURVE",
"992.999 104 OFFCURVE",
"1081 192 CURVE SMOOTH",
"1095 206 OFFCURVE",
"1159 332 OFFCURVE",
"1159 392 CURVE SMOOTH",
"1159 411 OFFCURVE",
"1152 424 OFFCURVE",
"1135 424 CURVE SMOOTH",
"1121 424 OFFCURVE",
"1082 403 OFFCURVE",
"967 303 CURVE SMOOTH",
"920 262 OFFCURVE",
"860 192 OFFCURVE",
"729 192 CURVE SMOOTH",
"687 192 OFFCURVE",
"674 224 OFFCURVE",
"674 256 CURVE SMOOTH",
"674 262.667 OFFCURVE",
"791 527.412 OFFCURVE",
"791 698 CURVE SMOOTH",
"791 873 OFFCURVE",
"680 966 OFFCURVE",
"505 966 CURVE SMOOTH",
"257 966 OFFCURVE",
"57 764 OFFCURVE",
"57 512 CURVE SMOOTH",
"57 321 OFFCURVE",
"173 156 OFFCURVE",
"363 156 CURVE SMOOTH",
"379 156 OFFCURVE",
"394 158 OFFCURVE",
"409 160 CURVE",
"352 -46 OFFCURVE",
"249 -270 OFFCURVE",
"249 -512 CURVE SMOOTH",
"249 -633 OFFCURVE",
"323 -736 OFFCURVE"
);
}
);
width = 815;
},
{
layerId = "DE4BB00D-BABA-4D36-9D9A-44FD0E91C3DF";
name = Light;
paths = (
{
closed = 1;
nodes = (
"463 -597 CURVE",
"418 -597 OFFCURVE",
"396 -559 OFFCURVE",
"396 -521 CURVE",
"396 -435 OFFCURVE",
"433 -290 OFFCURVE",
"473.125 -160 CURVE SMOOTH",
"513.25 -31 OFFCURVE",
"556.5 83 OFFCURVE",
"569 108 CURVE",
"597.5 -31 OFFCURVE",
"629.25 -207 OFFCURVE",
"624.75 -349 CURVE SMOOTH",
"620.25 -490 OFFCURVE",
"579.5 -597 OFFCURVE"
);
},
{
closed = 1;
nodes = (
"480 257 CURVE",
"328 257 OFFCURVE",
"251 374 OFFCURVE",
"251 512 CURVE",
"259 687 OFFCURVE",
"359 827 OFFCURVE",
"513 827 CURVE",
"571 827 OFFCURVE",
"617 806 OFFCURVE",
"617 757 CURVE",
"617 686 OFFCURVE",
"552 428 OFFCURVE"
);
},
{
closed = 1;
nodes = (
"441 -729 CURVE",
"649 -729 OFFCURVE",
"731 -566 OFFCURVE",
"731 -320 CURVE",
"731 -202 OFFCURVE",
"701 -26 OFFCURVE",
"683 72 CURVE",
"795 43 OFFCURVE",
"902 90 OFFCURVE",
"994 182 CURVE",
"1003 191 OFFCURVE",
"1044 237 OFFCURVE",
"1044 305 CURVE",
"1044 329 OFFCURVE",
"1045 372 OFFCURVE",
"1021 364 CURVE",
"1013.28 358.032 OFFCURVE",
"993.229 332.714 OFFCURVE",
"964.058 302.369 CURVE SMOOTH",
"910.136 246.275 OFFCURVE",
"825.043 173 OFFCURVE",
"729 173 CURVE",
"633 173 OFFCURVE",
"635 243 OFFCURVE",
"651 298 CURVE",
"689 430 OFFCURVE",
"762 599 OFFCURVE",
"762 737 CURVE",
"762 894 OFFCURVE",
"673 965 OFFCURVE",
"513 965 CURVE",
"281 965 OFFCURVE",
"95 777 OFFCURVE",
"87 512 CURVE",
"87 297.889 OFFCURVE",
"193.905 190.035 OFFCURVE",
"342.004 162.363 CURVE SMOOTH",
"377.895 155.656 OFFCURVE",
"416.206 153.659 OFFCURVE",
"456 156 CURVE",
"399 -52 OFFCURVE",
"279 -300 OFFCURVE",
"279 -535 CURVE",
"279 -642 OFFCURVE",
"342 -729 OFFCURVE"
);
}
);
width = 815;
}
);
unicode = 0071;
},
